SplineFontDB: 3.2
FontName: SFPro-Regular
FullName: SF Pro Regular
FamilyName: SF Pro
Weight: Regular
Copyright: (c) 2015-2017 Apple Inc. All rights reserved.
Version: 1.0
ItalicAngle: 0
UnderlinePosition: -370
UnderlineWidth: 120
Ascent: 1638
Descent: 410
InvalidEm: 0
sfntRevision: 0x00010000
LayerCount: 2
Layer: 0 0 "Back" 1
Layer: 1 0 "Fore" 0
XUID: [1021 497 -1877248868 6706798]
BaseHoriz: 4 'hang' 'ideo' 'math' 'romn'
BaseScript: 'thai' 3  0 -216 0 0
BaseScript: 'cyrl' 3  0 -216 0 0
BaseScript: 'grek' 3  0 -216 0 0
BaseScript: 'latn' 3  0 -216 0 0
StyleMap: 0x0040
FSType: 4
OS2Version: 3
OS2_WeightWidthSlopeOnly: 0
OS2_UseTypoMetrics: 0
CreationTime: 1496154258
ModificationTime: 1597220502
PfmFamily: 81
TTFWeight: 400
TTFWidth: 5
LineGap: 0
VLineGap: 0
Panose: 0 0 5 0 0 0 0 0 0 0
OS2TypoAscent: 1950
OS2TypoAOffset: 0
OS2TypoDescent: -494
OS2TypoDOffset: 0
OS2TypoLinegap: 0
OS2WinAscent: 1950
OS2WinAOffset: 0
OS2WinDescent: 494
OS2WinDOffset: 0
HheadAscent: 1950
HheadAOffset: 0
HheadDescent: -494
HheadDOffset: 0
OS2SubXSize: 1331
OS2SubYSize: 1228
OS2SubXOff: 0
OS2SubYOff: 153
OS2SupXSize: 1331
OS2SupYSize: 1228
OS2SupXOff: 0
OS2SupYOff: 716
OS2StrikeYSize: 120
OS2StrikeYPos: 624
OS2CapHeight: 1443
OS2XHeight: 1040
OS2Vendor: 'APPL'
OS2CodePages: 2000019f.00000000
OS2UnicodeRanges: 2000028f.02000003.00000000.00000000
Lookup: 1 0 0 "'locl' Localized Forms in Latin lookup 0" { "'locl' Localized Forms in Latin lookup 0 subtable"  } ['locl' ('latn' <'MOL ' 'ROM ' > ) ]
Lookup: 1 0 0 "'locl' Localized Forms in Latin lookup 1" { "'locl' Localized Forms in Latin lookup 1 subtable"  } ['locl' ('latn' <'AZE ' 'CRT ' 'TRK ' > ) ]
Lookup: 4 0 0 "'locl' Localized Forms in Latin lookup 2" { "'locl' Localized Forms in Latin lookup 2 subtable"  } ['locl' ('latn' <'NLD ' > ) ]
Lookup: 1 0 0 "'locl' Localized Forms in Cyrillic lookup 3" { "'locl' Localized Forms in Cyrillic lookup 3 subtable"  } ['locl' ('cyrl' <'BGR ' > ) ]

StartChar: .notdef
Encoding: 1114112 -1 0
Width: 2048
Flags: W
LayerCount: 2
Fore
SplineSet
100 -494 m 1
 100 -210 l 1
 1948 -210 l 1
 1948 -494 l 1
 100 -494 l 1
100 -62 m 1
 100 222 l 1
 1948 222 l 1
 1948 -62 l 1
 100 -62 l 1
100 370 m 1
 100 654 l 1
 1948 654 l 1
 1948 370 l 1
 100 370 l 1
100 802 m 1
 100 1086 l 1
 1948 1086 l 1
 1948 802 l 1
 100 802 l 1
100 1234 m 1
 100 1518 l 1
 1948 1518 l 1
 1948 1234 l 1
 100 1234 l 1
100 1666 m 1
 100 1950 l 1
 1948 1950 l 1
 1948 1666 l 1
 100 1666 l 1
EndSplineSet
EndChar

StartChar: A
Encoding: 65 65 4
Width: 1292
Flags: W
LayerCount: 2
Fore
SplineSet
1078 0 m 1
 933 413 l 1
 359 413 l 1
 214 0 l 1
 25 0 l 1
 557 1443 l 1
 735 1443 l 1
 1267 0 l 1
 1078 0 l 1
643 1224 m 1
 412 566 l 1
 880 566 l 1
 649 1224 l 1
 643 1224 l 1
EndSplineSet
Substitution2: "'c2sc' Capitals to Small Capitals lookup 5 subtable" A.sc
EndChar

StartChar: Agrave
Encoding: 192 192 5
Width: 1292
Flags: W
LayerCount: 2
Fore
SplineSet
1078 0 m 1
 933 413 l 1
 359 413 l 1
 214 0 l 1
 25 0 l 1
 557 1443 l 1
 735 1443 l 1
 1267 0 l 1
 1078 0 l 1
643 1224 m 1
 412 566 l 1
 880 566 l 1
 649 1224 l 1
 643 1224 l 1
556 1560 m 1
 296 1849 l 1
 490 1849 l 1
 710 1560 l 1
 556 1560 l 1
EndSplineSet
Substitution2: "'c2sc' Capitals to Small Capitals lookup 5 subtable" Agrave.sc
EndChar

StartChar: Aacute
Encoding: 193 193 6
Width: 1292
Flags: W
LayerCount: 2
Fore
SplineSet
1078 0 m 1
 933 413 l 1
 359 413 l 1
 214 0 l 1
 25 0 l 1
 557 1443 l 1
 735 1443 l 1
 1267 0 l 1
 1078 0 l 1
643 1224 m 1
 412 566 l 1
 880 566 l 1
 649 1224 l 1
 643 1224 l 1
736 1560 m 1
 582 1560 l 1
 802 1849 l 1
 996 1849 l 1
 736 1560 l 1
EndSplineSet
Substitution2: "'c2sc' Capitals to Small Capitals lookup 5 subtable" Aacute.sc
EndChar

StartChar: Adieresis
Encoding: 196 196 7
Width: 1292
Flags: W
LayerCount: 2
Fore
SplineSet
1078 0 m 1
 933 413 l 1
 359 413 l 1
 214 0 l 1
 25 0 l 1
 557 1443 l 1
 735 1443 l 1
 1267 0 l 1
 1078 0 l 1
643 1224 m 1
 412 566 l 1
 880 566 l 1
 649 1224 l 1
 643 1224 l 1
460 1604 m 0
 400 1604 350 1653 350 1714 c 0
 350 1775 400 1824 460 1824 c 0
 520 1824 570 1775 570 1714 c 0
 570 1653 520 1604 460 1604 c 0
832 1604 m 0
 772 1604 722 1653 722 1714 c 0
 722 1775 772 1824 832 1824 c 0
 892 1824 942 1775 942 1714 c 0
 942 1653 892 1604 832 1604 c 0
EndSplineSet
Substitution2: "'c2sc' Capitals to Small Capitals lookup 5 subtable" Adieresis.sc
EndChar

StartChar: Adieresismacron
Encoding: 478 478 8
Width: 1292
Flags: W
LayerCount: 2
Fore
SplineSet
1078 0 m 1
 933 413 l 1
 359 413 l 1
 214 0 l 1
 25 0 l 1
 557 1443 l 1
 735 1443 l 1
 1267 0 l 1
 1078 0 l 1
643 1224 m 1
 412 566 l 1
 880 566 l 1
 649 1224 l 1
 643 1224 l 1
469 1766 m 0
 526 1766 573 1719 573 1660 c 0
 573 1601 526 1554 469 1554 c 0
 411 1554 364 1601 364 1660 c 0
 364 1719 411 1766 469 1766 c 0
329 2025 m 1
 963 2025 l 1
 963 1909 l 1
 329 1909 l 1
 329 2025 l 1
823 1766 m 0
 881 1766 928 1719 928 1660 c 0
 928 1601 881 1554 823 1554 c 0
 766 1554 719 1601 719 1660 c 0
 719 1719 766 1766 823 1766 c 0
EndSplineSet
Substitution2: "'c2sc' Capitals to Small Capitals lookup 5 subtable" Adieresismacron.sc
EndChar

StartChar: Aring
Encoding: 197 197 9
Width: 1292
Flags: W
LayerCount: 2
Fore
SplineSet
1078 0 m 1
 933 413 l 1
 359 413 l 1
 214 0 l 1
 25 0 l 1
 557 1443 l 1
 735 1443 l 1
 1267 0 l 1
 1078 0 l 1
643 1224 m 1
 412 566 l 1
 880 566 l 1
 649 1224 l 1
 643 1224 l 1
646 1516 m 0
 541 1516 455 1602 455 1707 c 0
 455 1812 541 1898 646 1898 c 0
 751 1898 837 1812 837 1707 c 0
 837 1602 751 1516 646 1516 c 0
646 1604 m 0
 703 1604 749 1650 749 1707 c 0
 749 1764 703 1810 646 1810 c 0
 589 1810 543 1764 543 1707 c 0
 543 1650 589 1604 646 1604 c 0
EndSplineSet
Substitution2: "'c2sc' Capitals to Small Capitals lookup 5 subtable" Aring.sc
EndChar

StartChar: Aringacute
Encoding: 506 506 10
Width: 1292
Flags: W
LayerCount: 2
Fore
SplineSet
1078 0 m 1
 933 413 l 1
 359 413 l 1
 214 0 l 1
 25 0 l 1
 557 1443 l 1
 735 1443 l 1
 1267 0 l 1
 1078 0 l 1
643 1224 m 1
 412 566 l 1
 880 566 l 1
 649 1224 l 1
 643 1224 l 1
646 1490 m 0
 544 1490 461 1573 461 1675 c 0
 461 1777 544 1860 646 1860 c 0
 748 1860 831 1777 831 1675 c 0
 831 1573 748 1490 646 1490 c 0
646 1574 m 0
 702 1574 747 1619 747 1675 c 0
 747 1731 702 1776 646 1776 c 0
 590 1776 545 1731 545 1675 c 0
 545 1619 590 1574 646 1574 c 0
708 2096 m 1
 864 2096 l 1
 718 1910 l 1
 580 1910 l 1
 708 2096 l 1
EndSplineSet
Substitution2: "'c2sc' Capitals to Small Capitals lookup 5 subtable" Aringacute.sc
EndChar

StartChar: Atilde
Encoding: 195 195 11
Width: 1292
Flags: W
LayerCount: 2
Fore
SplineSet
1078 0 m 1
 933 413 l 1
 359 413 l 1
 214 0 l 1
 25 0 l 1
 557 1443 l 1
 735 1443 l 1
 1267 0 l 1
 1078 0 l 1
643 1224 m 1
 412 566 l 1
 880 566 l 1
 649 1224 l 1
 643 1224 l 1
777 1580 m 0
 645 1580 595 1732 516 1732 c 0
 470 1732 441 1683 445 1590 c 1
 327 1590 l 1
 327 1754 403 1845 517 1845 c 0
 658 1845 703 1693 778 1693 c 0
 820 1693 847 1740 847 1836 c 1
 965 1836 l 1
 965 1676 886 1580 777 1580 c 0
EndSplineSet
Ligature2: "'liga' Standard Ligatures lookup 29 subtable" A asciitilde
Substitution2: "'c2sc' Capitals to Small Capitals lookup 5 subtable" Atilde.sc
EndChar

StartChar: Abrevegrave
Encoding: 7856 7856 12
Width: 1292
Flags: W
LayerCount: 2
Fore
SplineSet
1078 0 m 1
 933 413 l 1
 359 413 l 1
 214 0 l 1
 25 0 l 1
 557 1443 l 1
 735 1443 l 1
 1267 0 l 1
 1078 0 l 1
643 1224 m 1
 412 566 l 1
 880 566 l 1
 649 1224 l 1
 643 1224 l 1
967 1821 m 1
 955 1658 828 1543 646 1543 c 0
 464 1543 337 1658 325 1821 c 1
 452 1821 l 1
 463 1719 541 1653 646 1653 c 0
 751 1653 829 1719 840 1821 c 1
 967 1821 l 1
742 1830 m 1
 596 1830 l 1
 404 2046 l 1
 574 2046 l 1
 742 1830 l 1
EndSplineSet
Substitution2: "'c2sc' Capitals to Small Capitals lookup 5 subtable" Abrevegrave.sc
EndChar

StartChar: Adotmacron
Encoding: 480 480 13
Width: 1292
Flags: W
LayerCount: 2
Fore
SplineSet
1078 0 m 1
 933 413 l 1
 359 413 l 1
 214 0 l 1
 25 0 l 1
 557 1443 l 1
 735 1443 l 1
 1267 0 l 1
 1078 0 l 1
643 1224 m 1
 412 566 l 1
 880 566 l 1
 649 1224 l 1
 643 1224 l 1
646 1574 m 0
 581 1574 529 1626 529 1691 c 0
 529 1754 581 1806 646 1806 c 0
 711 1806 763 1754 763 1691 c 0
 763 1626 711 1574 646 1574 c 0
963 2025 m 1
 963 1909 l 1
 329 1909 l 1
 329 2025 l 1
 963 2025 l 1
EndSplineSet
Substitution2: "'c2sc' Capitals to Small Capitals lookup 5 subtable" Adotmacron.sc
EndChar

StartChar: Aringbelow
Encoding: 7680 7680 14
Width: 1292
Flags: W
LayerCount: 2
Fore
SplineSet
1078 0 m 1
 933 413 l 1
 359 413 l 1
 214 0 l 1
 25 0 l 1
 557 1443 l 1
 735 1443 l 1
 1267 0 l 1
 1078 0 l 1
643 1224 m 1
 412 566 l 1
 880 566 l 1
 649 1224 l 1
 643 1224 l 1
646 -471 m 0
 541 -471 455 -385 455 -280 c 0
 455 -175 541 -89 646 -89 c 0
 751 -89 837 -175 837 -280 c 0
 837 -385 751 -471 646 -471 c 0
646 -383 m 0
 703 -383 749 -337 749 -280 c 0
 749 -223 703 -177 646 -177 c 0
 589 -177 543 -223 543 -280 c 0
 543 -337 589 -383 646 -383 c 0
EndSplineSet
Substitution2: "'c2sc' Capitals to Small Capitals lookup 5 subtable" Aringbelow.sc
EndChar

StartChar: Acircumflex
Encoding: 194 194 15
Width: 1292
Flags: W
LayerCount: 2
Fore
SplineSet
1078 0 m 1
 933 413 l 1
 359 413 l 1
 214 0 l 1
 25 0 l 1
 557 1443 l 1
 735 1443 l 1
 1267 0 l 1
 1078 0 l 1
643 1224 m 1
 412 566 l 1
 880 566 l 1
 649 1224 l 1
 643 1224 l 1
579 1838 m 1
 713 1838 l 1
 996 1540 l 1
 830 1540 l 1
 649 1732 l 1
 643 1732 l 1
 462 1540 l 1
 296 1540 l 1
 579 1838 l 1
EndSplineSet
Substitution2: "'c2sc' Capitals to Small Capitals lookup 5 subtable" Acircumflex.sc
EndChar

StartChar: Acircumflexdotbelow
Encoding: 7852 7852 16
Width: 1292
Flags: W
LayerCount: 2
Fore
SplineSet
1078 0 m 1
 933 413 l 1
 359 413 l 1
 214 0 l 1
 25 0 l 1
 557 1443 l 1
 735 1443 l 1
 1267 0 l 1
 1078 0 l 1
643 1224 m 1
 412 566 l 1
 880 566 l 1
 649 1224 l 1
 643 1224 l 1
579 1838 m 1
 713 1838 l 1
 996 1540 l 1
 830 1540 l 1
 649 1732 l 1
 643 1732 l 1
 462 1540 l 1
 296 1540 l 1
 579 1838 l 1
646 -389 m 0
 579 -389 525 -335 525 -268 c 0
 525 -201 579 -147 646 -147 c 0
 713 -147 767 -201 767 -268 c 0
 767 -335 713 -389 646 -389 c 0
EndSplineSet
Substitution2: "'c2sc' Capitals to Small Capitals lookup 5 subtable" Acircumflexdotbelow.sc
EndChar

StartChar: Acircumflexacute
Encoding: 7844 7844 17
Width: 1292
Flags: W
LayerCount: 2
Fore
SplineSet
1078 0 m 1
 933 413 l 1
 359 413 l 1
 214 0 l 1
 25 0 l 1
 557 1443 l 1
 735 1443 l 1
 1267 0 l 1
 1078 0 l 1
643 1224 m 1
 412 566 l 1
 880 566 l 1
 649 1224 l 1
 643 1224 l 1
570 1798 m 1
 722 1798 l 1
 1004 1540 l 1
 830 1540 l 1
 649 1708 l 1
 643 1708 l 1
 462 1540 l 1
 288 1540 l 1
 570 1798 l 1
820 1830 m 1
 988 2046 l 1
 1158 2046 l 1
 966 1830 l 1
 820 1830 l 1
EndSplineSet
Substitution2: "'c2sc' Capitals to Small Capitals lookup 5 subtable" Acircumflexacute.sc
EndChar

StartChar: Acircumflextilde
Encoding: 7850 7850 18
Width: 1292
Flags: W
LayerCount: 2
Fore
SplineSet
1078 0 m 1
 933 413 l 1
 359 413 l 1
 214 0 l 1
 25 0 l 1
 557 1443 l 1
 735 1443 l 1
 1267 0 l 1
 1078 0 l 1
643 1224 m 1
 412 566 l 1
 880 566 l 1
 649 1224 l 1
 643 1224 l 1
766 1836 m 0
 630 1836 598 1965 530 1965 c 0
 485 1965 456 1926 452 1859 c 1
 335 1859 l 1
 335 1979 407 2066 526 2066 c 0
 662 2066 694 1940 762 1940 c 0
 802 1940 835 1977 840 2043 c 1
 957 2043 l 1
 957 1926 878 1836 766 1836 c 0
570 1788 m 1
 722 1788 l 1
 1004 1540 l 1
 830 1540 l 1
 649 1700 l 1
 643 1700 l 1
 462 1540 l 1
 288 1540 l 1
 570 1788 l 1
EndSplineSet
Substitution2: "'c2sc' Capitals to Small Capitals lookup 5 subtable" Acircumflextilde.sc
EndChar

StartChar: Acircumflexgrave
Encoding: 7846 7846 19
Width: 1292
Flags: W
LayerCount: 2
Fore
SplineSet
1078 0 m 1
 933 413 l 1
 359 413 l 1
 214 0 l 1
 25 0 l 1
 557 1443 l 1
 735 1443 l 1
 1267 0 l 1
 1078 0 l 1
643 1224 m 1
 412 566 l 1
 880 566 l 1
 649 1224 l 1
 643 1224 l 1
570 1798 m 1
 722 1798 l 1
 1004 1540 l 1
 830 1540 l 1
 649 1708 l 1
 643 1708 l 1
 462 1540 l 1
 288 1540 l 1
 570 1798 l 1
1008 1830 m 1
 862 1830 l 1
 670 2046 l 1
 840 2046 l 1
 1008 1830 l 1
EndSplineSet
Substitution2: "'c2sc' Capitals to Small Capitals lookup 5 subtable" Acircumflexgrave.sc
EndChar

StartChar: Acircumflexhookabove
Encoding: 7848 7848 20
Width: 1292
Flags: W
LayerCount: 2
Fore
SplineSet
1078 0 m 1
 933 413 l 1
 359 413 l 1
 214 0 l 1
 25 0 l 1
 557 1443 l 1
 735 1443 l 1
 1267 0 l 1
 1078 0 l 1
643 1224 m 1
 412 566 l 1
 880 566 l 1
 649 1224 l 1
 643 1224 l 1
570 1798 m 1
 722 1798 l 1
 1004 1540 l 1
 830 1540 l 1
 649 1708 l 1
 643 1708 l 1
 462 1540 l 1
 288 1540 l 1
 570 1798 l 1
770 1945 m 1
 770 2031 l 1
 799 2045 840 2053 875 2053 c 0
 975 2053 1044 1995 1044 1907 c 0
 1044 1836 1000 1772 930 1750 c 1
 853 1811 l 1
 900 1827 931 1862 931 1901 c 0
 931 1935 899 1962 856 1962 c 0
 822 1962 792 1956 770 1945 c 1
EndSplineSet
Substitution2: "'c2sc' Capitals to Small Capitals lookup 5 subtable" Acircumflexhookabove.sc
EndChar

StartChar: Abreve
Encoding: 258 258 21
Width: 1292
Flags: W
LayerCount: 2
Fore
SplineSet
1078 0 m 1
 933 413 l 1
 359 413 l 1
 214 0 l 1
 25 0 l 1
 557 1443 l 1
 735 1443 l 1
 1267 0 l 1
 1078 0 l 1
643 1224 m 1
 412 566 l 1
 880 566 l 1
 649 1224 l 1
 643 1224 l 1
325 1848 m 1
 452 1848 l 1
 464 1727 541 1654 646 1654 c 0
 751 1654 828 1727 840 1848 c 1
 967 1848 l 1
 954 1684 838 1542 646 1542 c 0
 454 1542 338 1684 325 1848 c 1
EndSplineSet
Substitution2: "'c2sc' Capitals to Small Capitals lookup 5 subtable" Abreve.sc
EndChar

StartChar: Abreveacute
Encoding: 7854 7854 22
Width: 1292
Flags: W
LayerCount: 2
Fore
SplineSet
1078 0 m 1
 933 413 l 1
 359 413 l 1
 214 0 l 1
 25 0 l 1
 557 1443 l 1
 735 1443 l 1
 1267 0 l 1
 1078 0 l 1
643 1224 m 1
 412 566 l 1
 880 566 l 1
 649 1224 l 1
 643 1224 l 1
325 1821 m 1
 452 1821 l 1
 463 1719 541 1653 646 1653 c 0
 751 1653 829 1719 840 1821 c 1
 967 1821 l 1
 955 1658 828 1543 646 1543 c 0
 464 1543 337 1658 325 1821 c 1
550 1830 m 1
 718 2046 l 1
 888 2046 l 1
 696 1830 l 1
 550 1830 l 1
EndSplineSet
Substitution2: "'c2sc' Capitals to Small Capitals lookup 5 subtable" Abreveacute.sc
EndChar

StartChar: Abrevetilde
Encoding: 7860 7860 23
Width: 1292
Flags: W
LayerCount: 2
Fore
SplineSet
1078 0 m 1
 933 413 l 1
 359 413 l 1
 214 0 l 1
 25 0 l 1
 557 1443 l 1
 735 1443 l 1
 1267 0 l 1
 1078 0 l 1
643 1224 m 1
 412 566 l 1
 880 566 l 1
 649 1224 l 1
 643 1224 l 1
325 1801 m 1
 452 1801 l 1
 463 1722 541 1653 646 1653 c 0
 751 1653 829 1722 840 1801 c 1
 967 1801 l 1
 955 1668 828 1543 646 1543 c 0
 464 1543 337 1668 325 1801 c 1
766 1836 m 0
 630 1836 598 1965 530 1965 c 0
 485 1965 456 1926 452 1859 c 1
 335 1859 l 1
 335 1979 407 2066 526 2066 c 0
 662 2066 694 1940 762 1940 c 0
 802 1940 835 1977 840 2043 c 1
 957 2043 l 1
 957 1926 878 1836 766 1836 c 0
EndSplineSet
Substitution2: "'c2sc' Capitals to Small Capitals lookup 5 subtable" Abrevetilde.sc
EndChar

StartChar: Abrevehookabove
Encoding: 7858 7858 24
Width: 1292
Flags: W
LayerCount: 2
Fore
SplineSet
1078 0 m 1
 933 413 l 1
 359 413 l 1
 214 0 l 1
 25 0 l 1
 557 1443 l 1
 735 1443 l 1
 1267 0 l 1
 1078 0 l 1
643 1224 m 1
 412 566 l 1
 880 566 l 1
 649 1224 l 1
 643 1224 l 1
492 2003 m 1
 492 2099 l 1
 518 2114 561 2125 608 2125 c 0
 722 2125 797 2060 797 1960 c 0
 797 1880 737 1806 643 1772 c 1
 586 1853 l 1
 639 1868 675 1910 675 1953 c 0
 675 1993 637 2024 589 2024 c 0
 554 2024 516 2015 492 2003 c 1
325 1821 m 1
 452 1821 l 1
 463 1719 541 1653 646 1653 c 0
 751 1653 829 1719 840 1821 c 1
 967 1821 l 1
 955 1658 828 1543 646 1543 c 0
 464 1543 337 1658 325 1821 c 1
EndSplineSet
Substitution2: "'c2sc' Capitals to Small Capitals lookup 5 subtable" Abrevehookabove.sc
EndChar

StartChar: Abrevedotbelow
Encoding: 7862 7862 25
Width: 1292
Flags: W
LayerCount: 2
Fore
SplineSet
1078 0 m 1
 933 413 l 1
 359 413 l 1
 214 0 l 1
 25 0 l 1
 557 1443 l 1
 735 1443 l 1
 1267 0 l 1
 1078 0 l 1
643 1224 m 1
 412 566 l 1
 880 566 l 1
 649 1224 l 1
 643 1224 l 1
325 1848 m 1
 452 1848 l 1
 464 1727 541 1654 646 1654 c 0
 751 1654 828 1727 840 1848 c 1
 967 1848 l 1
 954 1684 838 1542 646 1542 c 0
 454 1542 338 1684 325 1848 c 1
646 -389 m 0
 579 -389 525 -335 525 -268 c 0
 525 -201 579 -147 646 -147 c 0
 713 -147 767 -201 767 -268 c 0
 767 -335 713 -389 646 -389 c 0
EndSplineSet
Substitution2: "'c2sc' Capitals to Small Capitals lookup 5 subtable" Abrevedotbelow.sc
EndChar

StartChar: Ainvertedbreve
Encoding: 514 514 26
Width: 1292
Flags: W
LayerCount: 2
Fore
SplineSet
1078 0 m 1
 933 413 l 1
 359 413 l 1
 214 0 l 1
 25 0 l 1
 557 1443 l 1
 735 1443 l 1
 1267 0 l 1
 1078 0 l 1
643 1224 m 1
 412 566 l 1
 880 566 l 1
 649 1224 l 1
 643 1224 l 1
325 1542 m 1
 338 1706 454 1848 646 1848 c 0
 838 1848 954 1706 967 1542 c 1
 840 1542 l 1
 828 1663 751 1736 646 1736 c 0
 541 1736 464 1663 452 1542 c 1
 325 1542 l 1
EndSplineSet
Substitution2: "'c2sc' Capitals to Small Capitals lookup 5 subtable" Ainvertedbreve.sc
EndChar

StartChar: Acaron
Encoding: 461 461 27
Width: 1292
Flags: W
LayerCount: 2
Fore
SplineSet
1078 0 m 1
 933 413 l 1
 359 413 l 1
 214 0 l 1
 25 0 l 1
 557 1443 l 1
 735 1443 l 1
 1267 0 l 1
 1078 0 l 1
643 1224 m 1
 412 566 l 1
 880 566 l 1
 649 1224 l 1
 643 1224 l 1
579 1550 m 1
 296 1848 l 1
 462 1848 l 1
 643 1656 l 1
 649 1656 l 1
 830 1848 l 1
 996 1848 l 1
 713 1550 l 1
 579 1550 l 1
EndSplineSet
Substitution2: "'c2sc' Capitals to Small Capitals lookup 5 subtable" Acaron.sc
EndChar

StartChar: Adotaccent
Encoding: 550 550 28
Width: 1292
Flags: W
LayerCount: 2
Fore
SplineSet
1078 0 m 1
 933 413 l 1
 359 413 l 1
 214 0 l 1
 25 0 l 1
 557 1443 l 1
 735 1443 l 1
 1267 0 l 1
 1078 0 l 1
643 1224 m 1
 412 566 l 1
 880 566 l 1
 649 1224 l 1
 643 1224 l 1
646 1585 m 0
 579 1585 525 1639 525 1706 c 0
 525 1773 579 1827 646 1827 c 0
 713 1827 767 1773 767 1706 c 0
 767 1639 713 1585 646 1585 c 0
EndSplineSet
Substitution2: "'c2sc' Capitals to Small Capitals lookup 5 subtable" Adotaccent.sc
EndChar

StartChar: Adotbelow
Encoding: 7840 7840 29
Width: 1292
Flags: W
LayerCount: 2
Fore
SplineSet
1078 0 m 1
 933 413 l 1
 359 413 l 1
 214 0 l 1
 25 0 l 1
 557 1443 l 1
 735 1443 l 1
 1267 0 l 1
 1078 0 l 1
643 1224 m 1
 412 566 l 1
 880 566 l 1
 649 1224 l 1
 643 1224 l 1
646 -389 m 0
 579 -389 525 -335 525 -268 c 0
 525 -201 579 -147 646 -147 c 0
 713 -147 767 -201 767 -268 c 0
 767 -335 713 -389 646 -389 c 0
EndSplineSet
Substitution2: "'c2sc' Capitals to Small Capitals lookup 5 subtable" Adotbelow.sc
EndChar

StartChar: Ahookabove
Encoding: 7842 7842 30
Width: 1292
Flags: W
LayerCount: 2
Fore
SplineSet
1078 0 m 1
 933 413 l 1
 359 413 l 1
 214 0 l 1
 25 0 l 1
 557 1443 l 1
 735 1443 l 1
 1267 0 l 1
 1078 0 l 1
643 1224 m 1
 412 566 l 1
 880 566 l 1
 649 1224 l 1
 643 1224 l 1
486 1753 m 1
 486 1849 l 1
 520 1864 564 1871 607 1871 c 0
 721 1871 802 1809 802 1711 c 0
 802 1630 738 1559 643 1527 c 1
 583 1605 l 1
 637 1622 673 1661 673 1704 c 0
 673 1742 636 1772 586 1772 c 0
 553 1772 515 1766 486 1753 c 1
EndSplineSet
Substitution2: "'c2sc' Capitals to Small Capitals lookup 5 subtable" Ahookabove.sc
EndChar

StartChar: Adblgrave
Encoding: 512 512 31
Width: 1292
Flags: W
LayerCount: 2
Fore
SplineSet
1078 0 m 1
 933 413 l 1
 359 413 l 1
 214 0 l 1
 25 0 l 1
 557 1443 l 1
 735 1443 l 1
 1267 0 l 1
 1078 0 l 1
643 1224 m 1
 412 566 l 1
 880 566 l 1
 649 1224 l 1
 643 1224 l 1
716 1560 m 1
 456 1849 l 1
 650 1849 l 1
 870 1560 l 1
 716 1560 l 1
396 1560 m 1
 136 1849 l 1
 330 1849 l 1
 550 1560 l 1
 396 1560 l 1
EndSplineSet
Substitution2: "'c2sc' Capitals to Small Capitals lookup 5 subtable" Adblgrave.sc
EndChar

StartChar: Amacron
Encoding: 256 256 32
Width: 1292
Flags: W
LayerCount: 2
Fore
SplineSet
1078 0 m 1
 933 413 l 1
 359 413 l 1
 214 0 l 1
 25 0 l 1
 557 1443 l 1
 735 1443 l 1
 1267 0 l 1
 1078 0 l 1
643 1224 m 1
 412 566 l 1
 880 566 l 1
 649 1224 l 1
 643 1224 l 1
963 1750 m 1
 963 1634 l 1
 329 1634 l 1
 329 1750 l 1
 963 1750 l 1
EndSplineSet
Substitution2: "'c2sc' Capitals to Small Capitals lookup 5 subtable" Amacron.sc
EndChar

StartChar: Aogonek
Encoding: 260 260 33
Width: 1292
Flags: W
LayerCount: 2
Fore
SplineSet
643 1224 m 1
 412 566 l 1
 880 566 l 1
 649 1224 l 1
 643 1224 l 1
1252 -413 m 1
 1234 -422 1189 -430 1134 -430 c 0
 1004 -430 906 -355 906 -242 c 0
 906 -154 950 -68 1074 11 c 1
 933 413 l 1
 359 413 l 1
 214 0 l 1
 25 0 l 1
 557 1443 l 1
 735 1443 l 1
 1266 3 l 1
 1257 -1 l 2
 1121 -61 1052 -135 1052 -204 c 0
 1052 -269 1106 -301 1171 -301 c 0
 1199 -301 1228 -297 1252 -292 c 1
 1252 -413 l 1
EndSplineSet
Substitution2: "'c2sc' Capitals to Small Capitals lookup 5 subtable" Aogonek.sc
EndChar

StartChar: B
Encoding: 66 66 34
Width: 1238
Flags: W
LayerCount: 2
Fore
SplineSet
685 0 m 2
 140 0 l 1
 140 1443 l 1
 687 1443 l 2
 934 1443 1101 1299 1101 1083 c 0
 1101 933 991 793 852 768 c 1
 852 760 l 1
 1048 735 1174 597 1174 405 c 0
 1174 151 992 0 685 0 c 2
320 1284 m 1
 320 821 l 1
 590 821 l 2
 803 821 919 906 919 1062 c 0
 919 1205 821 1284 646 1284 c 2
 320 1284 l 1
320 159 m 1
 658 159 l 2
 875 159 989 247 989 414 c 0
 989 581 871 666 641 666 c 2
 320 666 l 1
 320 159 l 1
EndSplineSet
Substitution2: "'c2sc' Capitals to Small Capitals lookup 5 subtable" B.sc
EndChar

StartChar: Blinebelow
Encoding: 7686 7686 35
Width: 1238
Flags: W
LayerCount: 2
Fore
SplineSet
685 0 m 2
 140 0 l 1
 140 1443 l 1
 687 1443 l 2
 934 1443 1101 1299 1101 1083 c 0
 1101 933 991 793 852 768 c 1
 852 760 l 1
 1048 735 1174 597 1174 405 c 0
 1174 151 992 0 685 0 c 2
320 1284 m 1
 320 821 l 1
 590 821 l 2
 803 821 919 906 919 1062 c 0
 919 1205 821 1284 646 1284 c 2
 320 1284 l 1
320 159 m 1
 658 159 l 2
 875 159 989 247 989 414 c 0
 989 581 871 666 641 666 c 2
 320 666 l 1
 320 159 l 1
878 -217 m 1
 878 -333 l 1
 244 -333 l 1
 244 -217 l 1
 878 -217 l 1
EndSplineSet
Substitution2: "'c2sc' Capitals to Small Capitals lookup 5 subtable" Blinebelow.sc
EndChar

StartChar: Bdotbelow
Encoding: 7684 7684 36
Width: 1238
Flags: W
LayerCount: 2
Fore
SplineSet
685 0 m 2
 140 0 l 1
 140 1443 l 1
 687 1443 l 2
 934 1443 1101 1299 1101 1083 c 0
 1101 933 991 793 852 768 c 1
 852 760 l 1
 1048 735 1174 597 1174 405 c 0
 1174 151 992 0 685 0 c 2
320 1284 m 1
 320 821 l 1
 590 821 l 2
 803 821 919 906 919 1062 c 0
 919 1205 821 1284 646 1284 c 2
 320 1284 l 1
320 159 m 1
 658 159 l 2
 875 159 989 247 989 414 c 0
 989 581 871 666 641 666 c 2
 320 666 l 1
 320 159 l 1
561 -389 m 0
 494 -389 440 -335 440 -268 c 0
 440 -201 494 -147 561 -147 c 0
 628 -147 682 -201 682 -268 c 0
 682 -335 628 -389 561 -389 c 0
EndSplineSet
Substitution2: "'c2sc' Capitals to Small Capitals lookup 5 subtable" Bdotbelow.sc
EndChar

StartChar: Bdotaccent
Encoding: 7682 7682 37
Width: 1238
Flags: W
LayerCount: 2
Fore
SplineSet
685 0 m 2
 140 0 l 1
 140 1443 l 1
 687 1443 l 2
 934 1443 1101 1299 1101 1083 c 0
 1101 933 991 793 852 768 c 1
 852 760 l 1
 1048 735 1174 597 1174 405 c 0
 1174 151 992 0 685 0 c 2
320 1284 m 1
 320 821 l 1
 590 821 l 2
 803 821 919 906 919 1062 c 0
 919 1205 821 1284 646 1284 c 2
 320 1284 l 1
320 159 m 1
 658 159 l 2
 875 159 989 247 989 414 c 0
 989 581 871 666 641 666 c 2
 320 666 l 1
 320 159 l 1
561 1585 m 0
 494 1585 440 1639 440 1706 c 0
 440 1773 494 1827 561 1827 c 0
 628 1827 682 1773 682 1706 c 0
 682 1639 628 1585 561 1585 c 0
EndSplineSet
Substitution2: "'c2sc' Capitals to Small Capitals lookup 5 subtable" Bdotaccent.sc
EndChar

StartChar: C
Encoding: 67 67 38
Width: 1405
Flags: W
LayerCount: 2
Fore
SplineSet
734 -24 m 0
 336 -24 84 265 84 722 c 0
 84 1175 339 1467 734 1467 c 0
 1048 1467 1287 1276 1333 988 c 1
 1151 988 l 1
 1105 1177 940 1301 734 1301 c 0
 452 1301 269 1073 269 722 c 0
 269 368 450 142 735 142 c 0
 947 142 1099 244 1151 420 c 1
 1333 420 l 1
 1267 135 1053 -24 734 -24 c 0
EndSplineSet
Substitution2: "'c2sc' Capitals to Small Capitals lookup 5 subtable" C.sc
EndChar

StartChar: Cacute
Encoding: 262 262 39
Width: 1405
Flags: W
LayerCount: 2
Fore
SplineSet
734 -24 m 0
 336 -24 84 265 84 722 c 0
 84 1175 339 1467 734 1467 c 0
 1048 1467 1287 1276 1333 988 c 1
 1151 988 l 1
 1105 1177 940 1301 734 1301 c 0
 452 1301 269 1073 269 722 c 0
 269 368 450 142 735 142 c 0
 947 142 1099 244 1151 420 c 1
 1333 420 l 1
 1267 135 1053 -24 734 -24 c 0
824 1562 m 1
 670 1562 l 1
 890 1851 l 1
 1084 1851 l 1
 824 1562 l 1
EndSplineSet
Substitution2: "'c2sc' Capitals to Small Capitals lookup 5 subtable" Cacute.sc
EndChar

StartChar: Ccaron
Encoding: 268 268 40
Width: 1405
Flags: W
LayerCount: 2
Fore
SplineSet
734 -24 m 0
 336 -24 84 265 84 722 c 0
 84 1175 339 1467 734 1467 c 0
 1048 1467 1287 1276 1333 988 c 1
 1151 988 l 1
 1105 1177 940 1301 734 1301 c 0
 452 1301 269 1073 269 722 c 0
 269 368 450 142 735 142 c 0
 947 142 1099 244 1151 420 c 1
 1333 420 l 1
 1267 135 1053 -24 734 -24 c 0
667 1552 m 1
 384 1850 l 1
 550 1850 l 1
 731 1658 l 1
 737 1658 l 1
 918 1850 l 1
 1084 1850 l 1
 801 1552 l 1
 667 1552 l 1
EndSplineSet
Substitution2: "'c2sc' Capitals to Small Capitals lookup 5 subtable" Ccaron.sc
EndChar

StartChar: Ccircumflex
Encoding: 264 264 41
Width: 1405
Flags: W
LayerCount: 2
Fore
SplineSet
734 -24 m 0
 336 -24 84 265 84 722 c 0
 84 1175 339 1467 734 1467 c 0
 1048 1467 1287 1276 1333 988 c 1
 1151 988 l 1
 1105 1177 940 1301 734 1301 c 0
 452 1301 269 1073 269 722 c 0
 269 368 450 142 735 142 c 0
 947 142 1099 244 1151 420 c 1
 1333 420 l 1
 1267 135 1053 -24 734 -24 c 0
667 1840 m 1
 801 1840 l 1
 1084 1542 l 1
 918 1542 l 1
 737 1734 l 1
 731 1734 l 1
 550 1542 l 1
 384 1542 l 1
 667 1840 l 1
EndSplineSet
Substitution2: "'c2sc' Capitals to Small Capitals lookup 5 subtable" Ccircumflex.sc
EndChar

StartChar: Cdotaccent
Encoding: 266 266 42
Width: 1405
Flags: W
LayerCount: 2
Fore
SplineSet
734 -24 m 0
 336 -24 84 265 84 722 c 0
 84 1175 339 1467 734 1467 c 0
 1048 1467 1287 1276 1333 988 c 1
 1151 988 l 1
 1105 1177 940 1301 734 1301 c 0
 452 1301 269 1073 269 722 c 0
 269 368 450 142 735 142 c 0
 947 142 1099 244 1151 420 c 1
 1333 420 l 1
 1267 135 1053 -24 734 -24 c 0
734 1587 m 0
 667 1587 613 1641 613 1708 c 0
 613 1775 667 1829 734 1829 c 0
 801 1829 855 1775 855 1708 c 0
 855 1641 801 1587 734 1587 c 0
EndSplineSet
Substitution2: "'c2sc' Capitals to Small Capitals lookup 5 subtable" Cdotaccent.sc
EndChar

StartChar: Ccedilla
Encoding: 199 199 43
Width: 1405
Flags: W
LayerCount: 2
Fore
SplineSet
1333 988 m 1
 1151 988 l 1
 1105 1177 940 1301 734 1301 c 0
 452 1301 269 1073 269 722 c 0
 269 368 450 142 735 142 c 0
 947 142 1099 244 1151 420 c 1
 1333 420 l 1
 1272 157 1085 1 805 -21 c 1
 758 -130 l 1
 888 -132 972 -188 972 -290 c 0
 972 -404 868 -466 738 -468 c 0
 680 -469 614 -462 588 -454 c 1
 588 -352 l 1
 610 -357 671 -364 713 -364 c 0
 796 -364 840 -338 840 -292 c 0
 840 -246 796 -228 694 -228 c 2
 624 -228 l 1
 624 -159 l 1
 678 -22 l 1
 313 4 84 287 84 722 c 0
 84 1175 339 1467 734 1467 c 0
 1048 1467 1287 1276 1333 988 c 1
EndSplineSet
Substitution2: "'c2sc' Capitals to Small Capitals lookup 5 subtable" Ccedilla.sc
EndChar

StartChar: Ccedillaacute
Encoding: 7688 7688 44
Width: 1405
Flags: W
LayerCount: 2
Fore
SplineSet
1084 1851 m 1
 824 1562 l 1
 670 1562 l 1
 890 1851 l 1
 1084 1851 l 1
1333 988 m 1
 1151 988 l 1
 1105 1177 940 1301 734 1301 c 0
 452 1301 269 1073 269 722 c 0
 269 368 450 142 735 142 c 0
 947 142 1099 244 1151 420 c 1
 1333 420 l 1
 1272 157 1085 1 805 -21 c 1
 758 -130 l 1
 888 -132 972 -188 972 -290 c 0
 972 -404 868 -466 738 -468 c 0
 680 -469 614 -462 588 -454 c 1
 588 -352 l 1
 610 -357 671 -364 713 -364 c 0
 796 -364 840 -338 840 -292 c 0
 840 -246 796 -228 694 -228 c 2
 624 -228 l 1
 624 -159 l 1
 678 -22 l 1
 313 4 84 287 84 722 c 0
 84 1175 339 1467 734 1467 c 0
 1048 1467 1287 1276 1333 988 c 1
EndSplineSet
Substitution2: "'c2sc' Capitals to Small Capitals lookup 5 subtable" Ccedillaacute.sc
EndChar

StartChar: D
Encoding: 68 68 45
Width: 1389
Flags: W
LayerCount: 2
Fore
SplineSet
140 1443 m 1
 625 1443 l 2
 1053 1443 1306 1176 1306 722 c 0
 1306 267 1054 0 625 0 c 2
 140 0 l 1
 140 1443 l 1
320 1281 m 1
 320 162 l 1
 613 162 l 2
 940 162 1122 362 1122 720 c 0
 1122 1081 941 1281 613 1281 c 2
 320 1281 l 1
EndSplineSet
Substitution2: "'c2sc' Capitals to Small Capitals lookup 5 subtable" D.sc
EndChar

StartChar: Ddotaccent
Encoding: 7690 7690 46
Width: 1389
Flags: W
LayerCount: 2
Fore
SplineSet
140 1443 m 1
 625 1443 l 2
 1053 1443 1306 1176 1306 722 c 0
 1306 267 1054 0 625 0 c 2
 140 0 l 1
 140 1443 l 1
320 1281 m 1
 320 162 l 1
 613 162 l 2
 940 162 1122 362 1122 720 c 0
 1122 1081 941 1281 613 1281 c 2
 320 1281 l 1
550 1585 m 0
 483 1585 429 1639 429 1706 c 0
 429 1773 483 1827 550 1827 c 0
 617 1827 671 1773 671 1706 c 0
 671 1639 617 1585 550 1585 c 0
EndSplineSet
Substitution2: "'c2sc' Capitals to Small Capitals lookup 5 subtable" Ddotaccent.sc
EndChar

StartChar: Dcircumflexbelow
Encoding: 7698 7698 47
Width: 1389
Flags: W
LayerCount: 2
Fore
SplineSet
140 1443 m 1
 625 1443 l 2
 1053 1443 1306 1176 1306 722 c 0
 1306 267 1054 0 625 0 c 2
 140 0 l 1
 140 1443 l 1
320 1281 m 1
 320 162 l 1
 613 162 l 2
 940 162 1122 362 1122 720 c 0
 1122 1081 941 1281 613 1281 c 2
 320 1281 l 1
483 -127 m 1
 617 -127 l 1
 900 -425 l 1
 734 -425 l 1
 553 -233 l 1
 547 -233 l 1
 366 -425 l 1
 200 -425 l 1
 483 -127 l 1
EndSplineSet
Substitution2: "'c2sc' Capitals to Small Capitals lookup 5 subtable" Dcircumflexbelow.sc
EndChar

StartChar: Dcommaaccent
Encoding: 7696 7696 48
Width: 1389
Flags: W
LayerCount: 2
Fore
SplineSet
140 1443 m 1
 625 1443 l 2
 1053 1443 1306 1176 1306 722 c 0
 1306 267 1054 0 625 0 c 2
 140 0 l 1
 140 1443 l 1
320 1281 m 1
 320 162 l 1
 613 162 l 2
 940 162 1122 362 1122 720 c 0
 1122 1081 941 1281 613 1281 c 2
 320 1281 l 1
522 -486 m 1
 396 -486 l 1
 504 -127 l 1
 656 -127 l 1
 522 -486 l 1
EndSplineSet
Substitution2: "'c2sc' Capitals to Small Capitals lookup 5 subtable" Dcommaaccent.sc
EndChar

StartChar: Dlinebelow
Encoding: 7694 7694 49
Width: 1389
Flags: W
LayerCount: 2
Fore
SplineSet
140 1443 m 1
 625 1443 l 2
 1053 1443 1306 1176 1306 722 c 0
 1306 267 1054 0 625 0 c 2
 140 0 l 1
 140 1443 l 1
320 1281 m 1
 320 162 l 1
 613 162 l 2
 940 162 1122 362 1122 720 c 0
 1122 1081 941 1281 613 1281 c 2
 320 1281 l 1
867 -217 m 1
 867 -333 l 1
 233 -333 l 1
 233 -217 l 1
 867 -217 l 1
EndSplineSet
Substitution2: "'c2sc' Capitals to Small Capitals lookup 5 subtable" Dlinebelow.sc
EndChar

StartChar: Dcaron
Encoding: 270 270 50
Width: 1389
Flags: W
LayerCount: 2
Fore
SplineSet
140 1443 m 1
 625 1443 l 2
 1053 1443 1306 1176 1306 722 c 0
 1306 267 1054 0 625 0 c 2
 140 0 l 1
 140 1443 l 1
320 1281 m 1
 320 162 l 1
 613 162 l 2
 940 162 1122 362 1122 720 c 0
 1122 1081 941 1281 613 1281 c 2
 320 1281 l 1
483 1550 m 1
 200 1848 l 1
 366 1848 l 1
 547 1656 l 1
 553 1656 l 1
 734 1848 l 1
 900 1848 l 1
 617 1550 l 1
 483 1550 l 1
EndSplineSet
Substitution2: "'c2sc' Capitals to Small Capitals lookup 5 subtable" Dcaron.sc
EndChar

StartChar: Ddotbelow
Encoding: 7692 7692 51
Width: 1389
Flags: W
LayerCount: 2
Fore
SplineSet
140 1443 m 1
 625 1443 l 2
 1053 1443 1306 1176 1306 722 c 0
 1306 267 1054 0 625 0 c 2
 140 0 l 1
 140 1443 l 1
320 1281 m 1
 320 162 l 1
 613 162 l 2
 940 162 1122 362 1122 720 c 0
 1122 1081 941 1281 613 1281 c 2
 320 1281 l 1
550 -389 m 0
 483 -389 429 -335 429 -268 c 0
 429 -201 483 -147 550 -147 c 0
 617 -147 671 -201 671 -268 c 0
 671 -335 617 -389 550 -389 c 0
EndSplineSet
Substitution2: "'c2sc' Capitals to Small Capitals lookup 5 subtable" Ddotbelow.sc
EndChar

StartChar: Dcroat
Encoding: 272 272 52
Width: 1402
Flags: W
LayerCount: 2
Fore
SplineSet
333 162 m 1
 626 162 l 2
 953 162 1135 362 1135 720 c 0
 1135 1081 954 1281 626 1281 c 2
 333 1281 l 1
 333 826 l 1
 610 826 l 1
 610 663 l 1
 333 663 l 1
 333 162 l 1
153 1443 m 1
 638 1443 l 2
 1066 1443 1319 1176 1319 722 c 0
 1319 267 1067 0 638 0 c 2
 153 0 l 1
 153 663 l 1
 24 663 l 1
 24 826 l 1
 153 826 l 1
 153 1443 l 1
EndSplineSet
Substitution2: "'c2sc' Capitals to Small Capitals lookup 5 subtable" Dcroat.sc
EndChar

StartChar: E
Encoding: 69 69 53
Width: 1131
Flags: W
LayerCount: 2
Fore
SplineSet
1034 162 m 1
 1034 0 l 1
 140 0 l 1
 140 1443 l 1
 1034 1443 l 1
 1034 1281 l 1
 320 1281 l 1
 320 818 l 1
 997 818 l 1
 997 658 l 1
 320 658 l 1
 320 162 l 1
 1034 162 l 1
EndSplineSet
Substitution2: "'c2sc' Capitals to Small Capitals lookup 5 subtable" E.sc
EndChar

StartChar: Egrave
Encoding: 200 200 54
Width: 1131
Flags: W
LayerCount: 2
Fore
SplineSet
1034 162 m 1
 1034 0 l 1
 140 0 l 1
 140 1443 l 1
 1034 1443 l 1
 1034 1281 l 1
 320 1281 l 1
 320 818 l 1
 997 818 l 1
 997 658 l 1
 320 658 l 1
 320 162 l 1
 1034 162 l 1
497 1560 m 1
 237 1849 l 1
 431 1849 l 1
 651 1560 l 1
 497 1560 l 1
EndSplineSet
Substitution2: "'c2sc' Capitals to Small Capitals lookup 5 subtable" Egrave.sc
EndChar

StartChar: Edblgrave
Encoding: 516 516 55
Width: 1131
Flags: W
LayerCount: 2
Fore
SplineSet
1034 162 m 1
 1034 0 l 1
 140 0 l 1
 140 1443 l 1
 1034 1443 l 1
 1034 1281 l 1
 320 1281 l 1
 320 818 l 1
 997 818 l 1
 997 658 l 1
 320 658 l 1
 320 162 l 1
 1034 162 l 1
657 1560 m 1
 397 1849 l 1
 591 1849 l 1
 811 1560 l 1
 657 1560 l 1
337 1560 m 1
 77 1849 l 1
 271 1849 l 1
 491 1560 l 1
 337 1560 l 1
EndSplineSet
Substitution2: "'c2sc' Capitals to Small Capitals lookup 5 subtable" Edblgrave.sc
EndChar

StartChar: Eacute
Encoding: 201 201 56
Width: 1131
Flags: W
LayerCount: 2
Fore
SplineSet
1034 162 m 1
 1034 0 l 1
 140 0 l 1
 140 1443 l 1
 1034 1443 l 1
 1034 1281 l 1
 320 1281 l 1
 320 818 l 1
 997 818 l 1
 997 658 l 1
 320 658 l 1
 320 162 l 1
 1034 162 l 1
677 1560 m 1
 523 1560 l 1
 743 1849 l 1
 937 1849 l 1
 677 1560 l 1
EndSplineSet
Substitution2: "'c2sc' Capitals to Small Capitals lookup 5 subtable" Eacute.sc
EndChar

StartChar: Ecircumflex
Encoding: 202 202 57
Width: 1131
Flags: W
LayerCount: 2
Fore
SplineSet
1034 162 m 1
 1034 0 l 1
 140 0 l 1
 140 1443 l 1
 1034 1443 l 1
 1034 1281 l 1
 320 1281 l 1
 320 818 l 1
 997 818 l 1
 997 658 l 1
 320 658 l 1
 320 162 l 1
 1034 162 l 1
520 1838 m 1
 654 1838 l 1
 937 1540 l 1
 771 1540 l 1
 590 1732 l 1
 584 1732 l 1
 403 1540 l 1
 237 1540 l 1
 520 1838 l 1
EndSplineSet
Substitution2: "'c2sc' Capitals to Small Capitals lookup 5 subtable" Ecircumflex.sc
EndChar

StartChar: Ecircumflexhookabove
Encoding: 7874 7874 58
Width: 1131
Flags: W
LayerCount: 2
Fore
SplineSet
1034 162 m 1
 1034 0 l 1
 140 0 l 1
 140 1443 l 1
 1034 1443 l 1
 1034 1281 l 1
 320 1281 l 1
 320 818 l 1
 997 818 l 1
 997 658 l 1
 320 658 l 1
 320 162 l 1
 1034 162 l 1
511 1798 m 1
 663 1798 l 1
 945 1540 l 1
 771 1540 l 1
 590 1708 l 1
 584 1708 l 1
 403 1540 l 1
 229 1540 l 1
 511 1798 l 1
711 1945 m 1
 711 2031 l 1
 740 2045 781 2053 816 2053 c 0
 916 2053 985 1995 985 1907 c 0
 985 1836 941 1772 871 1750 c 1
 794 1811 l 1
 841 1827 872 1862 872 1901 c 0
 872 1935 840 1962 797 1962 c 0
 763 1962 733 1956 711 1945 c 1
EndSplineSet
Substitution2: "'c2sc' Capitals to Small Capitals lookup 5 subtable" Ecircumflexhookabove.sc
EndChar

StartChar: Ecircumflexgrave
Encoding: 7872 7872 59
Width: 1131
Flags: W
LayerCount: 2
Fore
SplineSet
1034 162 m 1
 1034 0 l 1
 140 0 l 1
 140 1443 l 1
 1034 1443 l 1
 1034 1281 l 1
 320 1281 l 1
 320 818 l 1
 997 818 l 1
 997 658 l 1
 320 658 l 1
 320 162 l 1
 1034 162 l 1
511 1798 m 1
 663 1798 l 1
 945 1540 l 1
 771 1540 l 1
 590 1708 l 1
 584 1708 l 1
 403 1540 l 1
 229 1540 l 1
 511 1798 l 1
949 1830 m 1
 803 1830 l 1
 611 2046 l 1
 781 2046 l 1
 949 1830 l 1
EndSplineSet
Substitution2: "'c2sc' Capitals to Small Capitals lookup 5 subtable" Ecircumflexgrave.sc
EndChar

StartChar: Ecircumflextilde
Encoding: 7876 7876 60
Width: 1131
Flags: W
LayerCount: 2
Fore
SplineSet
1034 162 m 1
 1034 0 l 1
 140 0 l 1
 140 1443 l 1
 1034 1443 l 1
 1034 1281 l 1
 320 1281 l 1
 320 818 l 1
 997 818 l 1
 997 658 l 1
 320 658 l 1
 320 162 l 1
 1034 162 l 1
707 1836 m 0
 571 1836 539 1965 471 1965 c 0
 426 1965 397 1926 393 1859 c 1
 276 1859 l 1
 276 1979 348 2066 467 2066 c 0
 603 2066 635 1940 703 1940 c 0
 743 1940 776 1977 781 2043 c 1
 898 2043 l 1
 898 1926 819 1836 707 1836 c 0
511 1788 m 1
 663 1788 l 1
 945 1540 l 1
 771 1540 l 1
 590 1700 l 1
 584 1700 l 1
 403 1540 l 1
 229 1540 l 1
 511 1788 l 1
EndSplineSet
Substitution2: "'c2sc' Capitals to Small Capitals lookup 5 subtable" Ecircumflextilde.sc
EndChar

StartChar: Ecircumflexdotbelow
Encoding: 7878 7878 61
Width: 1131
Flags: W
LayerCount: 2
Fore
SplineSet
1034 162 m 1
 1034 0 l 1
 140 0 l 1
 140 1443 l 1
 1034 1443 l 1
 1034 1281 l 1
 320 1281 l 1
 320 818 l 1
 997 818 l 1
 997 658 l 1
 320 658 l 1
 320 162 l 1
 1034 162 l 1
520 1838 m 1
 654 1838 l 1
 937 1540 l 1
 771 1540 l 1
 590 1732 l 1
 584 1732 l 1
 403 1540 l 1
 237 1540 l 1
 520 1838 l 1
587 -389 m 0
 520 -389 466 -335 466 -268 c 0
 466 -201 520 -147 587 -147 c 0
 654 -147 708 -201 708 -268 c 0
 708 -335 654 -389 587 -389 c 0
EndSplineSet
Substitution2: "'c2sc' Capitals to Small Capitals lookup 5 subtable" Ecircumflexdotbelow.sc
EndChar

StartChar: Ecircumflexacute
Encoding: 7870 7870 62
Width: 1131
Flags: W
LayerCount: 2
Fore
SplineSet
1034 162 m 1
 1034 0 l 1
 140 0 l 1
 140 1443 l 1
 1034 1443 l 1
 1034 1281 l 1
 320 1281 l 1
 320 818 l 1
 997 818 l 1
 997 658 l 1
 320 658 l 1
 320 162 l 1
 1034 162 l 1
511 1798 m 1
 663 1798 l 1
 945 1540 l 1
 771 1540 l 1
 590 1708 l 1
 584 1708 l 1
 403 1540 l 1
 229 1540 l 1
 511 1798 l 1
761 1830 m 1
 929 2046 l 1
 1099 2046 l 1
 907 1830 l 1
 761 1830 l 1
EndSplineSet
Substitution2: "'c2sc' Capitals to Small Capitals lookup 5 subtable" Ecircumflexacute.sc
EndChar

StartChar: Edieresis
Encoding: 203 203 63
Width: 1131
Flags: W
LayerCount: 2
Fore
SplineSet
1034 162 m 1
 1034 0 l 1
 140 0 l 1
 140 1443 l 1
 1034 1443 l 1
 1034 1281 l 1
 320 1281 l 1
 320 818 l 1
 997 818 l 1
 997 658 l 1
 320 658 l 1
 320 162 l 1
 1034 162 l 1
401 1604 m 0
 341 1604 291 1653 291 1714 c 0
 291 1775 341 1824 401 1824 c 0
 461 1824 511 1775 511 1714 c 0
 511 1653 461 1604 401 1604 c 0
773 1604 m 0
 713 1604 663 1653 663 1714 c 0
 663 1775 713 1824 773 1824 c 0
 833 1824 883 1775 883 1714 c 0
 883 1653 833 1604 773 1604 c 0
EndSplineSet
Substitution2: "'c2sc' Capitals to Small Capitals lookup 5 subtable" Edieresis.sc
EndChar

StartChar: Edotbelow
Encoding: 7864 7864 64
Width: 1131
Flags: W
LayerCount: 2
Fore
SplineSet
1034 162 m 1
 1034 0 l 1
 140 0 l 1
 140 1443 l 1
 1034 1443 l 1
 1034 1281 l 1
 320 1281 l 1
 320 818 l 1
 997 818 l 1
 997 658 l 1
 320 658 l 1
 320 162 l 1
 1034 162 l 1
587 -389 m 0
 520 -389 466 -335 466 -268 c 0
 466 -201 520 -147 587 -147 c 0
 654 -147 708 -201 708 -268 c 0
 708 -335 654 -389 587 -389 c 0
EndSplineSet
Substitution2: "'c2sc' Capitals to Small Capitals lookup 5 subtable" Edotbelow.sc
EndChar

StartChar: Einvertedbreve
Encoding: 518 518 65
Width: 1131
Flags: W
LayerCount: 2
Fore
SplineSet
1034 162 m 1
 1034 0 l 1
 140 0 l 1
 140 1443 l 1
 1034 1443 l 1
 1034 1281 l 1
 320 1281 l 1
 320 818 l 1
 997 818 l 1
 997 658 l 1
 320 658 l 1
 320 162 l 1
 1034 162 l 1
266 1542 m 1
 279 1706 395 1848 587 1848 c 0
 779 1848 895 1706 908 1542 c 1
 781 1542 l 1
 769 1663 692 1736 587 1736 c 0
 482 1736 405 1663 393 1542 c 1
 266 1542 l 1
EndSplineSet
Substitution2: "'c2sc' Capitals to Small Capitals lookup 5 subtable" Einvertedbreve.sc
EndChar

StartChar: Ehookabove
Encoding: 7866 7866 66
Width: 1131
Flags: W
LayerCount: 2
Fore
SplineSet
1034 162 m 1
 1034 0 l 1
 140 0 l 1
 140 1443 l 1
 1034 1443 l 1
 1034 1281 l 1
 320 1281 l 1
 320 818 l 1
 997 818 l 1
 997 658 l 1
 320 658 l 1
 320 162 l 1
 1034 162 l 1
427 1753 m 1
 427 1849 l 1
 461 1864 505 1871 548 1871 c 0
 662 1871 743 1809 743 1711 c 0
 743 1630 679 1559 584 1527 c 1
 524 1605 l 1
 578 1622 614 1661 614 1704 c 0
 614 1742 577 1772 527 1772 c 0
 494 1772 456 1766 427 1753 c 1
EndSplineSet
Substitution2: "'c2sc' Capitals to Small Capitals lookup 5 subtable" Ehookabove.sc
EndChar

StartChar: Ecaron
Encoding: 282 282 67
Width: 1131
Flags: W
LayerCount: 2
Fore
SplineSet
1034 162 m 1
 1034 0 l 1
 140 0 l 1
 140 1443 l 1
 1034 1443 l 1
 1034 1281 l 1
 320 1281 l 1
 320 818 l 1
 997 818 l 1
 997 658 l 1
 320 658 l 1
 320 162 l 1
 1034 162 l 1
520 1550 m 1
 237 1848 l 1
 403 1848 l 1
 584 1656 l 1
 590 1656 l 1
 771 1848 l 1
 937 1848 l 1
 654 1550 l 1
 520 1550 l 1
EndSplineSet
Substitution2: "'c2sc' Capitals to Small Capitals lookup 5 subtable" Ecaron.sc
EndChar

StartChar: Emacron
Encoding: 274 274 68
Width: 1131
Flags: W
LayerCount: 2
Fore
SplineSet
1034 162 m 1
 1034 0 l 1
 140 0 l 1
 140 1443 l 1
 1034 1443 l 1
 1034 1281 l 1
 320 1281 l 1
 320 818 l 1
 997 818 l 1
 997 658 l 1
 320 658 l 1
 320 162 l 1
 1034 162 l 1
904 1750 m 1
 904 1634 l 1
 270 1634 l 1
 270 1750 l 1
 904 1750 l 1
EndSplineSet
Substitution2: "'c2sc' Capitals to Small Capitals lookup 5 subtable" Emacron.sc
EndChar

StartChar: Emacrongrave
Encoding: 7700 7700 69
Width: 1131
Flags: W
LayerCount: 2
Fore
SplineSet
1034 162 m 1
 1034 0 l 1
 140 0 l 1
 140 1443 l 1
 1034 1443 l 1
 1034 1281 l 1
 320 1281 l 1
 320 818 l 1
 997 818 l 1
 997 658 l 1
 320 658 l 1
 320 162 l 1
 1034 162 l 1
270 1592 m 1
 270 1708 l 1
 904 1708 l 1
 904 1592 l 1
 270 1592 l 1
659 1830 m 1
 513 1830 l 1
 321 2046 l 1
 491 2046 l 1
 659 1830 l 1
EndSplineSet
Substitution2: "'c2sc' Capitals to Small Capitals lookup 5 subtable" Emacrongrave.sc
EndChar

StartChar: Emacronacute
Encoding: 7702 7702 70
Width: 1131
Flags: W
LayerCount: 2
Fore
SplineSet
1034 162 m 1
 1034 0 l 1
 140 0 l 1
 140 1443 l 1
 1034 1443 l 1
 1034 1281 l 1
 320 1281 l 1
 320 818 l 1
 997 818 l 1
 997 658 l 1
 320 658 l 1
 320 162 l 1
 1034 162 l 1
904 1592 m 1
 270 1592 l 1
 270 1708 l 1
 904 1708 l 1
 904 1592 l 1
521 1830 m 1
 689 2046 l 1
 859 2046 l 1
 667 1830 l 1
 521 1830 l 1
EndSplineSet
Substitution2: "'c2sc' Capitals to Small Capitals lookup 5 subtable" Emacronacute.sc
EndChar

StartChar: Etilde
Encoding: 7868 7868 71
Width: 1131
Flags: W
LayerCount: 2
Fore
SplineSet
1034 162 m 1
 1034 0 l 1
 140 0 l 1
 140 1443 l 1
 1034 1443 l 1
 1034 1281 l 1
 320 1281 l 1
 320 818 l 1
 997 818 l 1
 997 658 l 1
 320 658 l 1
 320 162 l 1
 1034 162 l 1
718 1580 m 0
 586 1580 536 1732 457 1732 c 0
 411 1732 382 1683 386 1590 c 1
 268 1590 l 1
 268 1754 344 1845 458 1845 c 0
 599 1845 644 1693 719 1693 c 0
 761 1693 788 1740 788 1836 c 1
 906 1836 l 1
 906 1676 827 1580 718 1580 c 0
EndSplineSet
Substitution2: "'c2sc' Capitals to Small Capitals lookup 5 subtable" Etilde.sc
EndChar

StartChar: Ecircumflexbelow
Encoding: 7704 7704 72
Width: 1131
Flags: W
LayerCount: 2
Fore
SplineSet
1034 162 m 1
 1034 0 l 1
 140 0 l 1
 140 1443 l 1
 1034 1443 l 1
 1034 1281 l 1
 320 1281 l 1
 320 818 l 1
 997 818 l 1
 997 658 l 1
 320 658 l 1
 320 162 l 1
 1034 162 l 1
520 -127 m 1
 654 -127 l 1
 937 -425 l 1
 771 -425 l 1
 590 -233 l 1
 584 -233 l 1
 403 -425 l 1
 237 -425 l 1
 520 -127 l 1
EndSplineSet
Substitution2: "'c2sc' Capitals to Small Capitals lookup 5 subtable" Ecircumflexbelow.sc
EndChar

StartChar: Ebreve
Encoding: 276 276 73
Width: 1131
Flags: W
LayerCount: 2
Fore
SplineSet
1034 162 m 1
 1034 0 l 1
 140 0 l 1
 140 1443 l 1
 1034 1443 l 1
 1034 1281 l 1
 320 1281 l 1
 320 818 l 1
 997 818 l 1
 997 658 l 1
 320 658 l 1
 320 162 l 1
 1034 162 l 1
266 1848 m 1
 393 1848 l 1
 405 1727 482 1654 587 1654 c 0
 692 1654 769 1727 781 1848 c 1
 908 1848 l 1
 895 1684 779 1542 587 1542 c 0
 395 1542 279 1684 266 1848 c 1
EndSplineSet
Substitution2: "'c2sc' Capitals to Small Capitals lookup 5 subtable" Ebreve.sc
EndChar

StartChar: Etildebelow
Encoding: 7706 7706 74
Width: 1131
Flags: W
LayerCount: 2
Fore
SplineSet
1034 162 m 1
 1034 0 l 1
 140 0 l 1
 140 1443 l 1
 1034 1443 l 1
 1034 1281 l 1
 320 1281 l 1
 320 818 l 1
 997 818 l 1
 997 658 l 1
 320 658 l 1
 320 162 l 1
 1034 162 l 1
718 -344 m 0
 586 -344 536 -192 457 -192 c 0
 411 -192 382 -241 386 -334 c 1
 268 -334 l 1
 268 -170 344 -79 458 -79 c 0
 599 -79 644 -231 719 -231 c 0
 761 -231 788 -184 788 -88 c 1
 906 -88 l 1
 906 -248 827 -344 718 -344 c 0
EndSplineSet
Substitution2: "'c2sc' Capitals to Small Capitals lookup 5 subtable" Etildebelow.sc
EndChar

StartChar: Edotaccent
Encoding: 278 278 75
Width: 1131
Flags: W
LayerCount: 2
Fore
SplineSet
1034 162 m 1
 1034 0 l 1
 140 0 l 1
 140 1443 l 1
 1034 1443 l 1
 1034 1281 l 1
 320 1281 l 1
 320 818 l 1
 997 818 l 1
 997 658 l 1
 320 658 l 1
 320 162 l 1
 1034 162 l 1
587 1585 m 0
 520 1585 466 1639 466 1706 c 0
 466 1773 520 1827 587 1827 c 0
 654 1827 708 1773 708 1706 c 0
 708 1639 654 1585 587 1585 c 0
EndSplineSet
Substitution2: "'c2sc' Capitals to Small Capitals lookup 5 subtable" Edotaccent.sc
EndChar

StartChar: Ecedilla
Encoding: 552 552 76
Width: 1131
Flags: W
LayerCount: 2
Fore
SplineSet
1034 1281 m 1
 320 1281 l 1
 320 818 l 1
 997 818 l 1
 997 658 l 1
 320 658 l 1
 320 162 l 1
 1034 162 l 1
 1034 0 l 1
 667 0 l 1
 611 -130 l 1
 741 -132 825 -188 825 -290 c 0
 825 -404 721 -466 591 -468 c 0
 533 -469 467 -462 441 -454 c 1
 441 -352 l 1
 463 -357 524 -364 566 -364 c 0
 649 -364 693 -338 693 -292 c 0
 693 -246 649 -228 547 -228 c 2
 477 -228 l 1
 477 -159 l 1
 540 0 l 1
 140 0 l 1
 140 1443 l 1
 1034 1443 l 1
 1034 1281 l 1
EndSplineSet
Substitution2: "'c2sc' Capitals to Small Capitals lookup 5 subtable" Ecedilla.sc
EndChar

StartChar: Ecedillabreve
Encoding: 7708 7708 77
Width: 1131
Flags: W
LayerCount: 2
Fore
SplineSet
781 1848 m 1
 908 1848 l 1
 895 1684 779 1542 587 1542 c 0
 395 1542 279 1684 266 1848 c 1
 393 1848 l 1
 405 1727 482 1654 587 1654 c 0
 692 1654 769 1727 781 1848 c 1
1034 1281 m 1
 320 1281 l 1
 320 818 l 1
 997 818 l 1
 997 658 l 1
 320 658 l 1
 320 162 l 1
 1034 162 l 1
 1034 0 l 1
 667 0 l 1
 611 -130 l 1
 741 -132 825 -188 825 -290 c 0
 825 -404 721 -466 591 -468 c 0
 533 -469 467 -462 441 -454 c 1
 441 -352 l 1
 463 -357 524 -364 566 -364 c 0
 649 -364 693 -338 693 -292 c 0
 693 -246 649 -228 547 -228 c 2
 477 -228 l 1
 477 -159 l 1
 540 0 l 1
 140 0 l 1
 140 1443 l 1
 1034 1443 l 1
 1034 1281 l 1
EndSplineSet
Substitution2: "'c2sc' Capitals to Small Capitals lookup 5 subtable" Ecedillabreve.sc
EndChar

StartChar: Eogonek
Encoding: 280 280 78
Width: 1131
Flags: W
LayerCount: 2
Fore
SplineSet
140 0 m 1
 140 1443 l 1
 1034 1443 l 1
 1034 1281 l 1
 320 1281 l 1
 320 818 l 1
 997 818 l 1
 997 658 l 1
 320 658 l 1
 320 162 l 1
 1034 162 l 1
 1034 14 l 1
 1014 6 l 2
 870 -52 792 -134 792 -204 c 0
 792 -269 846 -301 911 -301 c 0
 939 -301 968 -297 992 -292 c 1
 992 -413 l 1
 974 -422 929 -430 874 -430 c 0
 744 -430 646 -355 646 -242 c 0
 646 -154 696 -76 790 -4 c 1
 790 0 l 1
 140 0 l 1
EndSplineSet
Substitution2: "'c2sc' Capitals to Small Capitals lookup 5 subtable" Eogonek.sc
EndChar

StartChar: F
Encoding: 70 70 79
Width: 1081
Flags: W
LayerCount: 2
Fore
SplineSet
320 0 m 1
 140 0 l 1
 140 1443 l 1
 1016 1443 l 1
 1016 1281 l 1
 320 1281 l 1
 320 785 l 1
 959 785 l 1
 959 625 l 1
 320 625 l 1
 320 0 l 1
EndSplineSet
Substitution2: "'c2sc' Capitals to Small Capitals lookup 5 subtable" F.sc
EndChar

StartChar: Fdotaccent
Encoding: 7710 7710 80
Width: 1081
Flags: W
LayerCount: 2
Fore
SplineSet
320 0 m 1
 140 0 l 1
 140 1443 l 1
 1016 1443 l 1
 1016 1281 l 1
 320 1281 l 1
 320 785 l 1
 959 785 l 1
 959 625 l 1
 320 625 l 1
 320 0 l 1
578 1585 m 0
 511 1585 457 1639 457 1706 c 0
 457 1773 511 1827 578 1827 c 0
 645 1827 699 1773 699 1706 c 0
 699 1639 645 1585 578 1585 c 0
EndSplineSet
Substitution2: "'c2sc' Capitals to Small Capitals lookup 5 subtable" Fdotaccent.sc
EndChar

StartChar: G
Encoding: 71 71 81
Width: 1447
Flags: W
LayerCount: 2
Fore
SplineSet
1357 597 m 2
 1357 207 1130 -24 745 -24 c 0
 342 -24 84 270 84 729 c 0
 84 1180 341 1467 745 1467 c 0
 1057 1467 1294 1282 1348 995 c 1
 1159 995 l 1
 1099 1190 948 1301 745 1301 c 0
 448 1301 269 1087 269 730 c 0
 269 367 451 142 745 142 c 0
 1001 142 1177 308 1177 550 c 2
 1177 576 l 1
 770 576 l 1
 770 734 l 1
 1357 734 l 1
 1357 597 l 2
EndSplineSet
Substitution2: "'c2sc' Capitals to Small Capitals lookup 5 subtable" G.sc
EndChar

StartChar: Gacute
Encoding: 500 500 82
Width: 1447
Flags: W
LayerCount: 2
Fore
SplineSet
1357 597 m 2
 1357 207 1130 -24 745 -24 c 0
 342 -24 84 270 84 729 c 0
 84 1180 341 1467 745 1467 c 0
 1057 1467 1294 1282 1348 995 c 1
 1159 995 l 1
 1099 1190 948 1301 745 1301 c 0
 448 1301 269 1087 269 730 c 0
 269 367 451 142 745 142 c 0
 1001 142 1177 308 1177 550 c 2
 1177 576 l 1
 770 576 l 1
 770 734 l 1
 1357 734 l 1
 1357 597 l 2
835 1560 m 1
 681 1560 l 1
 901 1849 l 1
 1095 1849 l 1
 835 1560 l 1
EndSplineSet
Substitution2: "'c2sc' Capitals to Small Capitals lookup 5 subtable" Gacute.sc
EndChar

StartChar: Gcaron
Encoding: 486 486 83
Width: 1447
Flags: W
LayerCount: 2
Fore
SplineSet
1357 597 m 2
 1357 207 1130 -24 745 -24 c 0
 342 -24 84 270 84 729 c 0
 84 1180 341 1467 745 1467 c 0
 1057 1467 1294 1282 1348 995 c 1
 1159 995 l 1
 1099 1190 948 1301 745 1301 c 0
 448 1301 269 1087 269 730 c 0
 269 367 451 142 745 142 c 0
 1001 142 1177 308 1177 550 c 2
 1177 576 l 1
 770 576 l 1
 770 734 l 1
 1357 734 l 1
 1357 597 l 2
678 1550 m 1
 395 1848 l 1
 561 1848 l 1
 742 1656 l 1
 748 1656 l 1
 929 1848 l 1
 1095 1848 l 1
 812 1550 l 1
 678 1550 l 1
EndSplineSet
Substitution2: "'c2sc' Capitals to Small Capitals lookup 5 subtable" Gcaron.sc
EndChar

StartChar: Gcircumflex
Encoding: 284 284 84
Width: 1447
Flags: W
LayerCount: 2
Fore
SplineSet
1357 597 m 2
 1357 207 1130 -24 745 -24 c 0
 342 -24 84 270 84 729 c 0
 84 1180 341 1467 745 1467 c 0
 1057 1467 1294 1282 1348 995 c 1
 1159 995 l 1
 1099 1190 948 1301 745 1301 c 0
 448 1301 269 1087 269 730 c 0
 269 367 451 142 745 142 c 0
 1001 142 1177 308 1177 550 c 2
 1177 576 l 1
 770 576 l 1
 770 734 l 1
 1357 734 l 1
 1357 597 l 2
678 1838 m 1
 812 1838 l 1
 1095 1540 l 1
 929 1540 l 1
 748 1732 l 1
 742 1732 l 1
 561 1540 l 1
 395 1540 l 1
 678 1838 l 1
EndSplineSet
Substitution2: "'c2sc' Capitals to Small Capitals lookup 5 subtable" Gcircumflex.sc
EndChar

StartChar: Gbreve
Encoding: 286 286 85
Width: 1447
Flags: W
LayerCount: 2
Fore
SplineSet
1357 597 m 2
 1357 207 1130 -24 745 -24 c 0
 342 -24 84 270 84 729 c 0
 84 1180 341 1467 745 1467 c 0
 1057 1467 1294 1282 1348 995 c 1
 1159 995 l 1
 1099 1190 948 1301 745 1301 c 0
 448 1301 269 1087 269 730 c 0
 269 367 451 142 745 142 c 0
 1001 142 1177 308 1177 550 c 2
 1177 576 l 1
 770 576 l 1
 770 734 l 1
 1357 734 l 1
 1357 597 l 2
424 1848 m 1
 551 1848 l 1
 563 1727 640 1654 745 1654 c 0
 850 1654 927 1727 939 1848 c 1
 1066 1848 l 1
 1053 1684 937 1542 745 1542 c 0
 553 1542 437 1684 424 1848 c 1
EndSplineSet
Substitution2: "'c2sc' Capitals to Small Capitals lookup 5 subtable" Gbreve.sc
EndChar

StartChar: Gmacron
Encoding: 7712 7712 86
Width: 1447
Flags: W
LayerCount: 2
Fore
SplineSet
1357 597 m 2
 1357 207 1130 -24 745 -24 c 0
 342 -24 84 270 84 729 c 0
 84 1180 341 1467 745 1467 c 0
 1057 1467 1294 1282 1348 995 c 1
 1159 995 l 1
 1099 1190 948 1301 745 1301 c 0
 448 1301 269 1087 269 730 c 0
 269 367 451 142 745 142 c 0
 1001 142 1177 308 1177 550 c 2
 1177 576 l 1
 770 576 l 1
 770 734 l 1
 1357 734 l 1
 1357 597 l 2
1062 1750 m 1
 1062 1634 l 1
 428 1634 l 1
 428 1750 l 1
 1062 1750 l 1
EndSplineSet
Substitution2: "'c2sc' Capitals to Small Capitals lookup 5 subtable" Gmacron.sc
EndChar

StartChar: Gdotaccent
Encoding: 288 288 87
Width: 1447
Flags: W
LayerCount: 2
Fore
SplineSet
1357 597 m 2
 1357 207 1130 -24 745 -24 c 0
 342 -24 84 270 84 729 c 0
 84 1180 341 1467 745 1467 c 0
 1057 1467 1294 1282 1348 995 c 1
 1159 995 l 1
 1099 1190 948 1301 745 1301 c 0
 448 1301 269 1087 269 730 c 0
 269 367 451 142 745 142 c 0
 1001 142 1177 308 1177 550 c 2
 1177 576 l 1
 770 576 l 1
 770 734 l 1
 1357 734 l 1
 1357 597 l 2
745 1585 m 0
 678 1585 624 1639 624 1706 c 0
 624 1773 678 1827 745 1827 c 0
 812 1827 866 1773 866 1706 c 0
 866 1639 812 1585 745 1585 c 0
EndSplineSet
Substitution2: "'c2sc' Capitals to Small Capitals lookup 5 subtable" Gdotaccent.sc
EndChar

StartChar: Gcommaaccent
Encoding: 290 290 88
Width: 1447
Flags: W
LayerCount: 2
Fore
SplineSet
1357 597 m 2
 1357 207 1130 -24 745 -24 c 0
 342 -24 84 270 84 729 c 0
 84 1180 341 1467 745 1467 c 0
 1057 1467 1294 1282 1348 995 c 1
 1159 995 l 1
 1099 1190 948 1301 745 1301 c 0
 448 1301 269 1087 269 730 c 0
 269 367 451 142 745 142 c 0
 1001 142 1177 308 1177 550 c 2
 1177 576 l 1
 770 576 l 1
 770 734 l 1
 1357 734 l 1
 1357 597 l 2
717 -486 m 1
 591 -486 l 1
 699 -127 l 1
 851 -127 l 1
 717 -486 l 1
EndSplineSet
Substitution2: "'c2sc' Capitals to Small Capitals lookup 5 subtable" Gcommaaccent.sc
EndChar

StartChar: H
Encoding: 72 72 89
Width: 1432
Flags: W
LayerCount: 2
Fore
SplineSet
1292 0 m 1
 1112 0 l 1
 1112 657 l 1
 320 657 l 1
 320 0 l 1
 140 0 l 1
 140 1443 l 1
 320 1443 l 1
 320 819 l 1
 1112 819 l 1
 1112 1443 l 1
 1292 1443 l 1
 1292 0 l 1
EndSplineSet
Substitution2: "'c2sc' Capitals to Small Capitals lookup 5 subtable" H.sc
EndChar

StartChar: Hdieresis
Encoding: 7718 7718 90
Width: 1432
Flags: W
LayerCount: 2
Fore
SplineSet
1292 0 m 1
 1112 0 l 1
 1112 657 l 1
 320 657 l 1
 320 0 l 1
 140 0 l 1
 140 1443 l 1
 320 1443 l 1
 320 819 l 1
 1112 819 l 1
 1112 1443 l 1
 1292 1443 l 1
 1292 0 l 1
530 1604 m 0
 470 1604 420 1653 420 1714 c 0
 420 1775 470 1824 530 1824 c 0
 590 1824 640 1775 640 1714 c 0
 640 1653 590 1604 530 1604 c 0
902 1604 m 0
 842 1604 792 1653 792 1714 c 0
 792 1775 842 1824 902 1824 c 0
 962 1824 1012 1775 1012 1714 c 0
 1012 1653 962 1604 902 1604 c 0
EndSplineSet
Substitution2: "'c2sc' Capitals to Small Capitals lookup 5 subtable" Hdieresis.sc
EndChar

StartChar: Hcaron
Encoding: 542 542 91
Width: 1432
Flags: W
LayerCount: 2
Fore
SplineSet
1292 0 m 1
 1112 0 l 1
 1112 657 l 1
 320 657 l 1
 320 0 l 1
 140 0 l 1
 140 1443 l 1
 320 1443 l 1
 320 819 l 1
 1112 819 l 1
 1112 1443 l 1
 1292 1443 l 1
 1292 0 l 1
649 1550 m 1
 366 1848 l 1
 532 1848 l 1
 713 1656 l 1
 719 1656 l 1
 900 1848 l 1
 1066 1848 l 1
 783 1550 l 1
 649 1550 l 1
EndSplineSet
Substitution2: "'c2sc' Capitals to Small Capitals lookup 5 subtable" Hcaron.sc
EndChar

StartChar: Hcircumflex
Encoding: 292 292 92
Width: 1432
Flags: W
LayerCount: 2
Fore
SplineSet
1292 0 m 1
 1112 0 l 1
 1112 657 l 1
 320 657 l 1
 320 0 l 1
 140 0 l 1
 140 1443 l 1
 320 1443 l 1
 320 819 l 1
 1112 819 l 1
 1112 1443 l 1
 1292 1443 l 1
 1292 0 l 1
649 1838 m 1
 783 1838 l 1
 1066 1540 l 1
 900 1540 l 1
 719 1732 l 1
 713 1732 l 1
 532 1540 l 1
 366 1540 l 1
 649 1838 l 1
EndSplineSet
Substitution2: "'c2sc' Capitals to Small Capitals lookup 5 subtable" Hcircumflex.sc
EndChar

StartChar: Hdotbelow
Encoding: 7716 7716 93
Width: 1432
Flags: W
LayerCount: 2
Fore
SplineSet
1292 0 m 1
 1112 0 l 1
 1112 657 l 1
 320 657 l 1
 320 0 l 1
 140 0 l 1
 140 1443 l 1
 320 1443 l 1
 320 819 l 1
 1112 819 l 1
 1112 1443 l 1
 1292 1443 l 1
 1292 0 l 1
716 -389 m 0
 649 -389 595 -335 595 -268 c 0
 595 -201 649 -147 716 -147 c 0
 783 -147 837 -201 837 -268 c 0
 837 -335 783 -389 716 -389 c 0
EndSplineSet
Substitution2: "'c2sc' Capitals to Small Capitals lookup 5 subtable" Hdotbelow.sc
EndChar

StartChar: Hdotaccent
Encoding: 7714 7714 94
Width: 1432
Flags: W
LayerCount: 2
Fore
SplineSet
1292 0 m 1
 1112 0 l 1
 1112 657 l 1
 320 657 l 1
 320 0 l 1
 140 0 l 1
 140 1443 l 1
 320 1443 l 1
 320 819 l 1
 1112 819 l 1
 1112 1443 l 1
 1292 1443 l 1
 1292 0 l 1
716 1585 m 0
 649 1585 595 1639 595 1706 c 0
 595 1773 649 1827 716 1827 c 0
 783 1827 837 1773 837 1706 c 0
 837 1639 783 1585 716 1585 c 0
EndSplineSet
Substitution2: "'c2sc' Capitals to Small Capitals lookup 5 subtable" Hdotaccent.sc
EndChar

StartChar: Hbrevebelow
Encoding: 7722 7722 95
Width: 1432
Flags: W
LayerCount: 2
Fore
SplineSet
1292 0 m 1
 1112 0 l 1
 1112 657 l 1
 320 657 l 1
 320 0 l 1
 140 0 l 1
 140 1443 l 1
 320 1443 l 1
 320 819 l 1
 1112 819 l 1
 1112 1443 l 1
 1292 1443 l 1
 1292 0 l 1
395 -100 m 1
 522 -100 l 1
 534 -221 611 -294 716 -294 c 0
 821 -294 898 -221 910 -100 c 1
 1037 -100 l 1
 1024 -264 908 -406 716 -406 c 0
 524 -406 408 -264 395 -100 c 1
EndSplineSet
Substitution2: "'c2sc' Capitals to Small Capitals lookup 5 subtable" Hbrevebelow.sc
EndChar

StartChar: Hcedilla
Encoding: 7720 7720 96
Width: 1432
Flags: W
LayerCount: 2
Fore
SplineSet
1112 1443 m 1
 1292 1443 l 1
 1292 0 l 1
 1112 0 l 1
 1112 657 l 1
 320 657 l 1
 320 8 l 1
 320 0 l 1
 264 -130 l 1
 394 -132 478 -188 478 -290 c 0
 478 -404 374 -466 244 -468 c 0
 186 -469 120 -462 94 -454 c 1
 94 -352 l 1
 116 -357 177 -364 219 -364 c 0
 302 -364 346 -338 346 -292 c 0
 346 -246 302 -228 200 -228 c 2
 130 -228 l 1
 130 -159 l 1
 193 0 l 1
 140 0 l 1
 140 1443 l 1
 320 1443 l 1
 320 819 l 1
 1112 819 l 1
 1112 1443 l 1
EndSplineSet
Substitution2: "'c2sc' Capitals to Small Capitals lookup 5 subtable" Hcedilla.sc
EndChar

StartChar: Hbar
Encoding: 294 294 97
Width: 1432
Flags: W
LayerCount: 2
Fore
SplineSet
1112 819 m 1
 1112 1075 l 1
 320 1075 l 1
 320 819 l 1
 1112 819 l 1
1427 1218 m 1
 1427 1075 l 1
 1292 1075 l 1
 1292 0 l 1
 1112 0 l 1
 1112 657 l 1
 320 657 l 1
 320 0 l 1
 140 0 l 1
 140 1075 l 1
 5 1075 l 1
 5 1218 l 1
 140 1218 l 1
 140 1443 l 1
 320 1443 l 1
 320 1218 l 1
 1112 1218 l 1
 1112 1443 l 1
 1292 1443 l 1
 1292 1218 l 1
 1427 1218 l 1
EndSplineSet
Substitution2: "'c2sc' Capitals to Small Capitals lookup 5 subtable" Hbar.sc
EndChar

StartChar: I
Encoding: 73 73 98
Width: 460
Flags: HW
HStem: 0 21G<140 320> 1423 20G<140 320> 1618 216<143.646 317.287>
VStem: 122 217<1639.65 1812.65> 140 180<0 1443>
LayerCount: 2
Fore
SplineSet
320 0 m 1xe8
 140 0 l 1
 140 1443 l 1
 320 1443 l 1
 320 0 l 1xe8
EndSplineSet
Substitution2: "'cv05' Character Variants 05 lookup 25 subtable" I.1
Substitution2: "'ss06' Style Set 6 lookup 19 subtable" I.1
Substitution2: "'c2sc' Capitals to Small Capitals lookup 5 subtable" I.sc
EndChar

StartChar: Idotaccent
Encoding: 304 304 99
Width: 460
Flags: W
LayerCount: 2
Fore
SplineSet
320 0 m 1
 140 0 l 1
 140 1443 l 1
 320 1443 l 1
 320 0 l 1
230 1585 m 0
 163 1585 109 1639 109 1706 c 0
 109 1773 163 1827 230 1827 c 0
 297 1827 351 1773 351 1706 c 0
 351 1639 297 1585 230 1585 c 0
EndSplineSet
Substitution2: "'cv05' Character Variants 05 lookup 25 subtable" Idotaccent.1
Substitution2: "'ss06' Style Set 6 lookup 19 subtable" Idotaccent.1
Substitution2: "'c2sc' Capitals to Small Capitals lookup 5 subtable" Idotaccent.sc
EndChar

StartChar: Igrave
Encoding: 204 204 100
Width: 460
Flags: W
LayerCount: 2
Fore
SplineSet
320 0 m 1
 140 0 l 1
 140 1443 l 1
 320 1443 l 1
 320 0 l 1
140 1560 m 1
 -120 1849 l 1
 74 1849 l 1
 294 1560 l 1
 140 1560 l 1
EndSplineSet
Substitution2: "'cv05' Character Variants 05 lookup 25 subtable" Igrave.1
Substitution2: "'ss06' Style Set 6 lookup 19 subtable" Igrave.1
Substitution2: "'c2sc' Capitals to Small Capitals lookup 5 subtable" Igrave.sc
EndChar

StartChar: Idblgrave
Encoding: 520 520 101
Width: 460
Flags: W
LayerCount: 2
Fore
SplineSet
320 0 m 1
 140 0 l 1
 140 1443 l 1
 320 1443 l 1
 320 0 l 1
300 1560 m 1
 40 1849 l 1
 234 1849 l 1
 454 1560 l 1
 300 1560 l 1
-20 1560 m 1
 -280 1849 l 1
 -86 1849 l 1
 134 1560 l 1
 -20 1560 l 1
EndSplineSet
Substitution2: "'cv05' Character Variants 05 lookup 25 subtable" Idblgrave.1
Substitution2: "'ss06' Style Set 6 lookup 19 subtable" Idblgrave.1
Substitution2: "'c2sc' Capitals to Small Capitals lookup 5 subtable" Idblgrave.sc
EndChar

StartChar: Iacute
Encoding: 205 205 102
Width: 460
Flags: W
LayerCount: 2
Fore
SplineSet
320 0 m 1
 140 0 l 1
 140 1443 l 1
 320 1443 l 1
 320 0 l 1
320 1560 m 1
 166 1560 l 1
 386 1849 l 1
 580 1849 l 1
 320 1560 l 1
EndSplineSet
Substitution2: "'cv05' Character Variants 05 lookup 25 subtable" Iacute.1
Substitution2: "'ss06' Style Set 6 lookup 19 subtable" Iacute.1
Substitution2: "'c2sc' Capitals to Small Capitals lookup 5 subtable" Iacute.sc
EndChar

StartChar: Icircumflex
Encoding: 206 206 103
Width: 460
Flags: W
LayerCount: 2
Fore
SplineSet
320 0 m 1
 140 0 l 1
 140 1443 l 1
 320 1443 l 1
 320 0 l 1
163 1838 m 1
 297 1838 l 1
 580 1540 l 1
 414 1540 l 1
 233 1732 l 1
 227 1732 l 1
 46 1540 l 1
 -120 1540 l 1
 163 1838 l 1
EndSplineSet
Substitution2: "'cv05' Character Variants 05 lookup 25 subtable" Icircumflex.1
Substitution2: "'ss06' Style Set 6 lookup 19 subtable" Icircumflex.1
Substitution2: "'c2sc' Capitals to Small Capitals lookup 5 subtable" Icircumflex.sc
EndChar

StartChar: Icaron
Encoding: 463 463 104
Width: 460
Flags: W
LayerCount: 2
Fore
SplineSet
320 0 m 1
 140 0 l 1
 140 1443 l 1
 320 1443 l 1
 320 0 l 1
163 1550 m 1
 -120 1848 l 1
 46 1848 l 1
 227 1656 l 1
 233 1656 l 1
 414 1848 l 1
 580 1848 l 1
 297 1550 l 1
 163 1550 l 1
EndSplineSet
Substitution2: "'cv05' Character Variants 05 lookup 25 subtable" Icaron.1
Substitution2: "'ss06' Style Set 6 lookup 19 subtable" Icaron.1
Substitution2: "'c2sc' Capitals to Small Capitals lookup 5 subtable" Icaron.sc
EndChar

StartChar: Idieresis
Encoding: 207 207 105
Width: 460
Flags: W
LayerCount: 2
Fore
SplineSet
320 0 m 1
 140 0 l 1
 140 1443 l 1
 320 1443 l 1
 320 0 l 1
44 1604 m 0
 -16 1604 -66 1653 -66 1714 c 0
 -66 1775 -16 1824 44 1824 c 0
 104 1824 154 1775 154 1714 c 0
 154 1653 104 1604 44 1604 c 0
416 1604 m 0
 356 1604 306 1653 306 1714 c 0
 306 1775 356 1824 416 1824 c 0
 476 1824 526 1775 526 1714 c 0
 526 1653 476 1604 416 1604 c 0
EndSplineSet
Substitution2: "'cv05' Character Variants 05 lookup 25 subtable" Idieresis.1
Substitution2: "'ss06' Style Set 6 lookup 19 subtable" Idieresis.1
Substitution2: "'c2sc' Capitals to Small Capitals lookup 5 subtable" Idieresis.sc
EndChar

StartChar: Idieresisacute
Encoding: 7726 7726 106
Width: 460
Flags: W
LayerCount: 2
Fore
SplineSet
320 0 m 1
 140 0 l 1
 140 1443 l 1
 320 1443 l 1
 320 0 l 1
148 1830 m 1
 316 2046 l 1
 486 2046 l 1
 294 1830 l 1
 148 1830 l 1
53 1554 m 0
 -5 1554 -52 1601 -52 1660 c 0
 -52 1719 -5 1766 53 1766 c 0
 110 1766 157 1719 157 1660 c 0
 157 1601 110 1554 53 1554 c 0
407 1554 m 0
 350 1554 303 1601 303 1660 c 0
 303 1719 350 1766 407 1766 c 0
 465 1766 512 1719 512 1660 c 0
 512 1601 465 1554 407 1554 c 0
EndSplineSet
Substitution2: "'cv05' Character Variants 05 lookup 25 subtable" Idieresisacute.1
Substitution2: "'ss06' Style Set 6 lookup 19 subtable" Idieresisacute.1
Substitution2: "'c2sc' Capitals to Small Capitals lookup 5 subtable" Idieresisacute.sc
EndChar

StartChar: Ibreve
Encoding: 300 300 107
Width: 460
Flags: W
LayerCount: 2
Fore
SplineSet
320 0 m 1
 140 0 l 1
 140 1443 l 1
 320 1443 l 1
 320 0 l 1
-91 1848 m 1
 36 1848 l 1
 48 1727 125 1654 230 1654 c 0
 335 1654 412 1727 424 1848 c 1
 551 1848 l 1
 538 1684 422 1542 230 1542 c 0
 38 1542 -78 1684 -91 1848 c 1
EndSplineSet
Substitution2: "'cv05' Character Variants 05 lookup 25 subtable" Ibreve.1
Substitution2: "'ss06' Style Set 6 lookup 19 subtable" Ibreve.1
Substitution2: "'c2sc' Capitals to Small Capitals lookup 5 subtable" Ibreve.sc
EndChar

StartChar: Idotbelow
Encoding: 7882 7882 108
Width: 460
Flags: W
LayerCount: 2
Fore
SplineSet
320 0 m 1
 140 0 l 1
 140 1443 l 1
 320 1443 l 1
 320 0 l 1
230 -389 m 0
 163 -389 109 -335 109 -268 c 0
 109 -201 163 -147 230 -147 c 0
 297 -147 351 -201 351 -268 c 0
 351 -335 297 -389 230 -389 c 0
EndSplineSet
Substitution2: "'cv05' Character Variants 05 lookup 25 subtable" Idotbelow.1
Substitution2: "'ss06' Style Set 6 lookup 19 subtable" Idotbelow.1
Substitution2: "'c2sc' Capitals to Small Capitals lookup 5 subtable" Idotbelow.sc
EndChar

StartChar: Iinvertedbreve
Encoding: 522 522 109
Width: 460
Flags: W
LayerCount: 2
Fore
SplineSet
320 0 m 1
 140 0 l 1
 140 1443 l 1
 320 1443 l 1
 320 0 l 1
-91 1542 m 1
 -78 1706 38 1848 230 1848 c 0
 422 1848 538 1706 551 1542 c 1
 424 1542 l 1
 412 1663 335 1736 230 1736 c 0
 125 1736 48 1663 36 1542 c 1
 -91 1542 l 1
EndSplineSet
Substitution2: "'cv05' Character Variants 05 lookup 25 subtable" Iinvertedbreve.1
Substitution2: "'ss06' Style Set 6 lookup 19 subtable" Iinvertedbreve.1
Substitution2: "'c2sc' Capitals to Small Capitals lookup 5 subtable" Iinvertedbreve.sc
EndChar

StartChar: Imacron
Encoding: 298 298 110
Width: 460
Flags: W
LayerCount: 2
Fore
SplineSet
320 0 m 1
 140 0 l 1
 140 1443 l 1
 320 1443 l 1
 320 0 l 1
547 1750 m 1
 547 1634 l 1
 -87 1634 l 1
 -87 1750 l 1
 547 1750 l 1
EndSplineSet
Substitution2: "'cv05' Character Variants 05 lookup 25 subtable" Imacron.1
Substitution2: "'ss06' Style Set 6 lookup 19 subtable" Imacron.1
Substitution2: "'c2sc' Capitals to Small Capitals lookup 5 subtable" Imacron.sc
EndChar

StartChar: Itildebelow
Encoding: 7724 7724 111
Width: 460
Flags: W
LayerCount: 2
Fore
SplineSet
320 0 m 1
 140 0 l 1
 140 1443 l 1
 320 1443 l 1
 320 0 l 1
361 -344 m 0
 229 -344 179 -192 100 -192 c 0
 54 -192 25 -241 29 -334 c 1
 -89 -334 l 1
 -89 -170 -13 -79 101 -79 c 0
 242 -79 287 -231 362 -231 c 0
 404 -231 431 -184 431 -88 c 1
 549 -88 l 1
 549 -248 470 -344 361 -344 c 0
EndSplineSet
Substitution2: "'cv05' Character Variants 05 lookup 25 subtable" Itildebelow.1
Substitution2: "'ss06' Style Set 6 lookup 19 subtable" Itildebelow.1
Substitution2: "'c2sc' Capitals to Small Capitals lookup 5 subtable" Itildebelow.sc
EndChar

StartChar: Ihookabove
Encoding: 7880 7880 112
Width: 460
Flags: W
LayerCount: 2
Fore
SplineSet
320 0 m 1
 140 0 l 1
 140 1443 l 1
 320 1443 l 1
 320 0 l 1
70 1753 m 1
 70 1849 l 1
 104 1864 148 1871 191 1871 c 0
 305 1871 386 1809 386 1711 c 0
 386 1630 322 1559 227 1527 c 1
 167 1605 l 1
 221 1622 257 1661 257 1704 c 0
 257 1742 220 1772 170 1772 c 0
 137 1772 99 1766 70 1753 c 1
EndSplineSet
Substitution2: "'cv05' Character Variants 05 lookup 25 subtable" Ihookabove.1
Substitution2: "'ss06' Style Set 6 lookup 19 subtable" Ihookabove.1
Substitution2: "'c2sc' Capitals to Small Capitals lookup 5 subtable" Ihookabove.sc
EndChar

StartChar: Itilde
Encoding: 296 296 113
Width: 460
Flags: W
LayerCount: 2
Fore
SplineSet
320 0 m 1
 140 0 l 1
 140 1443 l 1
 320 1443 l 1
 320 0 l 1
361 1580 m 0
 229 1580 179 1732 100 1732 c 0
 54 1732 25 1683 29 1590 c 1
 -89 1590 l 1
 -89 1754 -13 1845 101 1845 c 0
 242 1845 287 1693 362 1693 c 0
 404 1693 431 1740 431 1836 c 1
 549 1836 l 1
 549 1676 470 1580 361 1580 c 0
EndSplineSet
Substitution2: "'cv05' Character Variants 05 lookup 25 subtable" Itilde.1
Substitution2: "'ss06' Style Set 6 lookup 19 subtable" Itilde.1
Substitution2: "'c2sc' Capitals to Small Capitals lookup 5 subtable" Itilde.sc
EndChar

StartChar: Iogonek
Encoding: 302 302 114
Width: 460
Flags: W
LayerCount: 2
Fore
SplineSet
140 -4 m 1
 140 1443 l 1
 320 1443 l 1
 320 4 l 1
 314 0 l 2
 221 -62 148 -135 148 -204 c 0
 148 -269 202 -301 267 -301 c 0
 295 -301 324 -297 348 -292 c 1
 348 -413 l 1
 330 -422 285 -430 230 -430 c 0
 100 -430 2 -355 2 -242 c 0
 2 -154 52 -74 140 -4 c 1
EndSplineSet
Substitution2: "'cv05' Character Variants 05 lookup 25 subtable" Iogonek.1
Substitution2: "'ss06' Style Set 6 lookup 19 subtable" Iogonek.1
Substitution2: "'c2sc' Capitals to Small Capitals lookup 5 subtable" Iogonek.sc
EndChar

StartChar: I.1
Encoding: 1114115 -1 115
Width: 904
Flags: W
LayerCount: 2
Fore
SplineSet
818 1289 m 1
 542 1289 l 1
 542 154 l 1
 818 154 l 1
 818 0 l 1
 542 0 l 1
 362 0 l 1
 86 0 l 1
 86 154 l 1
 362 154 l 1
 362 1289 l 1
 86 1289 l 1
 86 1443 l 1
 362 1443 l 1
 542 1443 l 1
 818 1443 l 1
 818 1289 l 1
EndSplineSet
EndChar

StartChar: Idotaccent.1
Encoding: 1114116 -1 116
Width: 904
Flags: W
LayerCount: 2
Fore
SplineSet
452 1585 m 0
 385 1585 331 1639 331 1706 c 0
 331 1773 385 1827 452 1827 c 0
 519 1827 573 1773 573 1706 c 0
 573 1639 519 1585 452 1585 c 0
818 1289 m 1
 542 1289 l 1
 542 154 l 1
 818 154 l 1
 818 0 l 1
 542 0 l 1
 362 0 l 1
 86 0 l 1
 86 154 l 1
 362 154 l 1
 362 1289 l 1
 86 1289 l 1
 86 1443 l 1
 362 1443 l 1
 542 1443 l 1
 818 1443 l 1
 818 1289 l 1
EndSplineSet
EndChar

StartChar: Igrave.1
Encoding: 1114117 -1 117
Width: 904
Flags: W
LayerCount: 2
Fore
SplineSet
554 1560 m 1
 400 1560 l 1
 140 1849 l 1
 334 1849 l 1
 554 1560 l 1
818 1289 m 1
 542 1289 l 1
 542 154 l 1
 818 154 l 1
 818 0 l 1
 542 0 l 1
 362 0 l 1
 86 0 l 1
 86 154 l 1
 362 154 l 1
 362 1289 l 1
 86 1289 l 1
 86 1443 l 1
 362 1443 l 1
 542 1443 l 1
 818 1443 l 1
 818 1289 l 1
EndSplineSet
EndChar

StartChar: Idblgrave.1
Encoding: 1114118 -1 118
Width: 904
Flags: W
LayerCount: 2
Fore
SplineSet
698 1560 m 1
 544 1560 l 1
 284 1849 l 1
 478 1849 l 1
 698 1560 l 1
378 1560 m 1
 224 1560 l 1
 -36 1849 l 1
 158 1849 l 1
 378 1560 l 1
818 1289 m 1
 542 1289 l 1
 542 154 l 1
 818 154 l 1
 818 0 l 1
 542 0 l 1
 362 0 l 1
 86 0 l 1
 86 154 l 1
 362 154 l 1
 362 1289 l 1
 86 1289 l 1
 86 1443 l 1
 362 1443 l 1
 542 1443 l 1
 818 1443 l 1
 818 1289 l 1
EndSplineSet
EndChar

StartChar: Iacute.1
Encoding: 1114119 -1 119
Width: 904
Flags: W
LayerCount: 2
Fore
SplineSet
762 1849 m 1
 502 1560 l 1
 348 1560 l 1
 568 1849 l 1
 762 1849 l 1
818 1289 m 1
 542 1289 l 1
 542 154 l 1
 818 154 l 1
 818 0 l 1
 542 0 l 1
 362 0 l 1
 86 0 l 1
 86 154 l 1
 362 154 l 1
 362 1289 l 1
 86 1289 l 1
 86 1443 l 1
 362 1443 l 1
 542 1443 l 1
 818 1443 l 1
 818 1289 l 1
EndSplineSet
EndChar

StartChar: Icircumflex.1
Encoding: 1114120 -1 120
Width: 904
Flags: W
LayerCount: 2
Fore
SplineSet
449 1732 m 1
 268 1540 l 1
 102 1540 l 1
 385 1838 l 1
 519 1838 l 1
 802 1540 l 1
 636 1540 l 1
 455 1732 l 1
 449 1732 l 1
818 1289 m 1
 542 1289 l 1
 542 154 l 1
 818 154 l 1
 818 0 l 1
 542 0 l 1
 362 0 l 1
 86 0 l 1
 86 154 l 1
 362 154 l 1
 362 1289 l 1
 86 1289 l 1
 86 1443 l 1
 362 1443 l 1
 542 1443 l 1
 818 1443 l 1
 818 1289 l 1
EndSplineSet
EndChar

StartChar: Icaron.1
Encoding: 1114121 -1 121
Width: 904
Flags: W
LayerCount: 2
Fore
SplineSet
519 1550 m 1
 385 1550 l 1
 102 1848 l 1
 268 1848 l 1
 449 1656 l 1
 455 1656 l 1
 636 1848 l 1
 802 1848 l 1
 519 1550 l 1
818 1289 m 1
 542 1289 l 1
 542 154 l 1
 818 154 l 1
 818 0 l 1
 542 0 l 1
 362 0 l 1
 86 0 l 1
 86 154 l 1
 362 154 l 1
 362 1289 l 1
 86 1289 l 1
 86 1443 l 1
 362 1443 l 1
 542 1443 l 1
 818 1443 l 1
 818 1289 l 1
EndSplineSet
EndChar

StartChar: Idieresis.1
Encoding: 1114122 -1 122
Width: 904
Flags: W
LayerCount: 2
Fore
SplineSet
638 1604 m 0
 578 1604 528 1653 528 1714 c 0
 528 1775 578 1824 638 1824 c 0
 698 1824 748 1775 748 1714 c 0
 748 1653 698 1604 638 1604 c 0
266 1604 m 0
 206 1604 156 1653 156 1714 c 0
 156 1775 206 1824 266 1824 c 0
 326 1824 376 1775 376 1714 c 0
 376 1653 326 1604 266 1604 c 0
818 1289 m 1
 542 1289 l 1
 542 154 l 1
 818 154 l 1
 818 0 l 1
 542 0 l 1
 362 0 l 1
 86 0 l 1
 86 154 l 1
 362 154 l 1
 362 1289 l 1
 86 1289 l 1
 86 1443 l 1
 362 1443 l 1
 542 1443 l 1
 818 1443 l 1
 818 1289 l 1
EndSplineSet
EndChar

StartChar: Idieresisacute.1
Encoding: 1114123 -1 123
Width: 904
Flags: W
LayerCount: 2
Fore
SplineSet
708 2046 m 1
 516 1830 l 1
 370 1830 l 1
 538 2046 l 1
 708 2046 l 1
629 1766 m 0
 687 1766 734 1719 734 1660 c 0
 734 1601 687 1554 629 1554 c 0
 572 1554 525 1601 525 1660 c 0
 525 1719 572 1766 629 1766 c 0
275 1554 m 0
 217 1554 170 1601 170 1660 c 0
 170 1719 217 1766 275 1766 c 0
 332 1766 379 1719 379 1660 c 0
 379 1601 332 1554 275 1554 c 0
818 1289 m 1
 542 1289 l 1
 542 154 l 1
 818 154 l 1
 818 0 l 1
 542 0 l 1
 362 0 l 1
 86 0 l 1
 86 154 l 1
 362 154 l 1
 362 1289 l 1
 86 1289 l 1
 86 1443 l 1
 362 1443 l 1
 542 1443 l 1
 818 1443 l 1
 818 1289 l 1
EndSplineSet
EndChar

StartChar: Ibreve.1
Encoding: 1114124 -1 124
Width: 904
Flags: W
LayerCount: 2
Fore
SplineSet
646 1848 m 1
 773 1848 l 1
 760 1684 644 1542 452 1542 c 0
 260 1542 144 1684 131 1848 c 1
 258 1848 l 1
 270 1727 347 1654 452 1654 c 0
 557 1654 634 1727 646 1848 c 1
818 1289 m 1
 542 1289 l 1
 542 154 l 1
 818 154 l 1
 818 0 l 1
 542 0 l 1
 362 0 l 1
 86 0 l 1
 86 154 l 1
 362 154 l 1
 362 1289 l 1
 86 1289 l 1
 86 1443 l 1
 362 1443 l 1
 542 1443 l 1
 818 1443 l 1
 818 1289 l 1
EndSplineSet
EndChar

StartChar: Idotbelow.1
Encoding: 1114125 -1 125
Width: 904
Flags: W
LayerCount: 2
Fore
SplineSet
452 -147 m 0
 519 -147 573 -201 573 -268 c 0
 573 -335 519 -389 452 -389 c 0
 385 -389 331 -335 331 -268 c 0
 331 -201 385 -147 452 -147 c 0
818 1289 m 1
 542 1289 l 1
 542 154 l 1
 818 154 l 1
 818 0 l 1
 542 0 l 1
 362 0 l 1
 86 0 l 1
 86 154 l 1
 362 154 l 1
 362 1289 l 1
 86 1289 l 1
 86 1443 l 1
 362 1443 l 1
 542 1443 l 1
 818 1443 l 1
 818 1289 l 1
EndSplineSet
EndChar

StartChar: Iinvertedbreve.1
Encoding: 1114126 -1 126
Width: 904
Flags: W
LayerCount: 2
Fore
SplineSet
773 1542 m 1
 646 1542 l 1
 634 1663 557 1736 452 1736 c 0
 347 1736 270 1663 258 1542 c 1
 131 1542 l 1
 144 1706 260 1848 452 1848 c 0
 644 1848 760 1706 773 1542 c 1
818 1289 m 1
 542 1289 l 1
 542 154 l 1
 818 154 l 1
 818 0 l 1
 542 0 l 1
 362 0 l 1
 86 0 l 1
 86 154 l 1
 362 154 l 1
 362 1289 l 1
 86 1289 l 1
 86 1443 l 1
 362 1443 l 1
 542 1443 l 1
 818 1443 l 1
 818 1289 l 1
EndSplineSet
EndChar

StartChar: Imacron.1
Encoding: 1114127 -1 127
Width: 904
Flags: W
LayerCount: 2
Fore
SplineSet
769 1750 m 1
 769 1634 l 1
 135 1634 l 1
 135 1750 l 1
 769 1750 l 1
818 1289 m 1
 542 1289 l 1
 542 154 l 1
 818 154 l 1
 818 0 l 1
 542 0 l 1
 362 0 l 1
 86 0 l 1
 86 154 l 1
 362 154 l 1
 362 1289 l 1
 86 1289 l 1
 86 1443 l 1
 362 1443 l 1
 542 1443 l 1
 818 1443 l 1
 818 1289 l 1
EndSplineSet
EndChar

StartChar: Itildebelow.1
Encoding: 1114128 -1 128
Width: 904
Flags: W
LayerCount: 2
Fore
SplineSet
251 -334 m 1
 133 -334 l 1
 133 -170 209 -79 323 -79 c 0
 464 -79 509 -231 584 -231 c 0
 626 -231 653 -184 653 -88 c 1
 771 -88 l 1
 771 -248 692 -344 583 -344 c 0
 451 -344 401 -192 322 -192 c 0
 276 -192 247 -241 251 -334 c 1
818 1289 m 1
 542 1289 l 1
 542 154 l 1
 818 154 l 1
 818 0 l 1
 542 0 l 1
 362 0 l 1
 86 0 l 1
 86 154 l 1
 362 154 l 1
 362 1289 l 1
 86 1289 l 1
 86 1443 l 1
 362 1443 l 1
 542 1443 l 1
 818 1443 l 1
 818 1289 l 1
EndSplineSet
EndChar

StartChar: Ihookabove.1
Encoding: 1114129 -1 129
Width: 904
Flags: W
LayerCount: 2
Fore
SplineSet
451 1527 m 1
 391 1605 l 1
 445 1622 481 1661 481 1704 c 0
 481 1742 444 1772 394 1772 c 0
 361 1772 323 1766 294 1753 c 1
 294 1849 l 1
 328 1864 372 1871 415 1871 c 0
 529 1871 610 1809 610 1711 c 0
 610 1630 546 1559 451 1527 c 1
818 1289 m 1
 542 1289 l 1
 542 154 l 1
 818 154 l 1
 818 0 l 1
 542 0 l 1
 362 0 l 1
 86 0 l 1
 86 154 l 1
 362 154 l 1
 362 1289 l 1
 86 1289 l 1
 86 1443 l 1
 362 1443 l 1
 542 1443 l 1
 818 1443 l 1
 818 1289 l 1
EndSplineSet
EndChar

StartChar: Itilde.1
Encoding: 1114130 -1 130
Width: 904
Flags: W
LayerCount: 2
Fore
SplineSet
653 1836 m 1
 771 1836 l 1
 771 1676 692 1580 583 1580 c 0
 451 1580 401 1732 322 1732 c 0
 276 1732 247 1683 251 1590 c 1
 133 1590 l 1
 133 1754 209 1845 323 1845 c 0
 464 1845 509 1693 584 1693 c 0
 626 1693 653 1740 653 1836 c 1
818 1289 m 1
 542 1289 l 1
 542 154 l 1
 818 154 l 1
 818 0 l 1
 542 0 l 1
 362 0 l 1
 86 0 l 1
 86 154 l 1
 362 154 l 1
 362 1289 l 1
 86 1289 l 1
 86 1443 l 1
 362 1443 l 1
 542 1443 l 1
 818 1443 l 1
 818 1289 l 1
EndSplineSet
EndChar

StartChar: Iogonek.1
Encoding: 1114131 -1 131
Width: 904
Flags: W
LayerCount: 2
Fore
SplineSet
658 -430 m 0
 528 -430 430 -355 430 -242 c 0
 430 -152 480 -66 574 -4 c 1
 574 0 l 1
 86 0 l 1
 86 154 l 1
 362 154 l 1
 362 1289 l 1
 86 1289 l 1
 86 1443 l 1
 818 1443 l 1
 818 1289 l 1
 542 1289 l 1
 542 154 l 1
 818 154 l 1
 818 16 l 1
 798 8 l 2
 645 -53 576 -134 576 -204 c 0
 576 -269 630 -301 695 -301 c 0
 723 -301 752 -297 776 -292 c 1
 776 -413 l 1
 758 -422 713 -430 658 -430 c 0
EndSplineSet
EndChar

StartChar: J
Encoding: 74 74 132
Width: 1014
Flags: HW
LayerCount: 2
Fore
SplineSet
42 339 m 1
 221 339 l 1
 225 217 318 132 449 132 c 0
 608 132 694 227 694 403 c 2
 694 1443 l 1
 874 1443 l 1
 874 402 l 2
 874 128 716 -34 450 -34 c 0
 210 -34 42 120 42 339 c 1
EndSplineSet
Substitution2: "'c2sc' Capitals to Small Capitals lookup 5 subtable" J.sc
EndChar

StartChar: Jcircumflex
Encoding: 308 308 133
Width: 1014
Flags: W
LayerCount: 2
Fore
SplineSet
42 339 m 1
 221 339 l 1
 225 217 318 132 449 132 c 0
 608 132 694 227 694 403 c 2
 694 1443 l 1
 874 1443 l 1
 874 402 l 2
 874 128 716 -34 450 -34 c 0
 210 -34 42 120 42 339 c 1
717 1838 m 1
 851 1838 l 1
 1134 1540 l 1
 968 1540 l 1
 787 1732 l 1
 781 1732 l 1
 600 1540 l 1
 434 1540 l 1
 717 1838 l 1
EndSplineSet
Substitution2: "'c2sc' Capitals to Small Capitals lookup 5 subtable" Jcircumflex.sc
EndChar

StartChar: K
Encoding: 75 75 134
Width: 1260
Flags: W
LayerCount: 2
Fore
SplineSet
320 0 m 1
 140 0 l 1
 140 1443 l 1
 320 1443 l 1
 320 739 l 1
 330 739 l 1
 967 1443 l 1
 1194 1443 l 1
 601 804 l 1
 1247 0 l 1
 1017 0 l 1
 476 676 l 1
 320 504 l 1
 320 0 l 1
EndSplineSet
Substitution2: "'c2sc' Capitals to Small Capitals lookup 5 subtable" K.sc
EndChar

StartChar: Kacute
Encoding: 7728 7728 135
Width: 1260
Flags: W
LayerCount: 2
Fore
SplineSet
320 0 m 1
 140 0 l 1
 140 1443 l 1
 320 1443 l 1
 320 739 l 1
 330 739 l 1
 967 1443 l 1
 1194 1443 l 1
 601 804 l 1
 1247 0 l 1
 1017 0 l 1
 476 676 l 1
 320 504 l 1
 320 0 l 1
699 1560 m 1
 545 1560 l 1
 765 1849 l 1
 959 1849 l 1
 699 1560 l 1
EndSplineSet
Substitution2: "'c2sc' Capitals to Small Capitals lookup 5 subtable" Kacute.sc
EndChar

StartChar: Kcaron
Encoding: 488 488 136
Width: 1260
Flags: W
LayerCount: 2
Fore
SplineSet
320 0 m 1
 140 0 l 1
 140 1443 l 1
 320 1443 l 1
 320 739 l 1
 330 739 l 1
 967 1443 l 1
 1194 1443 l 1
 601 804 l 1
 1247 0 l 1
 1017 0 l 1
 476 676 l 1
 320 504 l 1
 320 0 l 1
542 1550 m 1
 259 1848 l 1
 425 1848 l 1
 606 1656 l 1
 612 1656 l 1
 793 1848 l 1
 959 1848 l 1
 676 1550 l 1
 542 1550 l 1
EndSplineSet
Substitution2: "'c2sc' Capitals to Small Capitals lookup 5 subtable" Kcaron.sc
EndChar

StartChar: Kdotbelow
Encoding: 7730 7730 137
Width: 1260
Flags: W
LayerCount: 2
Fore
SplineSet
320 0 m 1
 140 0 l 1
 140 1443 l 1
 320 1443 l 1
 320 739 l 1
 330 739 l 1
 967 1443 l 1
 1194 1443 l 1
 601 804 l 1
 1247 0 l 1
 1017 0 l 1
 476 676 l 1
 320 504 l 1
 320 0 l 1
609 -389 m 0
 542 -389 488 -335 488 -268 c 0
 488 -201 542 -147 609 -147 c 0
 676 -147 730 -201 730 -268 c 0
 730 -335 676 -389 609 -389 c 0
EndSplineSet
Substitution2: "'c2sc' Capitals to Small Capitals lookup 5 subtable" Kdotbelow.sc
EndChar

StartChar: Klinebelow
Encoding: 7732 7732 138
Width: 1260
Flags: W
LayerCount: 2
Fore
SplineSet
320 0 m 1
 140 0 l 1
 140 1443 l 1
 320 1443 l 1
 320 739 l 1
 330 739 l 1
 967 1443 l 1
 1194 1443 l 1
 601 804 l 1
 1247 0 l 1
 1017 0 l 1
 476 676 l 1
 320 504 l 1
 320 0 l 1
926 -217 m 1
 926 -333 l 1
 292 -333 l 1
 292 -217 l 1
 926 -217 l 1
EndSplineSet
Substitution2: "'c2sc' Capitals to Small Capitals lookup 5 subtable" Klinebelow.sc
EndChar

StartChar: Kcommaaccent
Encoding: 310 310 139
Width: 1260
Flags: W
LayerCount: 2
Fore
SplineSet
320 0 m 1
 140 0 l 1
 140 1443 l 1
 320 1443 l 1
 320 739 l 1
 330 739 l 1
 967 1443 l 1
 1194 1443 l 1
 601 804 l 1
 1247 0 l 1
 1017 0 l 1
 476 676 l 1
 320 504 l 1
 320 0 l 1
581 -486 m 1
 455 -486 l 1
 563 -127 l 1
 715 -127 l 1
 581 -486 l 1
EndSplineSet
Substitution2: "'c2sc' Capitals to Small Capitals lookup 5 subtable" Kcommaaccent.sc
EndChar

StartChar: L
Encoding: 76 76 140
Width: 1074
Flags: W
LayerCount: 2
Fore
SplineSet
1016 162 m 1
 1016 0 l 1
 140 0 l 1
 140 1443 l 1
 320 1443 l 1
 320 162 l 1
 1016 162 l 1
EndSplineSet
Substitution2: "'c2sc' Capitals to Small Capitals lookup 5 subtable" L.sc
EndChar

StartChar: Lacute
Encoding: 313 313 141
Width: 1074
Flags: W
LayerCount: 2
Fore
SplineSet
1016 162 m 1
 1016 0 l 1
 140 0 l 1
 140 1443 l 1
 320 1443 l 1
 320 162 l 1
 1016 162 l 1
320 1560 m 1
 166 1560 l 1
 386 1849 l 1
 580 1849 l 1
 320 1560 l 1
EndSplineSet
Substitution2: "'c2sc' Capitals to Small Capitals lookup 5 subtable" Lacute.sc
EndChar

StartChar: Lcircumflexbelow
Encoding: 7740 7740 142
Width: 1074
Flags: W
LayerCount: 2
Fore
SplineSet
1016 162 m 1
 1016 0 l 1
 140 0 l 1
 140 1443 l 1
 320 1443 l 1
 320 162 l 1
 1016 162 l 1
511 -127 m 1
 645 -127 l 1
 928 -425 l 1
 762 -425 l 1
 581 -233 l 1
 575 -233 l 1
 394 -425 l 1
 228 -425 l 1
 511 -127 l 1
EndSplineSet
Substitution2: "'c2sc' Capitals to Small Capitals lookup 5 subtable" Lcircumflexbelow.sc
EndChar

StartChar: Ldotbelow
Encoding: 7734 7734 143
Width: 1074
Flags: W
LayerCount: 2
Fore
SplineSet
1016 162 m 1
 1016 0 l 1
 140 0 l 1
 140 1443 l 1
 320 1443 l 1
 320 162 l 1
 1016 162 l 1
578 -389 m 0
 511 -389 457 -335 457 -268 c 0
 457 -201 511 -147 578 -147 c 0
 645 -147 699 -201 699 -268 c 0
 699 -335 645 -389 578 -389 c 0
EndSplineSet
Substitution2: "'c2sc' Capitals to Small Capitals lookup 5 subtable" Ldotbelow.sc
EndChar

StartChar: Ldotbelowmacron
Encoding: 7736 7736 144
Width: 1074
Flags: W
LayerCount: 2
Fore
SplineSet
1016 162 m 1
 1016 0 l 1
 140 0 l 1
 140 1443 l 1
 320 1443 l 1
 320 162 l 1
 1016 162 l 1
578 -389 m 0
 511 -389 457 -335 457 -268 c 0
 457 -201 511 -147 578 -147 c 0
 645 -147 699 -201 699 -268 c 0
 699 -335 645 -389 578 -389 c 0
547 1750 m 1
 547 1634 l 1
 -87 1634 l 1
 -87 1750 l 1
 547 1750 l 1
EndSplineSet
Substitution2: "'c2sc' Capitals to Small Capitals lookup 5 subtable" Ldotbelowmacron.sc
EndChar

StartChar: Llinebelow
Encoding: 7738 7738 145
Width: 1074
Flags: W
LayerCount: 2
Fore
SplineSet
1016 162 m 1
 1016 0 l 1
 140 0 l 1
 140 1443 l 1
 320 1443 l 1
 320 162 l 1
 1016 162 l 1
895 -217 m 1
 895 -333 l 1
 261 -333 l 1
 261 -217 l 1
 895 -217 l 1
EndSplineSet
Substitution2: "'c2sc' Capitals to Small Capitals lookup 5 subtable" Llinebelow.sc
EndChar

StartChar: Lcommaaccent
Encoding: 315 315 146
Width: 1074
Flags: W
LayerCount: 2
Fore
SplineSet
1016 162 m 1
 1016 0 l 1
 140 0 l 1
 140 1443 l 1
 320 1443 l 1
 320 162 l 1
 1016 162 l 1
550 -486 m 1
 424 -486 l 1
 532 -127 l 1
 684 -127 l 1
 550 -486 l 1
EndSplineSet
Substitution2: "'c2sc' Capitals to Small Capitals lookup 5 subtable" Lcommaaccent.sc
EndChar

StartChar: Lcaron
Encoding: 317 317 147
Width: 1074
Flags: W
LayerCount: 2
Fore
SplineSet
589 1443 m 1
 759 1443 l 1
 709 955 l 1
 589 955 l 1
 589 1443 l 1
1016 162 m 1
 1016 0 l 1
 140 0 l 1
 140 1443 l 1
 320 1443 l 1
 320 162 l 1
 1016 162 l 1
EndSplineSet
Substitution2: "'c2sc' Capitals to Small Capitals lookup 5 subtable" Lcaron.sc
EndChar

StartChar: Lslash
Encoding: 321 321 148
Width: 1074
Flags: W
LayerCount: 2
Fore
SplineSet
320 162 m 1
 1016 162 l 1
 1016 0 l 1
 140 0 l 1
 140 699 l 1
 18 643 l 1
 18 786 l 1
 140 842 l 1
 140 1443 l 1
 320 1443 l 1
 320 924 l 1
 656 1077 l 1
 656 934 l 1
 320 781 l 1
 320 162 l 1
EndSplineSet
Substitution2: "'c2sc' Capitals to Small Capitals lookup 5 subtable" Lslash.sc
EndChar

StartChar: M
Encoding: 77 77 149
Width: 1702
Flags: W
LayerCount: 2
Fore
SplineSet
1562 0 m 1
 1394 0 l 1
 1394 1112 l 1
 1387 1112 l 1
 927 10 l 1
 775 10 l 1
 315 1112 l 1
 308 1112 l 1
 308 0 l 1
 140 0 l 1
 140 1443 l 1
 349 1443 l 1
 847 239 l 1
 855 239 l 1
 1353 1443 l 1
 1562 1443 l 1
 1562 0 l 1
EndSplineSet
Substitution2: "'c2sc' Capitals to Small Capitals lookup 5 subtable" M.sc
EndChar

StartChar: Macute
Encoding: 7742 7742 150
Width: 1702
Flags: W
LayerCount: 2
Fore
SplineSet
1562 0 m 1
 1394 0 l 1
 1394 1112 l 1
 1387 1112 l 1
 927 10 l 1
 775 10 l 1
 315 1112 l 1
 308 1112 l 1
 308 0 l 1
 140 0 l 1
 140 1443 l 1
 349 1443 l 1
 847 239 l 1
 855 239 l 1
 1353 1443 l 1
 1562 1443 l 1
 1562 0 l 1
941 1560 m 1
 787 1560 l 1
 1007 1849 l 1
 1201 1849 l 1
 941 1560 l 1
EndSplineSet
Substitution2: "'c2sc' Capitals to Small Capitals lookup 5 subtable" Macute.sc
EndChar

StartChar: Mdotaccent
Encoding: 7744 7744 151
Width: 1702
Flags: W
LayerCount: 2
Fore
SplineSet
1562 0 m 1
 1394 0 l 1
 1394 1112 l 1
 1387 1112 l 1
 927 10 l 1
 775 10 l 1
 315 1112 l 1
 308 1112 l 1
 308 0 l 1
 140 0 l 1
 140 1443 l 1
 349 1443 l 1
 847 239 l 1
 855 239 l 1
 1353 1443 l 1
 1562 1443 l 1
 1562 0 l 1
851 1585 m 0
 784 1585 730 1639 730 1706 c 0
 730 1773 784 1827 851 1827 c 0
 918 1827 972 1773 972 1706 c 0
 972 1639 918 1585 851 1585 c 0
EndSplineSet
Substitution2: "'c2sc' Capitals to Small Capitals lookup 5 subtable" Mdotaccent.sc
EndChar

StartChar: Mdotbelow
Encoding: 7746 7746 152
Width: 1702
Flags: W
LayerCount: 2
Fore
SplineSet
1562 0 m 1
 1394 0 l 1
 1394 1112 l 1
 1387 1112 l 1
 927 10 l 1
 775 10 l 1
 315 1112 l 1
 308 1112 l 1
 308 0 l 1
 140 0 l 1
 140 1443 l 1
 349 1443 l 1
 847 239 l 1
 855 239 l 1
 1353 1443 l 1
 1562 1443 l 1
 1562 0 l 1
851 -389 m 0
 784 -389 730 -335 730 -268 c 0
 730 -201 784 -147 851 -147 c 0
 918 -147 972 -201 972 -268 c 0
 972 -335 918 -389 851 -389 c 0
EndSplineSet
Substitution2: "'c2sc' Capitals to Small Capitals lookup 5 subtable" Mdotbelow.sc
EndChar

StartChar: N
Encoding: 78 78 153
Width: 1432
Flags: W
LayerCount: 2
Fore
SplineSet
318 0 m 1
 140 0 l 1
 140 1443 l 1
 315 1443 l 1
 1105 310 l 1
 1114 310 l 1
 1114 1443 l 1
 1292 1443 l 1
 1292 0 l 1
 1117 0 l 1
 327 1129 l 1
 318 1129 l 1
 318 0 l 1
EndSplineSet
Substitution2: "'c2sc' Capitals to Small Capitals lookup 5 subtable" N.sc
EndChar

StartChar: Ngrave
Encoding: 504 504 154
Width: 1432
Flags: W
LayerCount: 2
Fore
SplineSet
318 0 m 1
 140 0 l 1
 140 1443 l 1
 315 1443 l 1
 1105 310 l 1
 1114 310 l 1
 1114 1443 l 1
 1292 1443 l 1
 1292 0 l 1
 1117 0 l 1
 327 1129 l 1
 318 1129 l 1
 318 0 l 1
626 1560 m 1
 366 1849 l 1
 560 1849 l 1
 780 1560 l 1
 626 1560 l 1
EndSplineSet
Substitution2: "'c2sc' Capitals to Small Capitals lookup 5 subtable" Ngrave.sc
EndChar

StartChar: Nacute
Encoding: 323 323 155
Width: 1432
Flags: W
LayerCount: 2
Fore
SplineSet
318 0 m 1
 140 0 l 1
 140 1443 l 1
 315 1443 l 1
 1105 310 l 1
 1114 310 l 1
 1114 1443 l 1
 1292 1443 l 1
 1292 0 l 1
 1117 0 l 1
 327 1129 l 1
 318 1129 l 1
 318 0 l 1
806 1560 m 1
 652 1560 l 1
 872 1849 l 1
 1066 1849 l 1
 806 1560 l 1
EndSplineSet
Substitution2: "'c2sc' Capitals to Small Capitals lookup 5 subtable" Nacute.sc
EndChar

StartChar: Ntilde
Encoding: 209 209 156
Width: 1432
Flags: W
LayerCount: 2
Fore
SplineSet
318 0 m 1
 140 0 l 1
 140 1443 l 1
 315 1443 l 1
 1105 310 l 1
 1114 310 l 1
 1114 1443 l 1
 1292 1443 l 1
 1292 0 l 1
 1117 0 l 1
 327 1129 l 1
 318 1129 l 1
 318 0 l 1
847 1580 m 0
 715 1580 665 1732 586 1732 c 0
 540 1732 511 1683 515 1590 c 1
 397 1590 l 1
 397 1754 473 1845 587 1845 c 0
 728 1845 773 1693 848 1693 c 0
 890 1693 917 1740 917 1836 c 1
 1035 1836 l 1
 1035 1676 956 1580 847 1580 c 0
EndSplineSet
Ligature2: "'liga' Standard Ligatures lookup 29 subtable" N asciitilde
Substitution2: "'c2sc' Capitals to Small Capitals lookup 5 subtable" Ntilde.sc
EndChar

StartChar: Ndotbelow
Encoding: 7750 7750 157
Width: 1432
Flags: W
LayerCount: 2
Fore
SplineSet
318 0 m 1
 140 0 l 1
 140 1443 l 1
 315 1443 l 1
 1105 310 l 1
 1114 310 l 1
 1114 1443 l 1
 1292 1443 l 1
 1292 0 l 1
 1117 0 l 1
 327 1129 l 1
 318 1129 l 1
 318 0 l 1
716 -389 m 0
 649 -389 595 -335 595 -268 c 0
 595 -201 649 -147 716 -147 c 0
 783 -147 837 -201 837 -268 c 0
 837 -335 783 -389 716 -389 c 0
EndSplineSet
Substitution2: "'c2sc' Capitals to Small Capitals lookup 5 subtable" Ndotbelow.sc
EndChar

StartChar: Ndotaccent
Encoding: 7748 7748 158
Width: 1432
Flags: W
LayerCount: 2
Fore
SplineSet
318 0 m 1
 140 0 l 1
 140 1443 l 1
 315 1443 l 1
 1105 310 l 1
 1114 310 l 1
 1114 1443 l 1
 1292 1443 l 1
 1292 0 l 1
 1117 0 l 1
 327 1129 l 1
 318 1129 l 1
 318 0 l 1
716 1585 m 0
 649 1585 595 1639 595 1706 c 0
 595 1773 649 1827 716 1827 c 0
 783 1827 837 1773 837 1706 c 0
 837 1639 783 1585 716 1585 c 0
EndSplineSet
Substitution2: "'c2sc' Capitals to Small Capitals lookup 5 subtable" Ndotaccent.sc
EndChar

StartChar: Ncaron
Encoding: 327 327 159
Width: 1432
Flags: W
LayerCount: 2
Fore
SplineSet
318 0 m 1
 140 0 l 1
 140 1443 l 1
 315 1443 l 1
 1105 310 l 1
 1114 310 l 1
 1114 1443 l 1
 1292 1443 l 1
 1292 0 l 1
 1117 0 l 1
 327 1129 l 1
 318 1129 l 1
 318 0 l 1
649 1550 m 1
 366 1848 l 1
 532 1848 l 1
 713 1656 l 1
 719 1656 l 1
 900 1848 l 1
 1066 1848 l 1
 783 1550 l 1
 649 1550 l 1
EndSplineSet
Substitution2: "'c2sc' Capitals to Small Capitals lookup 5 subtable" Ncaron.sc
EndChar

StartChar: Ncircumflexbelow
Encoding: 7754 7754 160
Width: 1432
Flags: W
LayerCount: 2
Fore
SplineSet
318 0 m 1
 140 0 l 1
 140 1443 l 1
 315 1443 l 1
 1105 310 l 1
 1114 310 l 1
 1114 1443 l 1
 1292 1443 l 1
 1292 0 l 1
 1117 0 l 1
 327 1129 l 1
 318 1129 l 1
 318 0 l 1
649 -127 m 1
 783 -127 l 1
 1066 -425 l 1
 900 -425 l 1
 719 -233 l 1
 713 -233 l 1
 532 -425 l 1
 366 -425 l 1
 649 -127 l 1
EndSplineSet
Substitution2: "'c2sc' Capitals to Small Capitals lookup 5 subtable" Ncircumflexbelow.sc
EndChar

StartChar: Nlinebelow
Encoding: 7752 7752 161
Width: 1432
Flags: W
LayerCount: 2
Fore
SplineSet
318 0 m 1
 140 0 l 1
 140 1443 l 1
 315 1443 l 1
 1105 310 l 1
 1114 310 l 1
 1114 1443 l 1
 1292 1443 l 1
 1292 0 l 1
 1117 0 l 1
 327 1129 l 1
 318 1129 l 1
 318 0 l 1
1033 -217 m 1
 1033 -333 l 1
 399 -333 l 1
 399 -217 l 1
 1033 -217 l 1
EndSplineSet
Substitution2: "'c2sc' Capitals to Small Capitals lookup 5 subtable" Nlinebelow.sc
EndChar

StartChar: Ncommaaccent
Encoding: 325 325 162
Width: 1432
Flags: W
LayerCount: 2
Fore
SplineSet
318 0 m 1
 140 0 l 1
 140 1443 l 1
 315 1443 l 1
 1105 310 l 1
 1114 310 l 1
 1114 1443 l 1
 1292 1443 l 1
 1292 0 l 1
 1117 0 l 1
 327 1129 l 1
 318 1129 l 1
 318 0 l 1
688 -486 m 1
 562 -486 l 1
 670 -127 l 1
 822 -127 l 1
 688 -486 l 1
EndSplineSet
Substitution2: "'c2sc' Capitals to Small Capitals lookup 5 subtable" Ncommaaccent.sc
EndChar

StartChar: O
Encoding: 79 79 163
Width: 1498
Flags: W
LayerCount: 2
Fore
SplineSet
749 1467 m 0
 1158 1467 1414 1179 1414 721 c 0
 1414 263 1158 -24 749 -24 c 0
 340 -24 84 263 84 721 c 0
 84 1179 340 1467 749 1467 c 0
749 1301 m 0
 454 1301 269 1077 269 721 c 0
 269 366 454 142 749 142 c 0
 1044 142 1229 366 1229 721 c 0
 1229 1077 1044 1301 749 1301 c 0
EndSplineSet
Substitution2: "'c2sc' Capitals to Small Capitals lookup 5 subtable" O.sc
EndChar

StartChar: Odieresis
Encoding: 214 214 164
Width: 1498
Flags: W
LayerCount: 2
Fore
SplineSet
749 1467 m 0
 1158 1467 1414 1179 1414 721 c 0
 1414 263 1158 -24 749 -24 c 0
 340 -24 84 263 84 721 c 0
 84 1179 340 1467 749 1467 c 0
749 1301 m 0
 454 1301 269 1077 269 721 c 0
 269 366 454 142 749 142 c 0
 1044 142 1229 366 1229 721 c 0
 1229 1077 1044 1301 749 1301 c 0
563 1604 m 0
 503 1604 453 1653 453 1714 c 0
 453 1775 503 1824 563 1824 c 0
 623 1824 673 1775 673 1714 c 0
 673 1653 623 1604 563 1604 c 0
935 1604 m 0
 875 1604 825 1653 825 1714 c 0
 825 1775 875 1824 935 1824 c 0
 995 1824 1045 1775 1045 1714 c 0
 1045 1653 995 1604 935 1604 c 0
EndSplineSet
Substitution2: "'c2sc' Capitals to Small Capitals lookup 5 subtable" Odieresis.sc
EndChar

StartChar: Oslash
Encoding: 216 216 165
Width: 1498
Flags: W
LayerCount: 2
Fore
SplineSet
1135 1096 m 1
 470 230 l 1
 545 173 640 142 749 142 c 0
 1044 142 1229 366 1229 721 c 0
 1229 872 1196 1000 1135 1096 c 1
382 319 m 1
 1055 1191 l 1
 976 1262 872 1301 749 1301 c 0
 454 1301 269 1077 269 721 c 0
 269 555 309 418 382 319 c 1
1382 1419 m 1
 1250 1247 l 1
 1356 1119 1414 939 1414 721 c 0
 1414 263 1158 -24 749 -24 c 0
 597 -24 466 16 362 89 c 1
 258 -47 l 1
 158 29 l 1
 268 171 l 1
 150 301 84 489 84 721 c 0
 84 1179 340 1467 749 1467 c 0
 915 1467 1056 1420 1164 1333 c 1
 1284 1488 l 1
 1382 1419 l 1
EndSplineSet
Substitution2: "'c2sc' Capitals to Small Capitals lookup 5 subtable" Oslash.sc
EndChar

StartChar: Otilde
Encoding: 213 213 166
Width: 1498
Flags: W
LayerCount: 2
Fore
SplineSet
749 1467 m 0
 1158 1467 1414 1179 1414 721 c 0
 1414 263 1158 -24 749 -24 c 0
 340 -24 84 263 84 721 c 0
 84 1179 340 1467 749 1467 c 0
749 1301 m 0
 454 1301 269 1077 269 721 c 0
 269 366 454 142 749 142 c 0
 1044 142 1229 366 1229 721 c 0
 1229 1077 1044 1301 749 1301 c 0
880 1580 m 0
 748 1580 698 1732 619 1732 c 0
 573 1732 544 1683 548 1590 c 1
 430 1590 l 1
 430 1754 506 1845 620 1845 c 0
 761 1845 806 1693 881 1693 c 0
 923 1693 950 1740 950 1836 c 1
 1068 1836 l 1
 1068 1676 989 1580 880 1580 c 0
EndSplineSet
Ligature2: "'liga' Standard Ligatures lookup 29 subtable" O asciitilde
Substitution2: "'c2sc' Capitals to Small Capitals lookup 5 subtable" Otilde.sc
EndChar

StartChar: Oacute
Encoding: 211 211 167
Width: 1498
Flags: W
LayerCount: 2
Fore
SplineSet
749 1467 m 0
 1158 1467 1414 1179 1414 721 c 0
 1414 263 1158 -24 749 -24 c 0
 340 -24 84 263 84 721 c 0
 84 1179 340 1467 749 1467 c 0
749 1301 m 0
 454 1301 269 1077 269 721 c 0
 269 366 454 142 749 142 c 0
 1044 142 1229 366 1229 721 c 0
 1229 1077 1044 1301 749 1301 c 0
839 1560 m 1
 685 1560 l 1
 905 1849 l 1
 1099 1849 l 1
 839 1560 l 1
EndSplineSet
Substitution2: "'c2sc' Capitals to Small Capitals lookup 5 subtable" Oacute.sc
EndChar

StartChar: Ocircumflex
Encoding: 212 212 168
Width: 1498
Flags: W
LayerCount: 2
Fore
SplineSet
749 1467 m 0
 1158 1467 1414 1179 1414 721 c 0
 1414 263 1158 -24 749 -24 c 0
 340 -24 84 263 84 721 c 0
 84 1179 340 1467 749 1467 c 0
749 1301 m 0
 454 1301 269 1077 269 721 c 0
 269 366 454 142 749 142 c 0
 1044 142 1229 366 1229 721 c 0
 1229 1077 1044 1301 749 1301 c 0
682 1838 m 1
 816 1838 l 1
 1099 1540 l 1
 933 1540 l 1
 752 1732 l 1
 746 1732 l 1
 565 1540 l 1
 399 1540 l 1
 682 1838 l 1
EndSplineSet
Substitution2: "'c2sc' Capitals to Small Capitals lookup 5 subtable" Ocircumflex.sc
EndChar

StartChar: Ograve
Encoding: 210 210 169
Width: 1498
Flags: W
LayerCount: 2
Fore
SplineSet
749 1467 m 0
 1158 1467 1414 1179 1414 721 c 0
 1414 263 1158 -24 749 -24 c 0
 340 -24 84 263 84 721 c 0
 84 1179 340 1467 749 1467 c 0
749 1301 m 0
 454 1301 269 1077 269 721 c 0
 269 366 454 142 749 142 c 0
 1044 142 1229 366 1229 721 c 0
 1229 1077 1044 1301 749 1301 c 0
659 1560 m 1
 399 1849 l 1
 593 1849 l 1
 813 1560 l 1
 659 1560 l 1
EndSplineSet
Substitution2: "'c2sc' Capitals to Small Capitals lookup 5 subtable" Ograve.sc
EndChar

StartChar: Ocircumflexhookabove
Encoding: 7892 7892 170
Width: 1498
Flags: W
LayerCount: 2
Fore
SplineSet
749 1467 m 0
 1158 1467 1414 1179 1414 721 c 0
 1414 263 1158 -24 749 -24 c 0
 340 -24 84 263 84 721 c 0
 84 1179 340 1467 749 1467 c 0
749 1301 m 0
 454 1301 269 1077 269 721 c 0
 269 366 454 142 749 142 c 0
 1044 142 1229 366 1229 721 c 0
 1229 1077 1044 1301 749 1301 c 0
673 1798 m 1
 825 1798 l 1
 1107 1540 l 1
 933 1540 l 1
 752 1708 l 1
 746 1708 l 1
 565 1540 l 1
 391 1540 l 1
 673 1798 l 1
873 1945 m 1
 873 2031 l 1
 902 2045 943 2053 978 2053 c 0
 1078 2053 1147 1995 1147 1907 c 0
 1147 1836 1103 1772 1033 1750 c 1
 956 1811 l 1
 1003 1827 1034 1862 1034 1901 c 0
 1034 1935 1002 1962 959 1962 c 0
 925 1962 895 1956 873 1945 c 1
EndSplineSet
Substitution2: "'c2sc' Capitals to Small Capitals lookup 5 subtable" Ocircumflexhookabove.sc
EndChar

StartChar: Ocircumflexgrave
Encoding: 7890 7890 171
Width: 1498
Flags: W
LayerCount: 2
Fore
SplineSet
749 1467 m 0
 1158 1467 1414 1179 1414 721 c 0
 1414 263 1158 -24 749 -24 c 0
 340 -24 84 263 84 721 c 0
 84 1179 340 1467 749 1467 c 0
749 1301 m 0
 454 1301 269 1077 269 721 c 0
 269 366 454 142 749 142 c 0
 1044 142 1229 366 1229 721 c 0
 1229 1077 1044 1301 749 1301 c 0
673 1798 m 1
 825 1798 l 1
 1107 1540 l 1
 933 1540 l 1
 752 1708 l 1
 746 1708 l 1
 565 1540 l 1
 391 1540 l 1
 673 1798 l 1
1111 1830 m 1
 965 1830 l 1
 773 2046 l 1
 943 2046 l 1
 1111 1830 l 1
EndSplineSet
Substitution2: "'c2sc' Capitals to Small Capitals lookup 5 subtable" Ocircumflexgrave.sc
EndChar

StartChar: Odotbelow
Encoding: 7884 7884 172
Width: 1498
Flags: W
LayerCount: 2
Fore
SplineSet
749 1467 m 0
 1158 1467 1414 1179 1414 721 c 0
 1414 263 1158 -24 749 -24 c 0
 340 -24 84 263 84 721 c 0
 84 1179 340 1467 749 1467 c 0
749 1301 m 0
 454 1301 269 1077 269 721 c 0
 269 366 454 142 749 142 c 0
 1044 142 1229 366 1229 721 c 0
 1229 1077 1044 1301 749 1301 c 0
749 -389 m 0
 682 -389 628 -335 628 -268 c 0
 628 -201 682 -147 749 -147 c 0
 816 -147 870 -201 870 -268 c 0
 870 -335 816 -389 749 -389 c 0
EndSplineSet
Substitution2: "'c2sc' Capitals to Small Capitals lookup 5 subtable" Odotbelow.sc
EndChar

StartChar: Odblgrave
Encoding: 524 524 173
Width: 1498
Flags: W
LayerCount: 2
Fore
SplineSet
749 1467 m 0
 1158 1467 1414 1179 1414 721 c 0
 1414 263 1158 -24 749 -24 c 0
 340 -24 84 263 84 721 c 0
 84 1179 340 1467 749 1467 c 0
749 1301 m 0
 454 1301 269 1077 269 721 c 0
 269 366 454 142 749 142 c 0
 1044 142 1229 366 1229 721 c 0
 1229 1077 1044 1301 749 1301 c 0
819 1560 m 1
 559 1849 l 1
 753 1849 l 1
 973 1560 l 1
 819 1560 l 1
499 1560 m 1
 239 1849 l 1
 433 1849 l 1
 653 1560 l 1
 499 1560 l 1
EndSplineSet
Substitution2: "'c2sc' Capitals to Small Capitals lookup 5 subtable" Odblgrave.sc
EndChar

StartChar: Otildeacute
Encoding: 7756 7756 174
Width: 1498
Flags: W
LayerCount: 2
Fore
SplineSet
749 1467 m 0
 1158 1467 1414 1179 1414 721 c 0
 1414 263 1158 -24 749 -24 c 0
 340 -24 84 263 84 721 c 0
 84 1179 340 1467 749 1467 c 0
749 1301 m 0
 454 1301 269 1077 269 721 c 0
 269 366 454 142 749 142 c 0
 1044 142 1229 366 1229 721 c 0
 1229 1077 1044 1301 749 1301 c 0
875 1542 m 0
 748 1542 700 1690 624 1690 c 0
 580 1690 551 1642 555 1561 c 1
 444 1561 l 1
 444 1711 516 1799 625 1799 c 0
 750 1799 798 1651 876 1651 c 0
 918 1651 943 1697 943 1781 c 1
 1054 1781 l 1
 1054 1635 979 1542 875 1542 c 0
683 1850 m 1
 851 2046 l 1
 1021 2046 l 1
 829 1850 l 1
 683 1850 l 1
EndSplineSet
Substitution2: "'c2sc' Capitals to Small Capitals lookup 5 subtable" Otildeacute.sc
EndChar

StartChar: Omacronacute
Encoding: 7762 7762 175
Width: 1498
Flags: W
LayerCount: 2
Fore
SplineSet
749 1467 m 0
 1158 1467 1414 1179 1414 721 c 0
 1414 263 1158 -24 749 -24 c 0
 340 -24 84 263 84 721 c 0
 84 1179 340 1467 749 1467 c 0
749 1301 m 0
 454 1301 269 1077 269 721 c 0
 269 366 454 142 749 142 c 0
 1044 142 1229 366 1229 721 c 0
 1229 1077 1044 1301 749 1301 c 0
1066 1592 m 1
 432 1592 l 1
 432 1708 l 1
 1066 1708 l 1
 1066 1592 l 1
683 1830 m 1
 851 2046 l 1
 1021 2046 l 1
 829 1830 l 1
 683 1830 l 1
EndSplineSet
Substitution2: "'c2sc' Capitals to Small Capitals lookup 5 subtable" Omacronacute.sc
EndChar

StartChar: Ocircumflextilde
Encoding: 7894 7894 176
Width: 1498
Flags: W
LayerCount: 2
Fore
SplineSet
749 1467 m 0
 1158 1467 1414 1179 1414 721 c 0
 1414 263 1158 -24 749 -24 c 0
 340 -24 84 263 84 721 c 0
 84 1179 340 1467 749 1467 c 0
749 1301 m 0
 454 1301 269 1077 269 721 c 0
 269 366 454 142 749 142 c 0
 1044 142 1229 366 1229 721 c 0
 1229 1077 1044 1301 749 1301 c 0
869 1836 m 0
 733 1836 701 1965 633 1965 c 0
 588 1965 559 1926 555 1859 c 1
 438 1859 l 1
 438 1979 510 2066 629 2066 c 0
 765 2066 797 1940 865 1940 c 0
 905 1940 938 1977 943 2043 c 1
 1060 2043 l 1
 1060 1926 981 1836 869 1836 c 0
673 1788 m 1
 825 1788 l 1
 1107 1540 l 1
 933 1540 l 1
 752 1700 l 1
 746 1700 l 1
 565 1540 l 1
 391 1540 l 1
 673 1788 l 1
EndSplineSet
Substitution2: "'c2sc' Capitals to Small Capitals lookup 5 subtable" Ocircumflextilde.sc
EndChar

StartChar: Odotaccentmacron
Encoding: 560 560 177
Width: 1498
Flags: W
LayerCount: 2
Fore
SplineSet
749 1467 m 0
 1158 1467 1414 1179 1414 721 c 0
 1414 263 1158 -24 749 -24 c 0
 340 -24 84 263 84 721 c 0
 84 1179 340 1467 749 1467 c 0
749 1301 m 0
 454 1301 269 1077 269 721 c 0
 269 366 454 142 749 142 c 0
 1044 142 1229 366 1229 721 c 0
 1229 1077 1044 1301 749 1301 c 0
749 1574 m 0
 684 1574 632 1626 632 1691 c 0
 632 1754 684 1806 749 1806 c 0
 814 1806 866 1754 866 1691 c 0
 866 1626 814 1574 749 1574 c 0
1066 2025 m 1
 1066 1909 l 1
 432 1909 l 1
 432 2025 l 1
 1066 2025 l 1
EndSplineSet
Substitution2: "'c2sc' Capitals to Small Capitals lookup 5 subtable" Odotaccentmacron.sc
EndChar

StartChar: Omacrongrave
Encoding: 7760 7760 178
Width: 1498
Flags: W
LayerCount: 2
Fore
SplineSet
749 1467 m 0
 1158 1467 1414 1179 1414 721 c 0
 1414 263 1158 -24 749 -24 c 0
 340 -24 84 263 84 721 c 0
 84 1179 340 1467 749 1467 c 0
749 1301 m 0
 454 1301 269 1077 269 721 c 0
 269 366 454 142 749 142 c 0
 1044 142 1229 366 1229 721 c 0
 1229 1077 1044 1301 749 1301 c 0
432 1592 m 1
 432 1708 l 1
 1066 1708 l 1
 1066 1592 l 1
 432 1592 l 1
821 1830 m 1
 675 1830 l 1
 483 2046 l 1
 653 2046 l 1
 821 1830 l 1
EndSplineSet
Substitution2: "'c2sc' Capitals to Small Capitals lookup 5 subtable" Omacrongrave.sc
EndChar

StartChar: Ocaron
Encoding: 465 465 179
Width: 1498
Flags: W
LayerCount: 2
Fore
SplineSet
749 1467 m 0
 1158 1467 1414 1179 1414 721 c 0
 1414 263 1158 -24 749 -24 c 0
 340 -24 84 263 84 721 c 0
 84 1179 340 1467 749 1467 c 0
749 1301 m 0
 454 1301 269 1077 269 721 c 0
 269 366 454 142 749 142 c 0
 1044 142 1229 366 1229 721 c 0
 1229 1077 1044 1301 749 1301 c 0
682 1550 m 1
 399 1848 l 1
 565 1848 l 1
 746 1656 l 1
 752 1656 l 1
 933 1848 l 1
 1099 1848 l 1
 816 1550 l 1
 682 1550 l 1
EndSplineSet
Substitution2: "'c2sc' Capitals to Small Capitals lookup 5 subtable" Ocaron.sc
EndChar

StartChar: Oslashacute
Encoding: 510 510 180
Width: 1498
Flags: W
LayerCount: 2
Fore
SplineSet
1126 1849 m 1
 866 1560 l 1
 712 1560 l 1
 932 1849 l 1
 1126 1849 l 1
1135 1096 m 1
 470 230 l 1
 545 173 640 142 749 142 c 0
 1044 142 1229 366 1229 721 c 0
 1229 872 1196 1000 1135 1096 c 1
382 319 m 1
 1055 1191 l 1
 976 1262 872 1301 749 1301 c 0
 454 1301 269 1077 269 721 c 0
 269 555 309 418 382 319 c 1
1382 1419 m 1
 1250 1247 l 1
 1356 1119 1414 939 1414 721 c 0
 1414 263 1158 -24 749 -24 c 0
 597 -24 466 16 362 89 c 1
 258 -47 l 1
 158 29 l 1
 268 171 l 1
 150 301 84 489 84 721 c 0
 84 1179 340 1467 749 1467 c 0
 915 1467 1056 1420 1164 1333 c 1
 1284 1488 l 1
 1382 1419 l 1
EndSplineSet
Substitution2: "'c2sc' Capitals to Small Capitals lookup 5 subtable" Oslashacute.sc
EndChar

StartChar: Ohungarumlaut
Encoding: 336 336 181
Width: 1498
Flags: W
LayerCount: 2
Fore
SplineSet
749 1467 m 0
 1158 1467 1414 1179 1414 721 c 0
 1414 263 1158 -24 749 -24 c 0
 340 -24 84 263 84 721 c 0
 84 1179 340 1467 749 1467 c 0
749 1301 m 0
 454 1301 269 1077 269 721 c 0
 269 366 454 142 749 142 c 0
 1044 142 1229 366 1229 721 c 0
 1229 1077 1044 1301 749 1301 c 0
999 1560 m 1
 845 1560 l 1
 1065 1849 l 1
 1259 1849 l 1
 999 1560 l 1
679 1560 m 1
 525 1560 l 1
 745 1849 l 1
 939 1849 l 1
 679 1560 l 1
EndSplineSet
Substitution2: "'c2sc' Capitals to Small Capitals lookup 5 subtable" Ohungarumlaut.sc
EndChar

StartChar: Obreve
Encoding: 334 334 182
Width: 1498
Flags: W
LayerCount: 2
Fore
SplineSet
749 1467 m 0
 1158 1467 1414 1179 1414 721 c 0
 1414 263 1158 -24 749 -24 c 0
 340 -24 84 263 84 721 c 0
 84 1179 340 1467 749 1467 c 0
749 1301 m 0
 454 1301 269 1077 269 721 c 0
 269 366 454 142 749 142 c 0
 1044 142 1229 366 1229 721 c 0
 1229 1077 1044 1301 749 1301 c 0
428 1848 m 1
 555 1848 l 1
 567 1727 644 1654 749 1654 c 0
 854 1654 931 1727 943 1848 c 1
 1070 1848 l 1
 1057 1684 941 1542 749 1542 c 0
 557 1542 441 1684 428 1848 c 1
EndSplineSet
Substitution2: "'c2sc' Capitals to Small Capitals lookup 5 subtable" Obreve.sc
EndChar

StartChar: Oinvertedbreve
Encoding: 526 526 183
Width: 1498
Flags: W
LayerCount: 2
Fore
SplineSet
749 1467 m 0
 1158 1467 1414 1179 1414 721 c 0
 1414 263 1158 -24 749 -24 c 0
 340 -24 84 263 84 721 c 0
 84 1179 340 1467 749 1467 c 0
749 1301 m 0
 454 1301 269 1077 269 721 c 0
 269 366 454 142 749 142 c 0
 1044 142 1229 366 1229 721 c 0
 1229 1077 1044 1301 749 1301 c 0
428 1542 m 1
 441 1706 557 1848 749 1848 c 0
 941 1848 1057 1706 1070 1542 c 1
 943 1542 l 1
 931 1663 854 1736 749 1736 c 0
 644 1736 567 1663 555 1542 c 1
 428 1542 l 1
EndSplineSet
Substitution2: "'c2sc' Capitals to Small Capitals lookup 5 subtable" Oinvertedbreve.sc
EndChar

StartChar: Ohookabove
Encoding: 7886 7886 184
Width: 1498
Flags: W
LayerCount: 2
Fore
SplineSet
749 1467 m 0
 1158 1467 1414 1179 1414 721 c 0
 1414 263 1158 -24 749 -24 c 0
 340 -24 84 263 84 721 c 0
 84 1179 340 1467 749 1467 c 0
749 1301 m 0
 454 1301 269 1077 269 721 c 0
 269 366 454 142 749 142 c 0
 1044 142 1229 366 1229 721 c 0
 1229 1077 1044 1301 749 1301 c 0
589 1753 m 1
 589 1849 l 1
 623 1864 667 1871 710 1871 c 0
 824 1871 905 1809 905 1711 c 0
 905 1630 841 1559 746 1527 c 1
 686 1605 l 1
 740 1622 776 1661 776 1704 c 0
 776 1742 739 1772 689 1772 c 0
 656 1772 618 1766 589 1753 c 1
EndSplineSet
Substitution2: "'c2sc' Capitals to Small Capitals lookup 5 subtable" Ohookabove.sc
EndChar

StartChar: Odieresismacron
Encoding: 554 554 185
Width: 1498
Flags: W
LayerCount: 2
Fore
SplineSet
749 1467 m 0
 1158 1467 1414 1179 1414 721 c 0
 1414 263 1158 -24 749 -24 c 0
 340 -24 84 263 84 721 c 0
 84 1179 340 1467 749 1467 c 0
749 1301 m 0
 454 1301 269 1077 269 721 c 0
 269 366 454 142 749 142 c 0
 1044 142 1229 366 1229 721 c 0
 1229 1077 1044 1301 749 1301 c 0
572 1766 m 0
 629 1766 676 1719 676 1660 c 0
 676 1601 629 1554 572 1554 c 0
 514 1554 467 1601 467 1660 c 0
 467 1719 514 1766 572 1766 c 0
432 2025 m 1
 1066 2025 l 1
 1066 1909 l 1
 432 1909 l 1
 432 2025 l 1
926 1766 m 0
 984 1766 1031 1719 1031 1660 c 0
 1031 1601 984 1554 926 1554 c 0
 869 1554 822 1601 822 1660 c 0
 822 1719 869 1766 926 1766 c 0
EndSplineSet
Substitution2: "'c2sc' Capitals to Small Capitals lookup 5 subtable" Odieresismacron.sc
EndChar

StartChar: Otildemacron
Encoding: 556 556 186
Width: 1498
Flags: W
LayerCount: 2
Fore
SplineSet
749 1467 m 0
 1158 1467 1414 1179 1414 721 c 0
 1414 263 1158 -24 749 -24 c 0
 340 -24 84 263 84 721 c 0
 84 1179 340 1467 749 1467 c 0
749 1301 m 0
 454 1301 269 1077 269 721 c 0
 269 366 454 142 749 142 c 0
 1044 142 1229 366 1229 721 c 0
 1229 1077 1044 1301 749 1301 c 0
875 1542 m 0
 748 1542 700 1690 624 1690 c 0
 580 1690 551 1642 555 1561 c 1
 444 1561 l 1
 444 1711 516 1799 625 1799 c 0
 750 1799 798 1651 876 1651 c 0
 918 1651 943 1697 943 1781 c 1
 1054 1781 l 1
 1054 1635 979 1542 875 1542 c 0
1066 2025 m 1
 1066 1909 l 1
 432 1909 l 1
 432 2025 l 1
 1066 2025 l 1
EndSplineSet
Substitution2: "'c2sc' Capitals to Small Capitals lookup 5 subtable" Otildemacron.sc
EndChar

StartChar: Odotaccent
Encoding: 558 558 187
Width: 1498
Flags: W
LayerCount: 2
Fore
SplineSet
749 1467 m 0
 1158 1467 1414 1179 1414 721 c 0
 1414 263 1158 -24 749 -24 c 0
 340 -24 84 263 84 721 c 0
 84 1179 340 1467 749 1467 c 0
749 1301 m 0
 454 1301 269 1077 269 721 c 0
 269 366 454 142 749 142 c 0
 1044 142 1229 366 1229 721 c 0
 1229 1077 1044 1301 749 1301 c 0
749 1585 m 0
 682 1585 628 1639 628 1706 c 0
 628 1773 682 1827 749 1827 c 0
 816 1827 870 1773 870 1706 c 0
 870 1639 816 1585 749 1585 c 0
EndSplineSet
Substitution2: "'c2sc' Capitals to Small Capitals lookup 5 subtable" Odotaccent.sc
EndChar

StartChar: Ocircumflexdotbelow
Encoding: 7896 7896 188
Width: 1498
Flags: W
LayerCount: 2
Fore
SplineSet
749 1467 m 0
 1158 1467 1414 1179 1414 721 c 0
 1414 263 1158 -24 749 -24 c 0
 340 -24 84 263 84 721 c 0
 84 1179 340 1467 749 1467 c 0
749 1301 m 0
 454 1301 269 1077 269 721 c 0
 269 366 454 142 749 142 c 0
 1044 142 1229 366 1229 721 c 0
 1229 1077 1044 1301 749 1301 c 0
682 1838 m 1
 816 1838 l 1
 1099 1540 l 1
 933 1540 l 1
 752 1732 l 1
 746 1732 l 1
 565 1540 l 1
 399 1540 l 1
 682 1838 l 1
749 -389 m 0
 682 -389 628 -335 628 -268 c 0
 628 -201 682 -147 749 -147 c 0
 816 -147 870 -201 870 -268 c 0
 870 -335 816 -389 749 -389 c 0
EndSplineSet
Substitution2: "'c2sc' Capitals to Small Capitals lookup 5 subtable" Ocircumflexdotbelow.sc
EndChar

StartChar: Ocircumflexacute
Encoding: 7888 7888 189
Width: 1498
Flags: W
LayerCount: 2
Fore
SplineSet
749 1467 m 0
 1158 1467 1414 1179 1414 721 c 0
 1414 263 1158 -24 749 -24 c 0
 340 -24 84 263 84 721 c 0
 84 1179 340 1467 749 1467 c 0
749 1301 m 0
 454 1301 269 1077 269 721 c 0
 269 366 454 142 749 142 c 0
 1044 142 1229 366 1229 721 c 0
 1229 1077 1044 1301 749 1301 c 0
673 1798 m 1
 825 1798 l 1
 1107 1540 l 1
 933 1540 l 1
 752 1708 l 1
 746 1708 l 1
 565 1540 l 1
 391 1540 l 1
 673 1798 l 1
923 1830 m 1
 1091 2046 l 1
 1261 2046 l 1
 1069 1830 l 1
 923 1830 l 1
EndSplineSet
Substitution2: "'c2sc' Capitals to Small Capitals lookup 5 subtable" Ocircumflexacute.sc
EndChar

StartChar: Otildedieresis
Encoding: 7758 7758 190
Width: 1498
Flags: W
LayerCount: 2
Fore
SplineSet
749 1467 m 0
 1158 1467 1414 1179 1414 721 c 0
 1414 263 1158 -24 749 -24 c 0
 340 -24 84 263 84 721 c 0
 84 1179 340 1467 749 1467 c 0
749 1301 m 0
 454 1301 269 1077 269 721 c 0
 269 366 454 142 749 142 c 0
 1044 142 1229 366 1229 721 c 0
 1229 1077 1044 1301 749 1301 c 0
875 1545 m 0
 748 1545 700 1690 624 1690 c 0
 580 1690 551 1643 555 1563 c 1
 444 1563 l 1
 444 1710 516 1796 625 1796 c 0
 750 1796 798 1651 876 1651 c 0
 918 1651 943 1696 943 1779 c 1
 1054 1779 l 1
 1054 1636 979 1545 875 1545 c 0
572 2076 m 0
 629 2076 676 2029 676 1970 c 0
 676 1911 629 1864 572 1864 c 0
 514 1864 467 1911 467 1970 c 0
 467 2029 514 2076 572 2076 c 0
926 2076 m 0
 984 2076 1031 2029 1031 1970 c 0
 1031 1911 984 1864 926 1864 c 0
 869 1864 822 1911 822 1970 c 0
 822 2029 869 2076 926 2076 c 0
EndSplineSet
Substitution2: "'c2sc' Capitals to Small Capitals lookup 5 subtable" Otildedieresis.sc
EndChar

StartChar: Omacron
Encoding: 332 332 191
Width: 1498
Flags: W
LayerCount: 2
Fore
SplineSet
749 1467 m 0
 1158 1467 1414 1179 1414 721 c 0
 1414 263 1158 -24 749 -24 c 0
 340 -24 84 263 84 721 c 0
 84 1179 340 1467 749 1467 c 0
749 1301 m 0
 454 1301 269 1077 269 721 c 0
 269 366 454 142 749 142 c 0
 1044 142 1229 366 1229 721 c 0
 1229 1077 1044 1301 749 1301 c 0
1066 1750 m 1
 1066 1634 l 1
 432 1634 l 1
 432 1750 l 1
 1066 1750 l 1
EndSplineSet
Substitution2: "'c2sc' Capitals to Small Capitals lookup 5 subtable" Omacron.sc
EndChar

StartChar: Oogonek
Encoding: 490 490 192
Width: 1498
Flags: W
LayerCount: 2
Fore
SplineSet
980 -430 m 0
 850 -430 752 -355 752 -242 c 0
 752 -154 802 -76 890 -10 c 1
 890 -6 l 1
 850 -14 793 -24 749 -24 c 0
 340 -24 84 263 84 721 c 0
 84 1179 340 1467 749 1467 c 0
 1158 1467 1414 1179 1414 721 c 0
 1414 428 1308 220 1080 22 c 0
 974 -70 898 -136 898 -206 c 0
 898 -271 952 -301 1017 -301 c 0
 1045 -301 1074 -297 1098 -292 c 1
 1098 -413 l 1
 1080 -422 1035 -430 980 -430 c 0
749 1301 m 0
 454 1301 269 1077 269 721 c 0
 269 366 454 142 749 142 c 0
 1044 142 1229 366 1229 721 c 0
 1229 1077 1044 1301 749 1301 c 0
EndSplineSet
Substitution2: "'c2sc' Capitals to Small Capitals lookup 5 subtable" Oogonek.sc
EndChar

StartChar: Oogonekmacron
Encoding: 492 492 193
Width: 1497
Flags: W
LayerCount: 2
Fore
SplineSet
980 -430 m 0
 850 -430 752 -355 752 -242 c 0
 752 -154 802 -76 890 -10 c 1
 890 -6 l 1
 850 -14 793 -24 749 -24 c 0
 340 -24 84 263 84 721 c 0
 84 1179 340 1467 749 1467 c 0
 1158 1467 1414 1179 1414 721 c 0
 1414 428 1308 220 1080 22 c 0
 974 -70 898 -136 898 -206 c 0
 898 -271 952 -301 1017 -301 c 0
 1045 -301 1074 -297 1098 -292 c 1
 1098 -413 l 1
 1080 -422 1035 -430 980 -430 c 0
749 1301 m 0
 454 1301 269 1077 269 721 c 0
 269 366 454 142 749 142 c 0
 1044 142 1229 366 1229 721 c 0
 1229 1077 1044 1301 749 1301 c 0
1066 1750 m 1
 1066 1634 l 1
 432 1634 l 1
 432 1750 l 1
 1066 1750 l 1
EndSplineSet
Substitution2: "'c2sc' Capitals to Small Capitals lookup 5 subtable" Oogonekmacron.sc
EndChar

StartChar: Ohorn
Encoding: 416 416 194
Width: 1498
Flags: W
LayerCount: 2
Fore
SplineSet
749 -24 m 0
 340 -24 84 263 84 721 c 0
 84 1179 340 1467 749 1467 c 0
 898 1467 1015 1427 1165 1427 c 0
 1246 1427 1274 1451 1274 1520 c 2
 1274 1660 l 1
 1433 1660 l 1
 1433 1468 l 2
 1433 1367 1359 1297 1251 1297 c 2
 1192 1297 l 1
 1192 1291 l 1
 1319 1201 1414 958 1414 721 c 0
 1414 263 1158 -24 749 -24 c 0
749 142 m 0
 1044 142 1229 366 1229 721 c 0
 1229 1078 1044 1301 749 1301 c 0
 454 1301 269 1077 269 721 c 0
 269 366 454 142 749 142 c 0
EndSplineSet
Substitution2: "'c2sc' Capitals to Small Capitals lookup 5 subtable" Ohorn.sc
EndChar

StartChar: Ohorndotbelow
Encoding: 7906 7906 195
Width: 1498
Flags: W
LayerCount: 2
Fore
SplineSet
749 -24 m 0
 340 -24 84 263 84 721 c 0
 84 1179 340 1467 749 1467 c 0
 898 1467 1015 1427 1165 1427 c 0
 1246 1427 1274 1451 1274 1520 c 2
 1274 1660 l 1
 1433 1660 l 1
 1433 1468 l 2
 1433 1367 1359 1297 1251 1297 c 2
 1192 1297 l 1
 1192 1291 l 1
 1319 1201 1414 958 1414 721 c 0
 1414 263 1158 -24 749 -24 c 0
749 142 m 0
 1044 142 1229 366 1229 721 c 0
 1229 1078 1044 1301 749 1301 c 0
 454 1301 269 1077 269 721 c 0
 269 366 454 142 749 142 c 0
749 -389 m 0
 682 -389 628 -335 628 -268 c 0
 628 -201 682 -147 749 -147 c 0
 816 -147 870 -201 870 -268 c 0
 870 -335 816 -389 749 -389 c 0
EndSplineSet
Substitution2: "'c2sc' Capitals to Small Capitals lookup 5 subtable" Ohorndotbelow.sc
EndChar

StartChar: Ohornhookabove
Encoding: 7902 7902 196
Width: 1498
Flags: W
LayerCount: 2
Fore
SplineSet
749 -24 m 0
 340 -24 84 263 84 721 c 0
 84 1179 340 1467 749 1467 c 0
 898 1467 1015 1427 1165 1427 c 0
 1246 1427 1274 1451 1274 1520 c 2
 1274 1660 l 1
 1433 1660 l 1
 1433 1468 l 2
 1433 1367 1359 1297 1251 1297 c 2
 1192 1297 l 1
 1192 1291 l 1
 1319 1201 1414 958 1414 721 c 0
 1414 263 1158 -24 749 -24 c 0
749 142 m 0
 1044 142 1229 366 1229 721 c 0
 1229 1078 1044 1301 749 1301 c 0
 454 1301 269 1077 269 721 c 0
 269 366 454 142 749 142 c 0
589 1753 m 1
 589 1849 l 1
 623 1864 667 1871 710 1871 c 0
 824 1871 905 1809 905 1711 c 0
 905 1630 841 1559 746 1527 c 1
 686 1605 l 1
 740 1622 776 1661 776 1704 c 0
 776 1742 739 1772 689 1772 c 0
 656 1772 618 1766 589 1753 c 1
EndSplineSet
Substitution2: "'c2sc' Capitals to Small Capitals lookup 5 subtable" Ohornhookabove.sc
EndChar

StartChar: Ohorntilde
Encoding: 7904 7904 197
Width: 1498
Flags: W
LayerCount: 2
Fore
SplineSet
749 -24 m 0
 340 -24 84 263 84 721 c 0
 84 1179 340 1467 749 1467 c 0
 898 1467 1015 1427 1165 1427 c 0
 1246 1427 1274 1451 1274 1520 c 2
 1274 1660 l 1
 1433 1660 l 1
 1433 1468 l 2
 1433 1367 1359 1297 1251 1297 c 2
 1192 1297 l 1
 1192 1291 l 1
 1319 1201 1414 958 1414 721 c 0
 1414 263 1158 -24 749 -24 c 0
749 142 m 0
 1044 142 1229 366 1229 721 c 0
 1229 1078 1044 1301 749 1301 c 0
 454 1301 269 1077 269 721 c 0
 269 366 454 142 749 142 c 0
880 1580 m 0
 748 1580 698 1732 619 1732 c 0
 573 1732 544 1683 548 1590 c 1
 430 1590 l 1
 430 1754 506 1845 620 1845 c 0
 761 1845 806 1693 881 1693 c 0
 923 1693 950 1740 950 1836 c 1
 1068 1836 l 1
 1068 1676 989 1580 880 1580 c 0
EndSplineSet
Substitution2: "'c2sc' Capitals to Small Capitals lookup 5 subtable" Ohorntilde.sc
EndChar

StartChar: Ohorngrave
Encoding: 7900 7900 198
Width: 1498
Flags: W
LayerCount: 2
Fore
SplineSet
749 -24 m 0
 340 -24 84 263 84 721 c 0
 84 1179 340 1467 749 1467 c 0
 898 1467 1015 1427 1165 1427 c 0
 1246 1427 1274 1451 1274 1520 c 2
 1274 1660 l 1
 1433 1660 l 1
 1433 1468 l 2
 1433 1367 1359 1297 1251 1297 c 2
 1192 1297 l 1
 1192 1291 l 1
 1319 1201 1414 958 1414 721 c 0
 1414 263 1158 -24 749 -24 c 0
749 142 m 0
 1044 142 1229 366 1229 721 c 0
 1229 1078 1044 1301 749 1301 c 0
 454 1301 269 1077 269 721 c 0
 269 366 454 142 749 142 c 0
659 1560 m 1
 399 1849 l 1
 593 1849 l 1
 813 1560 l 1
 659 1560 l 1
EndSplineSet
Substitution2: "'c2sc' Capitals to Small Capitals lookup 5 subtable" Ohorngrave.sc
EndChar

StartChar: Ohornacute
Encoding: 7898 7898 199
Width: 1498
Flags: W
LayerCount: 2
Fore
SplineSet
749 -24 m 0
 340 -24 84 263 84 721 c 0
 84 1179 340 1467 749 1467 c 0
 898 1467 1015 1427 1165 1427 c 0
 1246 1427 1274 1451 1274 1520 c 2
 1274 1660 l 1
 1433 1660 l 1
 1433 1468 l 2
 1433 1367 1359 1297 1251 1297 c 2
 1192 1297 l 1
 1192 1291 l 1
 1319 1201 1414 958 1414 721 c 0
 1414 263 1158 -24 749 -24 c 0
749 142 m 0
 1044 142 1229 366 1229 721 c 0
 1229 1078 1044 1301 749 1301 c 0
 454 1301 269 1077 269 721 c 0
 269 366 454 142 749 142 c 0
839 1560 m 1
 685 1560 l 1
 905 1849 l 1
 1099 1849 l 1
 839 1560 l 1
EndSplineSet
Substitution2: "'c2sc' Capitals to Small Capitals lookup 5 subtable" Ohornacute.sc
EndChar

StartChar: P
Encoding: 80 80 200
Width: 1183
Flags: W
LayerCount: 2
Fore
SplineSet
140 1443 m 1
 655 1443 l 2
 926 1443 1117 1253 1117 980 c 0
 1117 706 924 515 653 515 c 2
 320 515 l 1
 320 0 l 1
 140 0 l 1
 140 1443 l 1
320 1283 m 1
 320 675 l 1
 608 675 l 2
 814 675 932 788 932 980 c 0
 932 1171 815 1283 608 1283 c 2
 320 1283 l 1
EndSplineSet
Substitution2: "'c2sc' Capitals to Small Capitals lookup 5 subtable" P.sc
EndChar

StartChar: Pdotaccent
Encoding: 7766 7766 201
Width: 1183
Flags: W
LayerCount: 2
Fore
SplineSet
140 1443 m 1
 655 1443 l 2
 926 1443 1117 1253 1117 980 c 0
 1117 706 924 515 653 515 c 2
 320 515 l 1
 320 0 l 1
 140 0 l 1
 140 1443 l 1
320 1283 m 1
 320 675 l 1
 608 675 l 2
 814 675 932 788 932 980 c 0
 932 1171 815 1283 608 1283 c 2
 320 1283 l 1
505 1585 m 0
 438 1585 384 1639 384 1706 c 0
 384 1773 438 1827 505 1827 c 0
 572 1827 626 1773 626 1706 c 0
 626 1639 572 1585 505 1585 c 0
EndSplineSet
Substitution2: "'c2sc' Capitals to Small Capitals lookup 5 subtable" Pdotaccent.sc
EndChar

StartChar: Pacute
Encoding: 7764 7764 202
Width: 1183
Flags: W
LayerCount: 2
Fore
SplineSet
140 1443 m 1
 655 1443 l 2
 926 1443 1117 1253 1117 980 c 0
 1117 706 924 515 653 515 c 2
 320 515 l 1
 320 0 l 1
 140 0 l 1
 140 1443 l 1
320 1283 m 1
 320 675 l 1
 608 675 l 2
 814 675 932 788 932 980 c 0
 932 1171 815 1283 608 1283 c 2
 320 1283 l 1
595 1560 m 1
 441 1560 l 1
 661 1849 l 1
 855 1849 l 1
 595 1560 l 1
EndSplineSet
Substitution2: "'c2sc' Capitals to Small Capitals lookup 5 subtable" Pacute.sc
EndChar

StartChar: Q
Encoding: 81 81 203
Width: 1498
Flags: W
LayerCount: 2
Fore
SplineSet
749 -24 m 0
 340 -24 84 263 84 721 c 0
 84 1179 340 1467 749 1467 c 0
 1158 1467 1414 1179 1414 721 c 0
 1414 442 1319 226 1152 100 c 1
 1343 -163 l 1
 1141 -163 l 1
 1007 21 l 1
 930 -9 844 -24 749 -24 c 0
749 142 m 0
 804 142 855 150 902 165 c 1
 722 413 l 1
 924 413 l 1
 1047 245 l 1
 1163 343 1229 509 1229 721 c 0
 1229 1077 1044 1301 749 1301 c 0
 454 1301 269 1077 269 721 c 0
 269 366 454 142 749 142 c 0
EndSplineSet
Substitution2: "'c2sc' Capitals to Small Capitals lookup 5 subtable" Q.sc
EndChar

StartChar: R
Encoding: 82 82 204
Width: 1227
Flags: W
LayerCount: 2
Fore
SplineSet
320 1283 m 1
 320 730 l 1
 665 730 l 2
 850 730 955 830 955 1007 c 0
 955 1180 843 1283 657 1283 c 2
 320 1283 l 1
320 571 m 1
 320 0 l 1
 140 0 l 1
 140 1443 l 1
 681 1443 l 2
 959 1443 1141 1273 1141 1013 c 0
 1141 812 1032 656 851 599 c 1
 1185 0 l 1
 974 0 l 1
 665 571 l 1
 665 571 l 1
 320 571 l 1
EndSplineSet
Substitution2: "'c2sc' Capitals to Small Capitals lookup 5 subtable" R.sc
EndChar

StartChar: Rcaron
Encoding: 344 344 205
Width: 1227
Flags: W
LayerCount: 2
Fore
SplineSet
320 1283 m 1
 320 730 l 1
 665 730 l 2
 850 730 955 830 955 1007 c 0
 955 1180 843 1283 657 1283 c 2
 320 1283 l 1
320 571 m 1
 320 0 l 1
 140 0 l 1
 140 1443 l 1
 681 1443 l 2
 959 1443 1141 1273 1141 1013 c 0
 1141 812 1032 656 851 599 c 1
 1185 0 l 1
 974 0 l 1
 665 571 l 1
 665 571 l 1
 320 571 l 1
468 1550 m 1
 185 1848 l 1
 351 1848 l 1
 532 1656 l 1
 538 1656 l 1
 719 1848 l 1
 885 1848 l 1
 602 1550 l 1
 468 1550 l 1
EndSplineSet
Substitution2: "'c2sc' Capitals to Small Capitals lookup 5 subtable" Rcaron.sc
EndChar

StartChar: Rlinebelow
Encoding: 7774 7774 206
Width: 1227
Flags: W
LayerCount: 2
Fore
SplineSet
320 1283 m 1
 320 730 l 1
 665 730 l 2
 850 730 955 830 955 1007 c 0
 955 1180 843 1283 657 1283 c 2
 320 1283 l 1
320 571 m 1
 320 0 l 1
 140 0 l 1
 140 1443 l 1
 681 1443 l 2
 959 1443 1141 1273 1141 1013 c 0
 1141 812 1032 656 851 599 c 1
 1185 0 l 1
 974 0 l 1
 665 571 l 1
 665 571 l 1
 320 571 l 1
852 -217 m 1
 852 -333 l 1
 218 -333 l 1
 218 -217 l 1
 852 -217 l 1
EndSplineSet
Substitution2: "'c2sc' Capitals to Small Capitals lookup 5 subtable" Rlinebelow.sc
EndChar

StartChar: Rdotbelowmacron
Encoding: 7772 7772 207
Width: 1227
Flags: W
LayerCount: 2
Fore
SplineSet
320 1283 m 1
 320 730 l 1
 665 730 l 2
 850 730 955 830 955 1007 c 0
 955 1180 843 1283 657 1283 c 2
 320 1283 l 1
320 571 m 1
 320 0 l 1
 140 0 l 1
 140 1443 l 1
 681 1443 l 2
 959 1443 1141 1273 1141 1013 c 0
 1141 812 1032 656 851 599 c 1
 1185 0 l 1
 974 0 l 1
 665 571 l 1
 665 571 l 1
 320 571 l 1
535 -389 m 0
 468 -389 414 -335 414 -268 c 0
 414 -201 468 -147 535 -147 c 0
 602 -147 656 -201 656 -268 c 0
 656 -335 602 -389 535 -389 c 0
852 1750 m 1
 852 1634 l 1
 218 1634 l 1
 218 1750 l 1
 852 1750 l 1
EndSplineSet
Substitution2: "'c2sc' Capitals to Small Capitals lookup 5 subtable" Rdotbelowmacron.sc
EndChar

StartChar: Rdblgrave
Encoding: 528 528 208
Width: 1227
Flags: W
LayerCount: 2
Fore
SplineSet
320 1283 m 1
 320 730 l 1
 665 730 l 2
 850 730 955 830 955 1007 c 0
 955 1180 843 1283 657 1283 c 2
 320 1283 l 1
320 571 m 1
 320 0 l 1
 140 0 l 1
 140 1443 l 1
 681 1443 l 2
 959 1443 1141 1273 1141 1013 c 0
 1141 812 1032 656 851 599 c 1
 1185 0 l 1
 974 0 l 1
 665 571 l 1
 665 571 l 1
 320 571 l 1
605 1560 m 1
 345 1849 l 1
 539 1849 l 1
 759 1560 l 1
 605 1560 l 1
285 1560 m 1
 25 1849 l 1
 219 1849 l 1
 439 1560 l 1
 285 1560 l 1
EndSplineSet
Substitution2: "'c2sc' Capitals to Small Capitals lookup 5 subtable" Rdblgrave.sc
EndChar

StartChar: Rinvertedbreve
Encoding: 530 530 209
Width: 1227
Flags: W
LayerCount: 2
Fore
SplineSet
320 1283 m 1
 320 730 l 1
 665 730 l 2
 850 730 955 830 955 1007 c 0
 955 1180 843 1283 657 1283 c 2
 320 1283 l 1
320 571 m 1
 320 0 l 1
 140 0 l 1
 140 1443 l 1
 681 1443 l 2
 959 1443 1141 1273 1141 1013 c 0
 1141 812 1032 656 851 599 c 1
 1185 0 l 1
 974 0 l 1
 665 571 l 1
 665 571 l 1
 320 571 l 1
214 1542 m 1
 227 1706 343 1848 535 1848 c 0
 727 1848 843 1706 856 1542 c 1
 729 1542 l 1
 717 1663 640 1736 535 1736 c 0
 430 1736 353 1663 341 1542 c 1
 214 1542 l 1
EndSplineSet
Substitution2: "'c2sc' Capitals to Small Capitals lookup 5 subtable" Rinvertedbreve.sc
EndChar

StartChar: Racute
Encoding: 340 340 210
Width: 1227
Flags: W
LayerCount: 2
Fore
SplineSet
320 1283 m 1
 320 730 l 1
 665 730 l 2
 850 730 955 830 955 1007 c 0
 955 1180 843 1283 657 1283 c 2
 320 1283 l 1
320 571 m 1
 320 0 l 1
 140 0 l 1
 140 1443 l 1
 681 1443 l 2
 959 1443 1141 1273 1141 1013 c 0
 1141 812 1032 656 851 599 c 1
 1185 0 l 1
 974 0 l 1
 665 571 l 1
 665 571 l 1
 320 571 l 1
625 1560 m 1
 471 1560 l 1
 691 1849 l 1
 885 1849 l 1
 625 1560 l 1
EndSplineSet
Substitution2: "'c2sc' Capitals to Small Capitals lookup 5 subtable" Racute.sc
EndChar

StartChar: Rdotbelow
Encoding: 7770 7770 211
Width: 1227
Flags: W
LayerCount: 2
Fore
SplineSet
320 1283 m 1
 320 730 l 1
 665 730 l 2
 850 730 955 830 955 1007 c 0
 955 1180 843 1283 657 1283 c 2
 320 1283 l 1
320 571 m 1
 320 0 l 1
 140 0 l 1
 140 1443 l 1
 681 1443 l 2
 959 1443 1141 1273 1141 1013 c 0
 1141 812 1032 656 851 599 c 1
 1185 0 l 1
 974 0 l 1
 665 571 l 1
 665 571 l 1
 320 571 l 1
535 -389 m 0
 468 -389 414 -335 414 -268 c 0
 414 -201 468 -147 535 -147 c 0
 602 -147 656 -201 656 -268 c 0
 656 -335 602 -389 535 -389 c 0
EndSplineSet
Substitution2: "'c2sc' Capitals to Small Capitals lookup 5 subtable" Rdotbelow.sc
EndChar

StartChar: Rdotaccent
Encoding: 7768 7768 212
Width: 1227
Flags: W
LayerCount: 2
Fore
SplineSet
320 1283 m 1
 320 730 l 1
 665 730 l 2
 850 730 955 830 955 1007 c 0
 955 1180 843 1283 657 1283 c 2
 320 1283 l 1
320 571 m 1
 320 0 l 1
 140 0 l 1
 140 1443 l 1
 681 1443 l 2
 959 1443 1141 1273 1141 1013 c 0
 1141 812 1032 656 851 599 c 1
 1185 0 l 1
 974 0 l 1
 665 571 l 1
 665 571 l 1
 320 571 l 1
535 1585 m 0
 468 1585 414 1639 414 1706 c 0
 414 1773 468 1827 535 1827 c 0
 602 1827 656 1773 656 1706 c 0
 656 1639 602 1585 535 1585 c 0
EndSplineSet
Substitution2: "'c2sc' Capitals to Small Capitals lookup 5 subtable" Rdotaccent.sc
EndChar

StartChar: Rcommaaccent
Encoding: 342 342 213
Width: 1227
Flags: W
LayerCount: 2
Fore
SplineSet
320 1283 m 1
 320 730 l 1
 665 730 l 2
 850 730 955 830 955 1007 c 0
 955 1180 843 1283 657 1283 c 2
 320 1283 l 1
320 571 m 1
 320 0 l 1
 140 0 l 1
 140 1443 l 1
 681 1443 l 2
 959 1443 1141 1273 1141 1013 c 0
 1141 812 1032 656 851 599 c 1
 1185 0 l 1
 974 0 l 1
 665 571 l 1
 665 571 l 1
 320 571 l 1
507 -486 m 1
 381 -486 l 1
 489 -127 l 1
 641 -127 l 1
 507 -486 l 1
EndSplineSet
Substitution2: "'c2sc' Capitals to Small Capitals lookup 5 subtable" Rcommaaccent.sc
EndChar

StartChar: S
Encoding: 83 83 214
Width: 1216
Flags: W
LayerCount: 2
Fore
SplineSet
71 397 m 1
 252 397 l 1
 269 241 417 138 623 138 c 0
 818 138 960 241 960 383 c 0
 960 505 875 580 681 630 c 2
 496 678 l 2
 230 746 112 863 112 1059 c 0
 112 1299 322 1467 622 1467 c 0
 909 1467 1117 1297 1125 1055 c 1
 945 1055 l 1
 929 1210 804 1305 616 1305 c 0
 429 1305 299 1208 299 1067 c 0
 299 958 379 893 575 842 c 2
 726 802 l 1
 1025 727 1146 612 1146 405 c 0
 1146 141 938 -24 606 -24 c 0
 300 -24 88 142 71 397 c 1
EndSplineSet
Substitution2: "'c2sc' Capitals to Small Capitals lookup 5 subtable" S.sc
EndChar

StartChar: Scaron
Encoding: 352 352 215
Width: 1216
Flags: W
LayerCount: 2
Fore
SplineSet
71 397 m 1
 252 397 l 1
 269 241 417 138 623 138 c 0
 818 138 960 241 960 383 c 0
 960 505 875 580 681 630 c 2
 496 678 l 2
 230 746 112 863 112 1059 c 0
 112 1299 322 1467 622 1467 c 0
 909 1467 1117 1297 1125 1055 c 1
 945 1055 l 1
 929 1210 804 1305 616 1305 c 0
 429 1305 299 1208 299 1067 c 0
 299 958 379 893 575 842 c 2
 726 802 l 1
 1025 727 1146 612 1146 405 c 0
 1146 141 938 -24 606 -24 c 0
 300 -24 88 142 71 397 c 1
555 1550 m 1
 272 1848 l 1
 438 1848 l 1
 619 1656 l 1
 625 1656 l 1
 806 1848 l 1
 972 1848 l 1
 689 1550 l 1
 555 1550 l 1
EndSplineSet
Substitution2: "'c2sc' Capitals to Small Capitals lookup 5 subtable" Scaron.sc
EndChar

StartChar: Scedilla
Encoding: 350 350 216
Width: 1216
Flags: W
LayerCount: 2
Fore
SplineSet
575 842 m 2
 726 802 l 1
 1025 727 1146 612 1146 405 c 0
 1146 160 967 1 677 -21 c 1
 630 -130 l 1
 760 -132 844 -188 844 -290 c 0
 844 -404 740 -466 610 -468 c 0
 552 -469 486 -462 460 -454 c 1
 460 -352 l 1
 482 -357 543 -364 585 -364 c 0
 668 -364 712 -338 712 -292 c 0
 712 -246 668 -228 566 -228 c 2
 496 -228 l 1
 496 -159 l 1
 550 -22 l 1
 274 -3 87 158 71 397 c 1
 252 397 l 1
 269 241 417 138 623 138 c 0
 818 138 960 241 960 383 c 0
 960 505 875 580 681 630 c 2
 496 678 l 2
 230 746 112 863 112 1059 c 0
 112 1299 322 1467 622 1467 c 0
 909 1467 1117 1297 1125 1055 c 1
 945 1055 l 1
 929 1210 804 1305 616 1305 c 0
 429 1305 299 1208 299 1067 c 0
 299 958 379 893 575 842 c 2
EndSplineSet
Substitution2: "'c2sc' Capitals to Small Capitals lookup 5 subtable" Scedilla.sc
Substitution2: "'locl' Localized Forms in Latin lookup 0 subtable" Scommaaccent
EndChar

StartChar: Sdotaccent
Encoding: 7776 7776 217
Width: 1216
Flags: W
LayerCount: 2
Fore
SplineSet
71 397 m 1
 252 397 l 1
 269 241 417 138 623 138 c 0
 818 138 960 241 960 383 c 0
 960 505 875 580 681 630 c 2
 496 678 l 2
 230 746 112 863 112 1059 c 0
 112 1299 322 1467 622 1467 c 0
 909 1467 1117 1297 1125 1055 c 1
 945 1055 l 1
 929 1210 804 1305 616 1305 c 0
 429 1305 299 1208 299 1067 c 0
 299 958 379 893 575 842 c 2
 726 802 l 1
 1025 727 1146 612 1146 405 c 0
 1146 141 938 -24 606 -24 c 0
 300 -24 88 142 71 397 c 1
622 1585 m 0
 555 1585 501 1639 501 1706 c 0
 501 1773 555 1827 622 1827 c 0
 689 1827 743 1773 743 1706 c 0
 743 1639 689 1585 622 1585 c 0
EndSplineSet
Substitution2: "'c2sc' Capitals to Small Capitals lookup 5 subtable" Sdotaccent.sc
EndChar

StartChar: Sdotbelow
Encoding: 7778 7778 218
Width: 1216
Flags: W
LayerCount: 2
Fore
SplineSet
71 397 m 1
 252 397 l 1
 269 241 417 138 623 138 c 0
 818 138 960 241 960 383 c 0
 960 505 875 580 681 630 c 2
 496 678 l 2
 230 746 112 863 112 1059 c 0
 112 1299 322 1467 622 1467 c 0
 909 1467 1117 1297 1125 1055 c 1
 945 1055 l 1
 929 1210 804 1305 616 1305 c 0
 429 1305 299 1208 299 1067 c 0
 299 958 379 893 575 842 c 2
 726 802 l 1
 1025 727 1146 612 1146 405 c 0
 1146 141 938 -24 606 -24 c 0
 300 -24 88 142 71 397 c 1
606 -389 m 0
 539 -389 485 -335 485 -268 c 0
 485 -201 539 -147 606 -147 c 0
 673 -147 727 -201 727 -268 c 0
 727 -335 673 -389 606 -389 c 0
EndSplineSet
Substitution2: "'c2sc' Capitals to Small Capitals lookup 5 subtable" Sdotbelow.sc
EndChar

StartChar: Scommaaccent
Encoding: 536 536 219
Width: 1216
Flags: W
LayerCount: 2
Fore
SplineSet
71 397 m 1
 252 397 l 1
 269 241 417 138 623 138 c 0
 818 138 960 241 960 383 c 0
 960 505 875 580 681 630 c 2
 496 678 l 2
 230 746 112 863 112 1059 c 0
 112 1299 322 1467 622 1467 c 0
 909 1467 1117 1297 1125 1055 c 1
 945 1055 l 1
 929 1210 804 1305 616 1305 c 0
 429 1305 299 1208 299 1067 c 0
 299 958 379 893 575 842 c 2
 726 802 l 1
 1025 727 1146 612 1146 405 c 0
 1146 141 938 -24 606 -24 c 0
 300 -24 88 142 71 397 c 1
578 -486 m 1
 452 -486 l 1
 560 -127 l 1
 712 -127 l 1
 578 -486 l 1
EndSplineSet
Substitution2: "'c2sc' Capitals to Small Capitals lookup 5 subtable" Scommaaccent.sc
EndChar

StartChar: Sdotbelowdotaccent
Encoding: 7784 7784 220
Width: 1216
Flags: W
LayerCount: 2
Fore
SplineSet
71 397 m 1
 252 397 l 1
 269 241 417 138 623 138 c 0
 818 138 960 241 960 383 c 0
 960 505 875 580 681 630 c 2
 496 678 l 2
 230 746 112 863 112 1059 c 0
 112 1299 322 1467 622 1467 c 0
 909 1467 1117 1297 1125 1055 c 1
 945 1055 l 1
 929 1210 804 1305 616 1305 c 0
 429 1305 299 1208 299 1067 c 0
 299 958 379 893 575 842 c 2
 726 802 l 1
 1025 727 1146 612 1146 405 c 0
 1146 141 938 -24 606 -24 c 0
 300 -24 88 142 71 397 c 1
606 -389 m 0
 539 -389 485 -335 485 -268 c 0
 485 -201 539 -147 606 -147 c 0
 673 -147 727 -201 727 -268 c 0
 727 -335 673 -389 606 -389 c 0
622 1585 m 0
 555 1585 501 1639 501 1706 c 0
 501 1773 555 1827 622 1827 c 0
 689 1827 743 1773 743 1706 c 0
 743 1639 689 1585 622 1585 c 0
EndSplineSet
Substitution2: "'c2sc' Capitals to Small Capitals lookup 5 subtable" Sdotbelowdotaccent.sc
EndChar

StartChar: Scarondotaccent
Encoding: 7782 7782 221
Width: 1216
Flags: W
LayerCount: 2
Fore
SplineSet
71 397 m 1
 252 397 l 1
 269 241 417 138 623 138 c 0
 818 138 960 241 960 383 c 0
 960 505 875 580 681 630 c 2
 496 678 l 2
 230 746 112 863 112 1059 c 0
 112 1299 322 1467 622 1467 c 0
 909 1467 1117 1297 1125 1055 c 1
 945 1055 l 1
 929 1210 804 1305 616 1305 c 0
 429 1305 299 1208 299 1067 c 0
 299 958 379 893 575 842 c 2
 726 802 l 1
 1025 727 1146 612 1146 405 c 0
 1146 141 938 -24 606 -24 c 0
 300 -24 88 142 71 397 c 1
546 1540 m 1
 264 1798 l 1
 438 1798 l 1
 619 1630 l 1
 625 1630 l 1
 806 1798 l 1
 980 1798 l 1
 698 1540 l 1
 546 1540 l 1
622 1834 m 0
 561 1834 513 1883 513 1944 c 0
 513 2005 561 2053 622 2053 c 0
 683 2053 731 2005 731 1944 c 0
 731 1883 683 1834 622 1834 c 0
EndSplineSet
Substitution2: "'c2sc' Capitals to Small Capitals lookup 5 subtable" Scarondotaccent.sc
EndChar

StartChar: Scircumflex
Encoding: 348 348 222
Width: 1216
Flags: W
LayerCount: 2
Fore
SplineSet
71 397 m 1
 252 397 l 1
 269 241 417 138 623 138 c 0
 818 138 960 241 960 383 c 0
 960 505 875 580 681 630 c 2
 496 678 l 2
 230 746 112 863 112 1059 c 0
 112 1299 322 1467 622 1467 c 0
 909 1467 1117 1297 1125 1055 c 1
 945 1055 l 1
 929 1210 804 1305 616 1305 c 0
 429 1305 299 1208 299 1067 c 0
 299 958 379 893 575 842 c 2
 726 802 l 1
 1025 727 1146 612 1146 405 c 0
 1146 141 938 -24 606 -24 c 0
 300 -24 88 142 71 397 c 1
555 1838 m 1
 689 1838 l 1
 972 1540 l 1
 806 1540 l 1
 625 1732 l 1
 619 1732 l 1
 438 1540 l 1
 272 1540 l 1
 555 1838 l 1
EndSplineSet
Substitution2: "'c2sc' Capitals to Small Capitals lookup 5 subtable" Scircumflex.sc
EndChar

StartChar: Sacutedotaccent
Encoding: 7780 7780 223
Width: 1216
Flags: W
LayerCount: 2
Fore
SplineSet
71 397 m 1
 252 397 l 1
 269 241 417 138 623 138 c 0
 818 138 960 241 960 383 c 0
 960 505 875 580 681 630 c 2
 496 678 l 2
 230 746 112 863 112 1059 c 0
 112 1299 322 1467 622 1467 c 0
 909 1467 1117 1297 1125 1055 c 1
 945 1055 l 1
 929 1210 804 1305 616 1305 c 0
 429 1305 299 1208 299 1067 c 0
 299 958 379 893 575 842 c 2
 726 802 l 1
 1025 727 1146 612 1146 405 c 0
 1146 141 938 -24 606 -24 c 0
 300 -24 88 142 71 397 c 1
815 1560 m 1
 661 1560 l 1
 881 1849 l 1
 1075 1849 l 1
 815 1560 l 1
445 1600 m 0
 378 1600 324 1654 324 1721 c 0
 324 1788 378 1842 445 1842 c 0
 512 1842 566 1788 566 1721 c 0
 566 1654 512 1600 445 1600 c 0
EndSplineSet
Substitution2: "'c2sc' Capitals to Small Capitals lookup 5 subtable" Sacutedotaccent.sc
EndChar

StartChar: Sacute
Encoding: 346 346 224
Width: 1216
Flags: W
LayerCount: 2
Fore
SplineSet
71 397 m 1
 252 397 l 1
 269 241 417 138 623 138 c 0
 818 138 960 241 960 383 c 0
 960 505 875 580 681 630 c 2
 496 678 l 2
 230 746 112 863 112 1059 c 0
 112 1299 322 1467 622 1467 c 0
 909 1467 1117 1297 1125 1055 c 1
 945 1055 l 1
 929 1210 804 1305 616 1305 c 0
 429 1305 299 1208 299 1067 c 0
 299 958 379 893 575 842 c 2
 726 802 l 1
 1025 727 1146 612 1146 405 c 0
 1146 141 938 -24 606 -24 c 0
 300 -24 88 142 71 397 c 1
712 1560 m 1
 558 1560 l 1
 778 1849 l 1
 972 1849 l 1
 712 1560 l 1
EndSplineSet
Substitution2: "'c2sc' Capitals to Small Capitals lookup 5 subtable" Sacute.sc
EndChar

StartChar: germandbls.uc
Encoding: 7838 7838 225
Width: 2432
Flags: W
LayerCount: 2
Fore
SplineSet
71 397 m 1
 252 397 l 1
 269 241 417 138 623 138 c 0
 818 138 960 241 960 383 c 0
 960 505 875 580 681 630 c 2
 496 678 l 2
 230 746 112 863 112 1059 c 0
 112 1299 322 1467 622 1467 c 0
 909 1467 1117 1297 1125 1055 c 1
 945 1055 l 1
 929 1210 804 1305 616 1305 c 0
 429 1305 299 1208 299 1067 c 0
 299 958 379 893 575 842 c 2
 726 802 l 1
 1025 727 1146 612 1146 405 c 0
 1146 141 938 -24 606 -24 c 0
 300 -24 88 142 71 397 c 1
1287 397 m 1
 1468 397 l 1
 1485 241 1633 138 1839 138 c 0
 2034 138 2176 241 2176 383 c 0
 2176 505 2091 580 1897 630 c 2
 1712 678 l 2
 1446 746 1328 863 1328 1059 c 0
 1328 1299 1538 1467 1838 1467 c 0
 2125 1467 2333 1297 2341 1055 c 1
 2161 1055 l 1
 2145 1210 2020 1305 1832 1305 c 0
 1645 1305 1515 1208 1515 1067 c 0
 1515 958 1595 893 1791 842 c 2
 1942 802 l 1
 2241 727 2362 612 2362 405 c 0
 2362 141 2154 -24 1822 -24 c 0
 1516 -24 1304 142 1287 397 c 1
EndSplineSet
Substitution2: "'c2sc' Capitals to Small Capitals lookup 5 subtable" germandbls.sc
EndChar

StartChar: T
Encoding: 84 84 226
Width: 1190
Flags: W
LayerCount: 2
Fore
SplineSet
685 0 m 1
 505 0 l 1
 505 1281 l 1
 50 1281 l 1
 50 1443 l 1
 1140 1443 l 1
 1140 1281 l 1
 685 1281 l 1
 685 0 l 1
EndSplineSet
Substitution2: "'c2sc' Capitals to Small Capitals lookup 5 subtable" T.sc
EndChar

StartChar: Tcircumflexbelow
Encoding: 7792 7792 227
Width: 1190
Flags: W
LayerCount: 2
Fore
SplineSet
685 0 m 1
 505 0 l 1
 505 1281 l 1
 50 1281 l 1
 50 1443 l 1
 1140 1443 l 1
 1140 1281 l 1
 685 1281 l 1
 685 0 l 1
528 -127 m 1
 662 -127 l 1
 945 -425 l 1
 779 -425 l 1
 598 -233 l 1
 592 -233 l 1
 411 -425 l 1
 245 -425 l 1
 528 -127 l 1
EndSplineSet
Substitution2: "'c2sc' Capitals to Small Capitals lookup 5 subtable" Tcircumflexbelow.sc
EndChar

StartChar: Tdotbelow
Encoding: 7788 7788 228
Width: 1190
Flags: W
LayerCount: 2
Fore
SplineSet
685 0 m 1
 505 0 l 1
 505 1281 l 1
 50 1281 l 1
 50 1443 l 1
 1140 1443 l 1
 1140 1281 l 1
 685 1281 l 1
 685 0 l 1
595 -389 m 0
 528 -389 474 -335 474 -268 c 0
 474 -201 528 -147 595 -147 c 0
 662 -147 716 -201 716 -268 c 0
 716 -335 662 -389 595 -389 c 0
EndSplineSet
Substitution2: "'c2sc' Capitals to Small Capitals lookup 5 subtable" Tdotbelow.sc
EndChar

StartChar: Tcommaaccent
Encoding: 538 538 229
Width: 1190
Flags: W
LayerCount: 2
Fore
SplineSet
685 0 m 1
 505 0 l 1
 505 1281 l 1
 50 1281 l 1
 50 1443 l 1
 1140 1443 l 1
 1140 1281 l 1
 685 1281 l 1
 685 0 l 1
538 -486 m 1
 412 -486 l 1
 520 -127 l 1
 672 -127 l 1
 538 -486 l 1
EndSplineSet
Substitution2: "'c2sc' Capitals to Small Capitals lookup 5 subtable" Tcommaaccent.sc
EndChar

StartChar: Tdotaccent
Encoding: 7786 7786 230
Width: 1190
Flags: W
LayerCount: 2
Fore
SplineSet
685 0 m 1
 505 0 l 1
 505 1281 l 1
 50 1281 l 1
 50 1443 l 1
 1140 1443 l 1
 1140 1281 l 1
 685 1281 l 1
 685 0 l 1
595 1585 m 0
 528 1585 474 1639 474 1706 c 0
 474 1773 528 1827 595 1827 c 0
 662 1827 716 1773 716 1706 c 0
 716 1639 662 1585 595 1585 c 0
EndSplineSet
Substitution2: "'c2sc' Capitals to Small Capitals lookup 5 subtable" Tdotaccent.sc
EndChar

StartChar: Tcedilla
Encoding: 354 354 231
Width: 1190
Flags: W
LayerCount: 2
Fore
SplineSet
685 8 m 1
 685 0 l 1
 629 -130 l 1
 759 -132 843 -188 843 -290 c 0
 843 -404 739 -466 609 -468 c 0
 551 -469 485 -462 459 -454 c 1
 459 -352 l 1
 481 -357 542 -364 584 -364 c 0
 667 -364 711 -338 711 -292 c 0
 711 -246 667 -228 565 -228 c 2
 495 -228 l 1
 495 -159 l 1
 558 0 l 1
 505 0 l 1
 505 1281 l 1
 50 1281 l 1
 50 1443 l 1
 1140 1443 l 1
 1140 1281 l 1
 685 1281 l 1
 685 8 l 1
EndSplineSet
Substitution2: "'c2sc' Capitals to Small Capitals lookup 5 subtable" Tcedilla.sc
Substitution2: "'locl' Localized Forms in Latin lookup 0 subtable" Tcommaaccent
EndChar

StartChar: Tlinebelow
Encoding: 7790 7790 232
Width: 1190
Flags: W
LayerCount: 2
Fore
SplineSet
685 0 m 1
 505 0 l 1
 505 1281 l 1
 50 1281 l 1
 50 1443 l 1
 1140 1443 l 1
 1140 1281 l 1
 685 1281 l 1
 685 0 l 1
912 -217 m 1
 912 -333 l 1
 278 -333 l 1
 278 -217 l 1
 912 -217 l 1
EndSplineSet
Substitution2: "'c2sc' Capitals to Small Capitals lookup 5 subtable" Tlinebelow.sc
EndChar

StartChar: Tcaron
Encoding: 356 356 233
Width: 1190
Flags: W
LayerCount: 2
Fore
SplineSet
685 0 m 1
 505 0 l 1
 505 1281 l 1
 50 1281 l 1
 50 1443 l 1
 1140 1443 l 1
 1140 1281 l 1
 685 1281 l 1
 685 0 l 1
528 1550 m 1
 245 1848 l 1
 411 1848 l 1
 592 1656 l 1
 598 1656 l 1
 779 1848 l 1
 945 1848 l 1
 662 1550 l 1
 528 1550 l 1
EndSplineSet
Substitution2: "'c2sc' Capitals to Small Capitals lookup 5 subtable" Tcaron.sc
EndChar

StartChar: Tbar
Encoding: 358 358 234
Width: 1190
Flags: W
LayerCount: 2
Fore
SplineSet
1140 1281 m 1
 685 1281 l 1
 685 793 l 1
 990 793 l 1
 990 650 l 1
 685 650 l 1
 685 0 l 1
 505 0 l 1
 505 650 l 1
 200 650 l 1
 200 793 l 1
 505 793 l 1
 505 1281 l 1
 50 1281 l 1
 50 1443 l 1
 1140 1443 l 1
 1140 1281 l 1
EndSplineSet
Substitution2: "'c2sc' Capitals to Small Capitals lookup 5 subtable" Tbar.sc
EndChar

StartChar: U
Encoding: 85 85 235
Width: 1426
Flags: W
LayerCount: 2
Fore
SplineSet
320 1443 m 1
 320 518 l 2
 320 300 463 142 713 142 c 0
 963 142 1106 300 1106 518 c 2
 1106 1443 l 1
 1286 1443 l 1
 1286 506 l 2
 1286 198 1071 -24 713 -24 c 0
 355 -24 140 198 140 506 c 2
 140 1443 l 1
 320 1443 l 1
EndSplineSet
Substitution2: "'c2sc' Capitals to Small Capitals lookup 5 subtable" U.sc
EndChar

StartChar: Ugrave
Encoding: 217 217 236
Width: 1426
Flags: W
LayerCount: 2
Fore
SplineSet
320 1443 m 1
 320 518 l 2
 320 300 463 142 713 142 c 0
 963 142 1106 300 1106 518 c 2
 1106 1443 l 1
 1286 1443 l 1
 1286 506 l 2
 1286 198 1071 -24 713 -24 c 0
 355 -24 140 198 140 506 c 2
 140 1443 l 1
 320 1443 l 1
623 1560 m 1
 363 1849 l 1
 557 1849 l 1
 777 1560 l 1
 623 1560 l 1
EndSplineSet
Substitution2: "'c2sc' Capitals to Small Capitals lookup 5 subtable" Ugrave.sc
EndChar

StartChar: Udblgrave
Encoding: 532 532 237
Width: 1426
Flags: W
LayerCount: 2
Fore
SplineSet
320 1443 m 1
 320 518 l 2
 320 300 463 142 713 142 c 0
 963 142 1106 300 1106 518 c 2
 1106 1443 l 1
 1286 1443 l 1
 1286 506 l 2
 1286 198 1071 -24 713 -24 c 0
 355 -24 140 198 140 506 c 2
 140 1443 l 1
 320 1443 l 1
783 1560 m 1
 523 1849 l 1
 717 1849 l 1
 937 1560 l 1
 783 1560 l 1
463 1560 m 1
 203 1849 l 1
 397 1849 l 1
 617 1560 l 1
 463 1560 l 1
EndSplineSet
Substitution2: "'c2sc' Capitals to Small Capitals lookup 5 subtable" Udblgrave.sc
EndChar

StartChar: Uacute
Encoding: 218 218 238
Width: 1426
Flags: W
LayerCount: 2
Fore
SplineSet
320 1443 m 1
 320 518 l 2
 320 300 463 142 713 142 c 0
 963 142 1106 300 1106 518 c 2
 1106 1443 l 1
 1286 1443 l 1
 1286 506 l 2
 1286 198 1071 -24 713 -24 c 0
 355 -24 140 198 140 506 c 2
 140 1443 l 1
 320 1443 l 1
803 1560 m 1
 649 1560 l 1
 869 1849 l 1
 1063 1849 l 1
 803 1560 l 1
EndSplineSet
Substitution2: "'c2sc' Capitals to Small Capitals lookup 5 subtable" Uacute.sc
EndChar

StartChar: Uhungarumlaut
Encoding: 368 368 239
Width: 1426
Flags: W
LayerCount: 2
Fore
SplineSet
320 1443 m 1
 320 518 l 2
 320 300 463 142 713 142 c 0
 963 142 1106 300 1106 518 c 2
 1106 1443 l 1
 1286 1443 l 1
 1286 506 l 2
 1286 198 1071 -24 713 -24 c 0
 355 -24 140 198 140 506 c 2
 140 1443 l 1
 320 1443 l 1
963 1560 m 1
 809 1560 l 1
 1029 1849 l 1
 1223 1849 l 1
 963 1560 l 1
643 1560 m 1
 489 1560 l 1
 709 1849 l 1
 903 1849 l 1
 643 1560 l 1
EndSplineSet
Substitution2: "'c2sc' Capitals to Small Capitals lookup 5 subtable" Uhungarumlaut.sc
EndChar

StartChar: Ucircumflex
Encoding: 219 219 240
Width: 1426
Flags: W
LayerCount: 2
Fore
SplineSet
320 1443 m 1
 320 518 l 2
 320 300 463 142 713 142 c 0
 963 142 1106 300 1106 518 c 2
 1106 1443 l 1
 1286 1443 l 1
 1286 506 l 2
 1286 198 1071 -24 713 -24 c 0
 355 -24 140 198 140 506 c 2
 140 1443 l 1
 320 1443 l 1
646 1838 m 1
 780 1838 l 1
 1063 1540 l 1
 897 1540 l 1
 716 1732 l 1
 710 1732 l 1
 529 1540 l 1
 363 1540 l 1
 646 1838 l 1
EndSplineSet
Substitution2: "'c2sc' Capitals to Small Capitals lookup 5 subtable" Ucircumflex.sc
EndChar

StartChar: Ucaron
Encoding: 467 467 241
Width: 1426
Flags: W
LayerCount: 2
Fore
SplineSet
320 1443 m 1
 320 518 l 2
 320 300 463 142 713 142 c 0
 963 142 1106 300 1106 518 c 2
 1106 1443 l 1
 1286 1443 l 1
 1286 506 l 2
 1286 198 1071 -24 713 -24 c 0
 355 -24 140 198 140 506 c 2
 140 1443 l 1
 320 1443 l 1
646 1550 m 1
 363 1848 l 1
 529 1848 l 1
 710 1656 l 1
 716 1656 l 1
 897 1848 l 1
 1063 1848 l 1
 780 1550 l 1
 646 1550 l 1
EndSplineSet
Substitution2: "'c2sc' Capitals to Small Capitals lookup 5 subtable" Ucaron.sc
EndChar

StartChar: Ucircumflexbelow
Encoding: 7798 7798 242
Width: 1426
Flags: W
LayerCount: 2
Fore
SplineSet
320 1443 m 1
 320 518 l 2
 320 300 463 142 713 142 c 0
 963 142 1106 300 1106 518 c 2
 1106 1443 l 1
 1286 1443 l 1
 1286 506 l 2
 1286 198 1071 -24 713 -24 c 0
 355 -24 140 198 140 506 c 2
 140 1443 l 1
 320 1443 l 1
646 -127 m 1
 780 -127 l 1
 1063 -425 l 1
 897 -425 l 1
 716 -233 l 1
 710 -233 l 1
 529 -425 l 1
 363 -425 l 1
 646 -127 l 1
EndSplineSet
Substitution2: "'c2sc' Capitals to Small Capitals lookup 5 subtable" Ucircumflexbelow.sc
EndChar

StartChar: Udieresis
Encoding: 220 220 243
Width: 1426
Flags: W
LayerCount: 2
Fore
SplineSet
320 1443 m 1
 320 518 l 2
 320 300 463 142 713 142 c 0
 963 142 1106 300 1106 518 c 2
 1106 1443 l 1
 1286 1443 l 1
 1286 506 l 2
 1286 198 1071 -24 713 -24 c 0
 355 -24 140 198 140 506 c 2
 140 1443 l 1
 320 1443 l 1
527 1604 m 0
 467 1604 417 1653 417 1714 c 0
 417 1775 467 1824 527 1824 c 0
 587 1824 637 1775 637 1714 c 0
 637 1653 587 1604 527 1604 c 0
899 1604 m 0
 839 1604 789 1653 789 1714 c 0
 789 1775 839 1824 899 1824 c 0
 959 1824 1009 1775 1009 1714 c 0
 1009 1653 959 1604 899 1604 c 0
EndSplineSet
Substitution2: "'c2sc' Capitals to Small Capitals lookup 5 subtable" Udieresis.sc
EndChar

StartChar: Udieresisgrave
Encoding: 475 475 244
Width: 1426
Flags: W
LayerCount: 2
Fore
SplineSet
320 1443 m 1
 320 518 l 2
 320 300 463 142 713 142 c 0
 963 142 1106 300 1106 518 c 2
 1106 1443 l 1
 1286 1443 l 1
 1286 506 l 2
 1286 198 1071 -24 713 -24 c 0
 355 -24 140 198 140 506 c 2
 140 1443 l 1
 320 1443 l 1
785 1830 m 1
 639 1830 l 1
 447 2046 l 1
 617 2046 l 1
 785 1830 l 1
536 1554 m 0
 478 1554 431 1601 431 1660 c 0
 431 1719 478 1766 536 1766 c 0
 593 1766 640 1719 640 1660 c 0
 640 1601 593 1554 536 1554 c 0
890 1554 m 0
 833 1554 786 1601 786 1660 c 0
 786 1719 833 1766 890 1766 c 0
 948 1766 995 1719 995 1660 c 0
 995 1601 948 1554 890 1554 c 0
EndSplineSet
Substitution2: "'c2sc' Capitals to Small Capitals lookup 5 subtable" Udieresisgrave.sc
EndChar

StartChar: Udieresisacute
Encoding: 471 471 245
Width: 1426
Flags: W
LayerCount: 2
Fore
SplineSet
320 1443 m 1
 320 518 l 2
 320 300 463 142 713 142 c 0
 963 142 1106 300 1106 518 c 2
 1106 1443 l 1
 1286 1443 l 1
 1286 506 l 2
 1286 198 1071 -24 713 -24 c 0
 355 -24 140 198 140 506 c 2
 140 1443 l 1
 320 1443 l 1
631 1830 m 1
 799 2046 l 1
 969 2046 l 1
 777 1830 l 1
 631 1830 l 1
536 1554 m 0
 478 1554 431 1601 431 1660 c 0
 431 1719 478 1766 536 1766 c 0
 593 1766 640 1719 640 1660 c 0
 640 1601 593 1554 536 1554 c 0
890 1554 m 0
 833 1554 786 1601 786 1660 c 0
 786 1719 833 1766 890 1766 c 0
 948 1766 995 1719 995 1660 c 0
 995 1601 948 1554 890 1554 c 0
EndSplineSet
Substitution2: "'c2sc' Capitals to Small Capitals lookup 5 subtable" Udieresisacute.sc
EndChar

StartChar: Udieresismacron
Encoding: 469 469 246
Width: 1426
Flags: W
LayerCount: 2
Fore
SplineSet
320 1443 m 1
 320 518 l 2
 320 300 463 142 713 142 c 0
 963 142 1106 300 1106 518 c 2
 1106 1443 l 1
 1286 1443 l 1
 1286 506 l 2
 1286 198 1071 -24 713 -24 c 0
 355 -24 140 198 140 506 c 2
 140 1443 l 1
 320 1443 l 1
536 1766 m 0
 593 1766 640 1719 640 1660 c 0
 640 1601 593 1554 536 1554 c 0
 478 1554 431 1601 431 1660 c 0
 431 1719 478 1766 536 1766 c 0
396 2025 m 1
 1030 2025 l 1
 1030 1909 l 1
 396 1909 l 1
 396 2025 l 1
890 1766 m 0
 948 1766 995 1719 995 1660 c 0
 995 1601 948 1554 890 1554 c 0
 833 1554 786 1601 786 1660 c 0
 786 1719 833 1766 890 1766 c 0
EndSplineSet
Substitution2: "'c2sc' Capitals to Small Capitals lookup 5 subtable" Udieresismacron.sc
EndChar

StartChar: Udieresiscaron
Encoding: 473 473 247
Width: 1426
Flags: W
LayerCount: 2
Fore
SplineSet
320 1443 m 1
 320 518 l 2
 320 300 463 142 713 142 c 0
 963 142 1106 300 1106 518 c 2
 1106 1443 l 1
 1286 1443 l 1
 1286 506 l 2
 1286 198 1071 -24 713 -24 c 0
 355 -24 140 198 140 506 c 2
 140 1443 l 1
 320 1443 l 1
637 1816 m 1
 373 2048 l 1
 547 2048 l 1
 710 1904 l 1
 716 1904 l 1
 879 2048 l 1
 1053 2048 l 1
 789 1816 l 1
 637 1816 l 1
536 1766 m 0
 593 1766 640 1719 640 1660 c 0
 640 1601 593 1554 536 1554 c 0
 478 1554 431 1601 431 1660 c 0
 431 1719 478 1766 536 1766 c 0
890 1766 m 0
 948 1766 995 1719 995 1660 c 0
 995 1601 948 1554 890 1554 c 0
 833 1554 786 1601 786 1660 c 0
 786 1719 833 1766 890 1766 c 0
EndSplineSet
Substitution2: "'c2sc' Capitals to Small Capitals lookup 5 subtable" Udieresiscaron.sc
EndChar

StartChar: Udieresisbelow
Encoding: 7794 7794 248
Width: 1426
Flags: W
LayerCount: 2
Fore
SplineSet
320 1443 m 1
 320 518 l 2
 320 300 463 142 713 142 c 0
 963 142 1106 300 1106 518 c 2
 1106 1443 l 1
 1286 1443 l 1
 1286 506 l 2
 1286 198 1071 -24 713 -24 c 0
 355 -24 140 198 140 506 c 2
 140 1443 l 1
 320 1443 l 1
527 -339 m 0
 467 -339 417 -290 417 -229 c 0
 417 -168 467 -119 527 -119 c 0
 587 -119 637 -168 637 -229 c 0
 637 -290 587 -339 527 -339 c 0
899 -339 m 0
 839 -339 789 -290 789 -229 c 0
 789 -168 839 -119 899 -119 c 0
 959 -119 1009 -168 1009 -229 c 0
 1009 -290 959 -339 899 -339 c 0
EndSplineSet
Substitution2: "'c2sc' Capitals to Small Capitals lookup 5 subtable" Udieresisbelow.sc
EndChar

StartChar: Utildebelow
Encoding: 7796 7796 249
Width: 1426
Flags: W
LayerCount: 2
Fore
SplineSet
320 1443 m 1
 320 518 l 2
 320 300 463 142 713 142 c 0
 963 142 1106 300 1106 518 c 2
 1106 1443 l 1
 1286 1443 l 1
 1286 506 l 2
 1286 198 1071 -24 713 -24 c 0
 355 -24 140 198 140 506 c 2
 140 1443 l 1
 320 1443 l 1
844 -344 m 0
 712 -344 662 -192 583 -192 c 0
 537 -192 508 -241 512 -334 c 1
 394 -334 l 1
 394 -170 470 -79 584 -79 c 0
 725 -79 770 -231 845 -231 c 0
 887 -231 914 -184 914 -88 c 1
 1032 -88 l 1
 1032 -248 953 -344 844 -344 c 0
EndSplineSet
Substitution2: "'c2sc' Capitals to Small Capitals lookup 5 subtable" Utildebelow.sc
EndChar

StartChar: Uhookabove
Encoding: 7910 7910 250
Width: 1426
Flags: W
LayerCount: 2
Fore
SplineSet
320 1443 m 1
 320 518 l 2
 320 300 463 142 713 142 c 0
 963 142 1106 300 1106 518 c 2
 1106 1443 l 1
 1286 1443 l 1
 1286 506 l 2
 1286 198 1071 -24 713 -24 c 0
 355 -24 140 198 140 506 c 2
 140 1443 l 1
 320 1443 l 1
553 1753 m 1
 553 1849 l 1
 587 1864 631 1871 674 1871 c 0
 788 1871 869 1809 869 1711 c 0
 869 1630 805 1559 710 1527 c 1
 650 1605 l 1
 704 1622 740 1661 740 1704 c 0
 740 1742 703 1772 653 1772 c 0
 620 1772 582 1766 553 1753 c 1
EndSplineSet
Substitution2: "'c2sc' Capitals to Small Capitals lookup 5 subtable" Uhookabove.sc
EndChar

StartChar: Ubreve
Encoding: 364 364 251
Width: 1426
Flags: W
LayerCount: 2
Fore
SplineSet
320 1443 m 1
 320 518 l 2
 320 300 463 142 713 142 c 0
 963 142 1106 300 1106 518 c 2
 1106 1443 l 1
 1286 1443 l 1
 1286 506 l 2
 1286 198 1071 -24 713 -24 c 0
 355 -24 140 198 140 506 c 2
 140 1443 l 1
 320 1443 l 1
392 1848 m 1
 519 1848 l 1
 531 1727 608 1654 713 1654 c 0
 818 1654 895 1727 907 1848 c 1
 1034 1848 l 1
 1021 1684 905 1542 713 1542 c 0
 521 1542 405 1684 392 1848 c 1
EndSplineSet
Substitution2: "'c2sc' Capitals to Small Capitals lookup 5 subtable" Ubreve.sc
EndChar

StartChar: Uinvertedbreve
Encoding: 534 534 252
Width: 1426
Flags: W
LayerCount: 2
Fore
SplineSet
320 1443 m 1
 320 518 l 2
 320 300 463 142 713 142 c 0
 963 142 1106 300 1106 518 c 2
 1106 1443 l 1
 1286 1443 l 1
 1286 506 l 2
 1286 198 1071 -24 713 -24 c 0
 355 -24 140 198 140 506 c 2
 140 1443 l 1
 320 1443 l 1
392 1542 m 1
 405 1706 521 1848 713 1848 c 0
 905 1848 1021 1706 1034 1542 c 1
 907 1542 l 1
 895 1663 818 1736 713 1736 c 0
 608 1736 531 1663 519 1542 c 1
 392 1542 l 1
EndSplineSet
Substitution2: "'c2sc' Capitals to Small Capitals lookup 5 subtable" Uinvertedbreve.sc
EndChar

StartChar: Utildeacute
Encoding: 7800 7800 253
Width: 1426
Flags: W
LayerCount: 2
Fore
SplineSet
320 1443 m 1
 320 518 l 2
 320 300 463 142 713 142 c 0
 963 142 1106 300 1106 518 c 2
 1106 1443 l 1
 1286 1443 l 1
 1286 506 l 2
 1286 198 1071 -24 713 -24 c 0
 355 -24 140 198 140 506 c 2
 140 1443 l 1
 320 1443 l 1
839 1542 m 0
 712 1542 664 1690 588 1690 c 0
 544 1690 515 1642 519 1561 c 1
 408 1561 l 1
 408 1711 480 1799 589 1799 c 0
 714 1799 762 1651 840 1651 c 0
 882 1651 907 1697 907 1781 c 1
 1018 1781 l 1
 1018 1635 943 1542 839 1542 c 0
647 1850 m 1
 815 2046 l 1
 985 2046 l 1
 793 1850 l 1
 647 1850 l 1
EndSplineSet
Substitution2: "'c2sc' Capitals to Small Capitals lookup 5 subtable" Utildeacute.sc
EndChar

StartChar: Udotbelow
Encoding: 7908 7908 254
Width: 1426
Flags: W
LayerCount: 2
Fore
SplineSet
320 1443 m 1
 320 518 l 2
 320 300 463 142 713 142 c 0
 963 142 1106 300 1106 518 c 2
 1106 1443 l 1
 1286 1443 l 1
 1286 506 l 2
 1286 198 1071 -24 713 -24 c 0
 355 -24 140 198 140 506 c 2
 140 1443 l 1
 320 1443 l 1
713 -389 m 0
 646 -389 592 -335 592 -268 c 0
 592 -201 646 -147 713 -147 c 0
 780 -147 834 -201 834 -268 c 0
 834 -335 780 -389 713 -389 c 0
EndSplineSet
Substitution2: "'c2sc' Capitals to Small Capitals lookup 5 subtable" Udotbelow.sc
EndChar

StartChar: Utilde
Encoding: 360 360 255
Width: 1426
Flags: W
LayerCount: 2
Fore
SplineSet
320 1443 m 1
 320 518 l 2
 320 300 463 142 713 142 c 0
 963 142 1106 300 1106 518 c 2
 1106 1443 l 1
 1286 1443 l 1
 1286 506 l 2
 1286 198 1071 -24 713 -24 c 0
 355 -24 140 198 140 506 c 2
 140 1443 l 1
 320 1443 l 1
844 1580 m 0
 712 1580 662 1732 583 1732 c 0
 537 1732 508 1683 512 1590 c 1
 394 1590 l 1
 394 1754 470 1845 584 1845 c 0
 725 1845 770 1693 845 1693 c 0
 887 1693 914 1740 914 1836 c 1
 1032 1836 l 1
 1032 1676 953 1580 844 1580 c 0
EndSplineSet
Substitution2: "'c2sc' Capitals to Small Capitals lookup 5 subtable" Utilde.sc
EndChar

StartChar: Umacron
Encoding: 362 362 256
Width: 1426
Flags: W
LayerCount: 2
Fore
SplineSet
320 1443 m 1
 320 518 l 2
 320 300 463 142 713 142 c 0
 963 142 1106 300 1106 518 c 2
 1106 1443 l 1
 1286 1443 l 1
 1286 506 l 2
 1286 198 1071 -24 713 -24 c 0
 355 -24 140 198 140 506 c 2
 140 1443 l 1
 320 1443 l 1
1030 1750 m 1
 1030 1634 l 1
 396 1634 l 1
 396 1750 l 1
 1030 1750 l 1
EndSplineSet
Substitution2: "'c2sc' Capitals to Small Capitals lookup 5 subtable" Umacron.sc
EndChar

StartChar: Umacrondieresis
Encoding: 7802 7802 257
Width: 1426
Flags: W
LayerCount: 2
Fore
SplineSet
320 1443 m 1
 320 518 l 2
 320 300 463 142 713 142 c 0
 963 142 1106 300 1106 518 c 2
 1106 1443 l 1
 1286 1443 l 1
 1286 506 l 2
 1286 198 1071 -24 713 -24 c 0
 355 -24 140 198 140 506 c 2
 140 1443 l 1
 320 1443 l 1
1030 1592 m 1
 396 1592 l 1
 396 1708 l 1
 1030 1708 l 1
 1030 1592 l 1
536 1834 m 0
 478 1834 431 1881 431 1940 c 0
 431 1999 478 2046 536 2046 c 0
 593 2046 640 1999 640 1940 c 0
 640 1881 593 1834 536 1834 c 0
890 1834 m 0
 833 1834 786 1881 786 1940 c 0
 786 1999 833 2046 890 2046 c 0
 948 2046 995 1999 995 1940 c 0
 995 1881 948 1834 890 1834 c 0
EndSplineSet
Substitution2: "'c2sc' Capitals to Small Capitals lookup 5 subtable" Umacrondieresis.sc
EndChar

StartChar: Uring
Encoding: 366 366 258
Width: 1426
Flags: W
LayerCount: 2
Fore
SplineSet
320 1443 m 1
 320 518 l 2
 320 300 463 142 713 142 c 0
 963 142 1106 300 1106 518 c 2
 1106 1443 l 1
 1286 1443 l 1
 1286 506 l 2
 1286 198 1071 -24 713 -24 c 0
 355 -24 140 198 140 506 c 2
 140 1443 l 1
 320 1443 l 1
713 1516 m 0
 608 1516 522 1602 522 1707 c 0
 522 1812 608 1898 713 1898 c 0
 818 1898 904 1812 904 1707 c 0
 904 1602 818 1516 713 1516 c 0
713 1604 m 0
 770 1604 816 1650 816 1707 c 0
 816 1764 770 1810 713 1810 c 0
 656 1810 610 1764 610 1707 c 0
 610 1650 656 1604 713 1604 c 0
EndSplineSet
Substitution2: "'c2sc' Capitals to Small Capitals lookup 5 subtable" Uring.sc
EndChar

StartChar: Uogonek
Encoding: 370 370 259
Width: 1426
Flags: W
LayerCount: 2
Fore
SplineSet
944 -430 m 0
 814 -430 716 -355 716 -242 c 0
 716 -154 766 -76 854 -4 c 1
 854 0 l 1
 808 -14 756 -24 713 -24 c 0
 368 -24 140 186 140 506 c 2
 140 1443 l 1
 320 1443 l 1
 320 518 l 2
 320 289 474 142 713 142 c 0
 952 142 1106 289 1106 518 c 2
 1106 1443 l 1
 1286 1443 l 1
 1286 506 l 2
 1286 316 1205 177 1026 22 c 0
 930 -61 862 -134 862 -204 c 0
 862 -269 916 -301 981 -301 c 0
 1009 -301 1038 -297 1062 -292 c 1
 1062 -413 l 1
 1044 -422 999 -430 944 -430 c 0
EndSplineSet
Substitution2: "'c2sc' Capitals to Small Capitals lookup 5 subtable" Uogonek.sc
EndChar

StartChar: Uhorn
Encoding: 431 431 260
Width: 1573
Flags: W
LayerCount: 2
Fore
SplineSet
713 -24 m 0
 368 -24 140 186 140 506 c 2
 140 1443 l 1
 320 1443 l 1
 320 518 l 2
 320 289 474 142 713 142 c 0
 952 142 1106 289 1106 518 c 2
 1106 1443 l 1
 1288 1443 l 2
 1351 1443 1379 1471 1379 1531 c 2
 1379 1690 l 1
 1538 1690 l 1
 1538 1501 l 2
 1538 1385 1462 1315 1336 1315 c 2
 1286 1315 l 1
 1286 506 l 2
 1286 186 1058 -24 713 -24 c 0
EndSplineSet
Substitution2: "'c2sc' Capitals to Small Capitals lookup 5 subtable" Uhorn.sc
EndChar

StartChar: Uhorngrave
Encoding: 7914 7914 261
Width: 1573
Flags: W
LayerCount: 2
Fore
SplineSet
713 -24 m 0
 368 -24 140 186 140 506 c 2
 140 1443 l 1
 320 1443 l 1
 320 518 l 2
 320 289 474 142 713 142 c 0
 952 142 1106 289 1106 518 c 2
 1106 1443 l 1
 1288 1443 l 2
 1351 1443 1379 1471 1379 1531 c 2
 1379 1690 l 1
 1538 1690 l 1
 1538 1501 l 2
 1538 1385 1462 1315 1336 1315 c 2
 1286 1315 l 1
 1286 506 l 2
 1286 186 1058 -24 713 -24 c 0
623 1560 m 1
 363 1849 l 1
 557 1849 l 1
 777 1560 l 1
 623 1560 l 1
EndSplineSet
Substitution2: "'c2sc' Capitals to Small Capitals lookup 5 subtable" Uhorngrave.sc
EndChar

StartChar: Uhornacute
Encoding: 7912 7912 262
Width: 1573
Flags: W
LayerCount: 2
Fore
SplineSet
713 -24 m 0
 368 -24 140 186 140 506 c 2
 140 1443 l 1
 320 1443 l 1
 320 518 l 2
 320 289 474 142 713 142 c 0
 952 142 1106 289 1106 518 c 2
 1106 1443 l 1
 1288 1443 l 2
 1351 1443 1379 1471 1379 1531 c 2
 1379 1690 l 1
 1538 1690 l 1
 1538 1501 l 2
 1538 1385 1462 1315 1336 1315 c 2
 1286 1315 l 1
 1286 506 l 2
 1286 186 1058 -24 713 -24 c 0
803 1560 m 1
 649 1560 l 1
 869 1849 l 1
 1063 1849 l 1
 803 1560 l 1
EndSplineSet
Substitution2: "'c2sc' Capitals to Small Capitals lookup 5 subtable" Uhornacute.sc
EndChar

StartChar: Uhorndotbelow
Encoding: 7920 7920 263
Width: 1573
Flags: W
LayerCount: 2
Fore
SplineSet
713 -24 m 0
 368 -24 140 186 140 506 c 2
 140 1443 l 1
 320 1443 l 1
 320 518 l 2
 320 289 474 142 713 142 c 0
 952 142 1106 289 1106 518 c 2
 1106 1443 l 1
 1288 1443 l 2
 1351 1443 1379 1471 1379 1531 c 2
 1379 1690 l 1
 1538 1690 l 1
 1538 1501 l 2
 1538 1385 1462 1315 1336 1315 c 2
 1286 1315 l 1
 1286 506 l 2
 1286 186 1058 -24 713 -24 c 0
713 -389 m 0
 646 -389 592 -335 592 -268 c 0
 592 -201 646 -147 713 -147 c 0
 780 -147 834 -201 834 -268 c 0
 834 -335 780 -389 713 -389 c 0
EndSplineSet
Substitution2: "'c2sc' Capitals to Small Capitals lookup 5 subtable" Uhorndotbelow.sc
EndChar

StartChar: Uhornhookabove
Encoding: 7916 7916 264
Width: 1573
Flags: W
LayerCount: 2
Fore
SplineSet
713 -24 m 0
 368 -24 140 186 140 506 c 2
 140 1443 l 1
 320 1443 l 1
 320 518 l 2
 320 289 474 142 713 142 c 0
 952 142 1106 289 1106 518 c 2
 1106 1443 l 1
 1288 1443 l 2
 1351 1443 1379 1471 1379 1531 c 2
 1379 1690 l 1
 1538 1690 l 1
 1538 1501 l 2
 1538 1385 1462 1315 1336 1315 c 2
 1286 1315 l 1
 1286 506 l 2
 1286 186 1058 -24 713 -24 c 0
553 1753 m 1
 553 1849 l 1
 587 1864 631 1871 674 1871 c 0
 788 1871 869 1809 869 1711 c 0
 869 1630 805 1559 710 1527 c 1
 650 1605 l 1
 704 1622 740 1661 740 1704 c 0
 740 1742 703 1772 653 1772 c 0
 620 1772 582 1766 553 1753 c 1
EndSplineSet
Substitution2: "'c2sc' Capitals to Small Capitals lookup 5 subtable" Uhornhookabove.sc
EndChar

StartChar: Uhorntilde
Encoding: 7918 7918 265
Width: 1573
Flags: W
LayerCount: 2
Fore
SplineSet
713 -24 m 0
 368 -24 140 186 140 506 c 2
 140 1443 l 1
 320 1443 l 1
 320 518 l 2
 320 289 474 142 713 142 c 0
 952 142 1106 289 1106 518 c 2
 1106 1443 l 1
 1288 1443 l 2
 1351 1443 1379 1471 1379 1531 c 2
 1379 1690 l 1
 1538 1690 l 1
 1538 1501 l 2
 1538 1385 1462 1315 1336 1315 c 2
 1286 1315 l 1
 1286 506 l 2
 1286 186 1058 -24 713 -24 c 0
844 1580 m 0
 712 1580 662 1732 583 1732 c 0
 537 1732 508 1683 512 1590 c 1
 394 1590 l 1
 394 1754 470 1845 584 1845 c 0
 725 1845 770 1693 845 1693 c 0
 887 1693 914 1740 914 1836 c 1
 1032 1836 l 1
 1032 1676 953 1580 844 1580 c 0
EndSplineSet
Substitution2: "'c2sc' Capitals to Small Capitals lookup 5 subtable" Uhorntilde.sc
EndChar

StartChar: V
Encoding: 86 86 266
Width: 1292
Flags: W
LayerCount: 2
Fore
SplineSet
735 0 m 1
 557 0 l 1
 25 1443 l 1
 214 1443 l 1
 643 219 l 1
 649 219 l 1
 1078 1443 l 1
 1267 1443 l 1
 735 0 l 1
EndSplineSet
Substitution2: "'c2sc' Capitals to Small Capitals lookup 5 subtable" V.sc
EndChar

StartChar: Vtilde
Encoding: 7804 7804 267
Width: 1292
Flags: W
LayerCount: 2
Fore
SplineSet
735 0 m 1
 557 0 l 1
 25 1443 l 1
 214 1443 l 1
 643 219 l 1
 649 219 l 1
 1078 1443 l 1
 1267 1443 l 1
 735 0 l 1
777 1580 m 0
 645 1580 595 1732 516 1732 c 0
 470 1732 441 1683 445 1590 c 1
 327 1590 l 1
 327 1754 403 1845 517 1845 c 0
 658 1845 703 1693 778 1693 c 0
 820 1693 847 1740 847 1836 c 1
 965 1836 l 1
 965 1676 886 1580 777 1580 c 0
EndSplineSet
Substitution2: "'c2sc' Capitals to Small Capitals lookup 5 subtable" Vtilde.sc
EndChar

StartChar: Vdotbelow
Encoding: 7806 7806 268
Width: 1292
Flags: W
LayerCount: 2
Fore
SplineSet
735 0 m 1
 557 0 l 1
 25 1443 l 1
 214 1443 l 1
 643 219 l 1
 649 219 l 1
 1078 1443 l 1
 1267 1443 l 1
 735 0 l 1
646 -389 m 0
 579 -389 525 -335 525 -268 c 0
 525 -201 579 -147 646 -147 c 0
 713 -147 767 -201 767 -268 c 0
 767 -335 713 -389 646 -389 c 0
EndSplineSet
Substitution2: "'c2sc' Capitals to Small Capitals lookup 5 subtable" Vdotbelow.sc
EndChar

StartChar: W
Encoding: 87 87 269
Width: 1892
Flags: W
LayerCount: 2
Fore
SplineSet
941 1145 m 1
 608 0 l 1
 438 0 l 1
 45 1443 l 1
 233 1443 l 1
 522 265 l 1
 530 265 l 1
 855 1443 l 1
 1037 1443 l 1
 1362 265 l 1
 1370 265 l 1
 1659 1443 l 1
 1847 1443 l 1
 1454 0 l 1
 1284 0 l 1
 951 1145 l 1
 941 1145 l 1
EndSplineSet
Substitution2: "'c2sc' Capitals to Small Capitals lookup 5 subtable" W.sc
EndChar

StartChar: Wgrave
Encoding: 7808 7808 270
Width: 1892
Flags: W
LayerCount: 2
Fore
SplineSet
941 1145 m 1
 608 0 l 1
 438 0 l 1
 45 1443 l 1
 233 1443 l 1
 522 265 l 1
 530 265 l 1
 855 1443 l 1
 1037 1443 l 1
 1362 265 l 1
 1370 265 l 1
 1659 1443 l 1
 1847 1443 l 1
 1454 0 l 1
 1284 0 l 1
 951 1145 l 1
 941 1145 l 1
856 1560 m 1
 596 1849 l 1
 790 1849 l 1
 1010 1560 l 1
 856 1560 l 1
EndSplineSet
Substitution2: "'c2sc' Capitals to Small Capitals lookup 5 subtable" Wgrave.sc
EndChar

StartChar: Wacute
Encoding: 7810 7810 271
Width: 1892
Flags: W
LayerCount: 2
Fore
SplineSet
941 1145 m 1
 608 0 l 1
 438 0 l 1
 45 1443 l 1
 233 1443 l 1
 522 265 l 1
 530 265 l 1
 855 1443 l 1
 1037 1443 l 1
 1362 265 l 1
 1370 265 l 1
 1659 1443 l 1
 1847 1443 l 1
 1454 0 l 1
 1284 0 l 1
 951 1145 l 1
 941 1145 l 1
1036 1560 m 1
 882 1560 l 1
 1102 1849 l 1
 1296 1849 l 1
 1036 1560 l 1
EndSplineSet
Substitution2: "'c2sc' Capitals to Small Capitals lookup 5 subtable" Wacute.sc
EndChar

StartChar: Wdotaccent
Encoding: 7814 7814 272
Width: 1892
Flags: W
LayerCount: 2
Fore
SplineSet
941 1145 m 1
 608 0 l 1
 438 0 l 1
 45 1443 l 1
 233 1443 l 1
 522 265 l 1
 530 265 l 1
 855 1443 l 1
 1037 1443 l 1
 1362 265 l 1
 1370 265 l 1
 1659 1443 l 1
 1847 1443 l 1
 1454 0 l 1
 1284 0 l 1
 951 1145 l 1
 941 1145 l 1
946 1585 m 0
 879 1585 825 1639 825 1706 c 0
 825 1773 879 1827 946 1827 c 0
 1013 1827 1067 1773 1067 1706 c 0
 1067 1639 1013 1585 946 1585 c 0
EndSplineSet
Substitution2: "'c2sc' Capitals to Small Capitals lookup 5 subtable" Wdotaccent.sc
EndChar

StartChar: Wdotbelow
Encoding: 7816 7816 273
Width: 1892
Flags: W
LayerCount: 2
Fore
SplineSet
941 1145 m 1
 608 0 l 1
 438 0 l 1
 45 1443 l 1
 233 1443 l 1
 522 265 l 1
 530 265 l 1
 855 1443 l 1
 1037 1443 l 1
 1362 265 l 1
 1370 265 l 1
 1659 1443 l 1
 1847 1443 l 1
 1454 0 l 1
 1284 0 l 1
 951 1145 l 1
 941 1145 l 1
946 -389 m 0
 879 -389 825 -335 825 -268 c 0
 825 -201 879 -147 946 -147 c 0
 1013 -147 1067 -201 1067 -268 c 0
 1067 -335 1013 -389 946 -389 c 0
EndSplineSet
Substitution2: "'c2sc' Capitals to Small Capitals lookup 5 subtable" Wdotbelow.sc
EndChar

StartChar: Wdieresis
Encoding: 7812 7812 274
Width: 1892
Flags: W
LayerCount: 2
Fore
SplineSet
941 1145 m 1
 608 0 l 1
 438 0 l 1
 45 1443 l 1
 233 1443 l 1
 522 265 l 1
 530 265 l 1
 855 1443 l 1
 1037 1443 l 1
 1362 265 l 1
 1370 265 l 1
 1659 1443 l 1
 1847 1443 l 1
 1454 0 l 1
 1284 0 l 1
 951 1145 l 1
 941 1145 l 1
760 1604 m 0
 700 1604 650 1653 650 1714 c 0
 650 1775 700 1824 760 1824 c 0
 820 1824 870 1775 870 1714 c 0
 870 1653 820 1604 760 1604 c 0
1132 1604 m 0
 1072 1604 1022 1653 1022 1714 c 0
 1022 1775 1072 1824 1132 1824 c 0
 1192 1824 1242 1775 1242 1714 c 0
 1242 1653 1192 1604 1132 1604 c 0
EndSplineSet
Substitution2: "'c2sc' Capitals to Small Capitals lookup 5 subtable" Wdieresis.sc
EndChar

StartChar: Wcircumflex
Encoding: 372 372 275
Width: 1892
Flags: W
LayerCount: 2
Fore
SplineSet
941 1145 m 1
 608 0 l 1
 438 0 l 1
 45 1443 l 1
 233 1443 l 1
 522 265 l 1
 530 265 l 1
 855 1443 l 1
 1037 1443 l 1
 1362 265 l 1
 1370 265 l 1
 1659 1443 l 1
 1847 1443 l 1
 1454 0 l 1
 1284 0 l 1
 951 1145 l 1
 941 1145 l 1
879 1838 m 1
 1013 1838 l 1
 1296 1540 l 1
 1130 1540 l 1
 949 1732 l 1
 943 1732 l 1
 762 1540 l 1
 596 1540 l 1
 879 1838 l 1
EndSplineSet
Substitution2: "'c2sc' Capitals to Small Capitals lookup 5 subtable" Wcircumflex.sc
EndChar

StartChar: X
Encoding: 88 88 276
Width: 1300
Flags: W
LayerCount: 2
Fore
SplineSet
45 0 m 1
 536 723 l 1
 536 730 l 1
 51 1443 l 1
 268 1443 l 1
 653 863 l 1
 660 863 l 1
 1050 1443 l 1
 1255 1443 l 1
 757 721 l 1
 757 715 l 1
 1244 0 l 1
 1028 0 l 1
 645 575 l 1
 638 575 l 1
 249 0 l 1
 45 0 l 1
EndSplineSet
Substitution2: "'c2sc' Capitals to Small Capitals lookup 5 subtable" X.sc
EndChar

StartChar: Xdotaccent
Encoding: 7818 7818 277
Width: 1300
Flags: W
LayerCount: 2
Fore
SplineSet
45 0 m 1
 536 723 l 1
 536 730 l 1
 51 1443 l 1
 268 1443 l 1
 653 863 l 1
 660 863 l 1
 1050 1443 l 1
 1255 1443 l 1
 757 721 l 1
 757 715 l 1
 1244 0 l 1
 1028 0 l 1
 645 575 l 1
 638 575 l 1
 249 0 l 1
 45 0 l 1
650 1585 m 0
 583 1585 529 1639 529 1706 c 0
 529 1773 583 1827 650 1827 c 0
 717 1827 771 1773 771 1706 c 0
 771 1639 717 1585 650 1585 c 0
EndSplineSet
Substitution2: "'c2sc' Capitals to Small Capitals lookup 5 subtable" Xdotaccent.sc
EndChar

StartChar: Xdieresis
Encoding: 7820 7820 278
Width: 1300
Flags: W
LayerCount: 2
Fore
SplineSet
45 0 m 1
 536 723 l 1
 536 730 l 1
 51 1443 l 1
 268 1443 l 1
 653 863 l 1
 660 863 l 1
 1050 1443 l 1
 1255 1443 l 1
 757 721 l 1
 757 715 l 1
 1244 0 l 1
 1028 0 l 1
 645 575 l 1
 638 575 l 1
 249 0 l 1
 45 0 l 1
464 1604 m 0
 404 1604 354 1653 354 1714 c 0
 354 1775 404 1824 464 1824 c 0
 524 1824 574 1775 574 1714 c 0
 574 1653 524 1604 464 1604 c 0
836 1604 m 0
 776 1604 726 1653 726 1714 c 0
 726 1775 776 1824 836 1824 c 0
 896 1824 946 1775 946 1714 c 0
 946 1653 896 1604 836 1604 c 0
EndSplineSet
Substitution2: "'c2sc' Capitals to Small Capitals lookup 5 subtable" Xdieresis.sc
EndChar

StartChar: Y
Encoding: 89 89 279
Width: 1254
Flags: W
LayerCount: 2
Fore
SplineSet
717 0 m 1
 537 0 l 1
 537 621 l 1
 25 1443 l 1
 230 1443 l 1
 624 795 l 1
 630 795 l 1
 1024 1443 l 1
 1229 1443 l 1
 717 621 l 1
 717 0 l 1
EndSplineSet
Substitution2: "'c2sc' Capitals to Small Capitals lookup 5 subtable" Y.sc
EndChar

StartChar: Ygrave
Encoding: 7922 7922 280
Width: 1254
Flags: W
LayerCount: 2
Fore
SplineSet
717 0 m 1
 537 0 l 1
 537 621 l 1
 25 1443 l 1
 230 1443 l 1
 624 795 l 1
 630 795 l 1
 1024 1443 l 1
 1229 1443 l 1
 717 621 l 1
 717 0 l 1
537 1560 m 1
 277 1849 l 1
 471 1849 l 1
 691 1560 l 1
 537 1560 l 1
EndSplineSet
Substitution2: "'c2sc' Capitals to Small Capitals lookup 5 subtable" Ygrave.sc
EndChar

StartChar: Yacute
Encoding: 221 221 281
Width: 1254
Flags: W
LayerCount: 2
Fore
SplineSet
717 0 m 1
 537 0 l 1
 537 621 l 1
 25 1443 l 1
 230 1443 l 1
 624 795 l 1
 630 795 l 1
 1024 1443 l 1
 1229 1443 l 1
 717 621 l 1
 717 0 l 1
717 1560 m 1
 563 1560 l 1
 783 1849 l 1
 977 1849 l 1
 717 1560 l 1
EndSplineSet
Substitution2: "'c2sc' Capitals to Small Capitals lookup 5 subtable" Yacute.sc
EndChar

StartChar: Ydotaccent
Encoding: 7822 7822 282
Width: 1254
Flags: W
LayerCount: 2
Fore
SplineSet
717 0 m 1
 537 0 l 1
 537 621 l 1
 25 1443 l 1
 230 1443 l 1
 624 795 l 1
 630 795 l 1
 1024 1443 l 1
 1229 1443 l 1
 717 621 l 1
 717 0 l 1
627 1585 m 0
 560 1585 506 1639 506 1706 c 0
 506 1773 560 1827 627 1827 c 0
 694 1827 748 1773 748 1706 c 0
 748 1639 694 1585 627 1585 c 0
EndSplineSet
Substitution2: "'c2sc' Capitals to Small Capitals lookup 5 subtable" Ydotaccent.sc
EndChar

StartChar: Ydotbelow
Encoding: 7924 7924 283
Width: 1254
Flags: W
LayerCount: 2
Fore
SplineSet
717 0 m 1
 537 0 l 1
 537 621 l 1
 25 1443 l 1
 230 1443 l 1
 624 795 l 1
 630 795 l 1
 1024 1443 l 1
 1229 1443 l 1
 717 621 l 1
 717 0 l 1
627 -389 m 0
 560 -389 506 -335 506 -268 c 0
 506 -201 560 -147 627 -147 c 0
 694 -147 748 -201 748 -268 c 0
 748 -335 694 -389 627 -389 c 0
EndSplineSet
Substitution2: "'c2sc' Capitals to Small Capitals lookup 5 subtable" Ydotbelow.sc
EndChar

StartChar: Ydieresis
Encoding: 376 376 284
Width: 1254
Flags: W
LayerCount: 2
Fore
SplineSet
717 0 m 1
 537 0 l 1
 537 621 l 1
 25 1443 l 1
 230 1443 l 1
 624 795 l 1
 630 795 l 1
 1024 1443 l 1
 1229 1443 l 1
 717 621 l 1
 717 0 l 1
441 1604 m 0
 381 1604 331 1653 331 1714 c 0
 331 1775 381 1824 441 1824 c 0
 501 1824 551 1775 551 1714 c 0
 551 1653 501 1604 441 1604 c 0
813 1604 m 0
 753 1604 703 1653 703 1714 c 0
 703 1775 753 1824 813 1824 c 0
 873 1824 923 1775 923 1714 c 0
 923 1653 873 1604 813 1604 c 0
EndSplineSet
Substitution2: "'c2sc' Capitals to Small Capitals lookup 5 subtable" Ydieresis.sc
EndChar

StartChar: Ytilde
Encoding: 7928 7928 285
Width: 1254
Flags: W
LayerCount: 2
Fore
SplineSet
717 0 m 1
 537 0 l 1
 537 621 l 1
 25 1443 l 1
 230 1443 l 1
 624 795 l 1
 630 795 l 1
 1024 1443 l 1
 1229 1443 l 1
 717 621 l 1
 717 0 l 1
758 1580 m 0
 626 1580 576 1732 497 1732 c 0
 451 1732 422 1683 426 1590 c 1
 308 1590 l 1
 308 1754 384 1845 498 1845 c 0
 639 1845 684 1693 759 1693 c 0
 801 1693 828 1740 828 1836 c 1
 946 1836 l 1
 946 1676 867 1580 758 1580 c 0
EndSplineSet
Substitution2: "'c2sc' Capitals to Small Capitals lookup 5 subtable" Ytilde.sc
EndChar

StartChar: Ycircumflex
Encoding: 374 374 286
Width: 1254
Flags: W
LayerCount: 2
Fore
SplineSet
717 0 m 1
 537 0 l 1
 537 621 l 1
 25 1443 l 1
 230 1443 l 1
 624 795 l 1
 630 795 l 1
 1024 1443 l 1
 1229 1443 l 1
 717 621 l 1
 717 0 l 1
560 1838 m 1
 694 1838 l 1
 977 1540 l 1
 811 1540 l 1
 630 1732 l 1
 624 1732 l 1
 443 1540 l 1
 277 1540 l 1
 560 1838 l 1
EndSplineSet
Substitution2: "'c2sc' Capitals to Small Capitals lookup 5 subtable" Ycircumflex.sc
EndChar

StartChar: Ymacron
Encoding: 562 562 287
Width: 1254
Flags: W
LayerCount: 2
Fore
SplineSet
717 0 m 1
 537 0 l 1
 537 621 l 1
 25 1443 l 1
 230 1443 l 1
 624 795 l 1
 630 795 l 1
 1024 1443 l 1
 1229 1443 l 1
 717 621 l 1
 717 0 l 1
944 1750 m 1
 944 1634 l 1
 310 1634 l 1
 310 1750 l 1
 944 1750 l 1
EndSplineSet
Substitution2: "'c2sc' Capitals to Small Capitals lookup 5 subtable" Ymacron.sc
EndChar

StartChar: Yhookabove
Encoding: 7926 7926 288
Width: 1254
Flags: W
LayerCount: 2
Fore
SplineSet
717 0 m 1
 537 0 l 1
 537 621 l 1
 25 1443 l 1
 230 1443 l 1
 624 795 l 1
 630 795 l 1
 1024 1443 l 1
 1229 1443 l 1
 717 621 l 1
 717 0 l 1
467 1753 m 1
 467 1849 l 1
 501 1864 545 1871 588 1871 c 0
 702 1871 783 1809 783 1711 c 0
 783 1630 719 1559 624 1527 c 1
 564 1605 l 1
 618 1622 654 1661 654 1704 c 0
 654 1742 617 1772 567 1772 c 0
 534 1772 496 1766 467 1753 c 1
EndSplineSet
Substitution2: "'c2sc' Capitals to Small Capitals lookup 5 subtable" Yhookabove.sc
EndChar

StartChar: Z
Encoding: 90 90 289
Width: 1263
Flags: W
LayerCount: 2
Fore
SplineSet
98 0 m 1
 98 128 l 1
 921 1274 l 1
 921 1281 l 1
 126 1281 l 1
 126 1443 l 1
 1148 1443 l 1
 1148 1315 l 1
 329 169 l 1
 329 162 l 1
 1165 162 l 1
 1165 0 l 1
 98 0 l 1
EndSplineSet
Substitution2: "'c2sc' Capitals to Small Capitals lookup 5 subtable" Z.sc
EndChar

StartChar: Zacute
Encoding: 377 377 290
Width: 1263
Flags: W
LayerCount: 2
Fore
SplineSet
98 0 m 1
 98 128 l 1
 921 1274 l 1
 921 1281 l 1
 126 1281 l 1
 126 1443 l 1
 1148 1443 l 1
 1148 1315 l 1
 329 169 l 1
 329 162 l 1
 1165 162 l 1
 1165 0 l 1
 98 0 l 1
722 1560 m 1
 568 1560 l 1
 788 1849 l 1
 982 1849 l 1
 722 1560 l 1
EndSplineSet
Substitution2: "'c2sc' Capitals to Small Capitals lookup 5 subtable" Zacute.sc
EndChar

StartChar: Zcaron
Encoding: 381 381 291
Width: 1263
Flags: W
LayerCount: 2
Fore
SplineSet
98 0 m 1
 98 128 l 1
 921 1274 l 1
 921 1281 l 1
 126 1281 l 1
 126 1443 l 1
 1148 1443 l 1
 1148 1315 l 1
 329 169 l 1
 329 162 l 1
 1165 162 l 1
 1165 0 l 1
 98 0 l 1
565 1550 m 1
 282 1848 l 1
 448 1848 l 1
 629 1656 l 1
 635 1656 l 1
 816 1848 l 1
 982 1848 l 1
 699 1550 l 1
 565 1550 l 1
EndSplineSet
Substitution2: "'c2sc' Capitals to Small Capitals lookup 5 subtable" Zcaron.sc
EndChar

StartChar: Zcircumflex
Encoding: 7824 7824 292
Width: 1263
Flags: W
LayerCount: 2
Fore
SplineSet
98 0 m 1
 98 128 l 1
 921 1274 l 1
 921 1281 l 1
 126 1281 l 1
 126 1443 l 1
 1148 1443 l 1
 1148 1315 l 1
 329 169 l 1
 329 162 l 1
 1165 162 l 1
 1165 0 l 1
 98 0 l 1
565 1838 m 1
 699 1838 l 1
 982 1540 l 1
 816 1540 l 1
 635 1732 l 1
 629 1732 l 1
 448 1540 l 1
 282 1540 l 1
 565 1838 l 1
EndSplineSet
Substitution2: "'c2sc' Capitals to Small Capitals lookup 5 subtable" Zcircumflex.sc
EndChar

StartChar: Zlinebelow
Encoding: 7828 7828 293
Width: 1263
Flags: W
LayerCount: 2
Fore
SplineSet
98 0 m 1
 98 128 l 1
 921 1274 l 1
 921 1281 l 1
 126 1281 l 1
 126 1443 l 1
 1148 1443 l 1
 1148 1315 l 1
 329 169 l 1
 329 162 l 1
 1165 162 l 1
 1165 0 l 1
 98 0 l 1
949 -217 m 1
 949 -333 l 1
 315 -333 l 1
 315 -217 l 1
 949 -217 l 1
EndSplineSet
Substitution2: "'c2sc' Capitals to Small Capitals lookup 5 subtable" Zlinebelow.sc
EndChar

StartChar: Zdotbelow
Encoding: 7826 7826 294
Width: 1263
Flags: W
LayerCount: 2
Fore
SplineSet
98 0 m 1
 98 128 l 1
 921 1274 l 1
 921 1281 l 1
 126 1281 l 1
 126 1443 l 1
 1148 1443 l 1
 1148 1315 l 1
 329 169 l 1
 329 162 l 1
 1165 162 l 1
 1165 0 l 1
 98 0 l 1
632 -389 m 0
 565 -389 511 -335 511 -268 c 0
 511 -201 565 -147 632 -147 c 0
 699 -147 753 -201 753 -268 c 0
 753 -335 699 -389 632 -389 c 0
EndSplineSet
Substitution2: "'c2sc' Capitals to Small Capitals lookup 5 subtable" Zdotbelow.sc
EndChar

StartChar: Zdotaccent
Encoding: 379 379 295
Width: 1263
Flags: W
LayerCount: 2
Fore
SplineSet
98 0 m 1
 98 128 l 1
 921 1274 l 1
 921 1281 l 1
 126 1281 l 1
 126 1443 l 1
 1148 1443 l 1
 1148 1315 l 1
 329 169 l 1
 329 162 l 1
 1165 162 l 1
 1165 0 l 1
 98 0 l 1
632 1585 m 0
 565 1585 511 1639 511 1706 c 0
 511 1773 565 1827 632 1827 c 0
 699 1827 753 1773 753 1706 c 0
 753 1639 699 1585 632 1585 c 0
EndSplineSet
Substitution2: "'c2sc' Capitals to Small Capitals lookup 5 subtable" Zdotaccent.sc
EndChar

StartChar: AE
Encoding: 198 198 296
Width: 1973
Flags: W
HStem: 0 162<1142 1836> 459 153<480 962> 648 160<1142 1799> 1281 162<802 962 1142 1836>
VStem: 962 180<162 459 612 648 808 1281>
LayerCount: 2
Fore
SplineSet
802 1292 m 1
 480 612 l 1
 962 612 l 1
 962 1292 l 1
 802 1292 l 1
962 0 m 1
 962 459 l 1
 407 459 l 1
 190 0 l 1
 5 0 l 1
 692 1443 l 1
 1836 1443 l 1
 1836 1281 l 1
 1142 1281 l 1
 1142 808 l 1
 1799 808 l 1
 1799 648 l 1
 1142 648 l 1
 1142 162 l 1
 1836 162 l 1
 1836 0 l 1
 962 0 l 1
EndSplineSet
LCarets2: 1 963
Ligature2: "'liga' Standard Ligatures lookup 29 subtable" A E
Substitution2: "'c2sc' Capitals to Small Capitals lookup 5 subtable" AE.sc
EndChar

StartChar: AEmacron
Encoding: 482 482 297
Width: 1973
Flags: W
LayerCount: 2
Fore
SplineSet
802 1292 m 1
 480 612 l 1
 962 612 l 1
 962 1292 l 1
 802 1292 l 1
962 0 m 1
 962 459 l 1
 407 459 l 1
 190 0 l 1
 5 0 l 1
 692 1443 l 1
 1836 1443 l 1
 1836 1281 l 1
 1142 1281 l 1
 1142 808 l 1
 1799 808 l 1
 1799 648 l 1
 1142 648 l 1
 1142 162 l 1
 1836 162 l 1
 1836 0 l 1
 962 0 l 1
1716 1750 m 1
 1716 1634 l 1
 1082 1634 l 1
 1082 1750 l 1
 1716 1750 l 1
EndSplineSet
Substitution2: "'c2sc' Capitals to Small Capitals lookup 5 subtable" AEmacron.sc
EndChar

StartChar: AEacute
Encoding: 508 508 298
Width: 1973
Flags: W
LayerCount: 2
Fore
SplineSet
802 1292 m 1
 480 612 l 1
 962 612 l 1
 962 1292 l 1
 802 1292 l 1
962 0 m 1
 962 459 l 1
 407 459 l 1
 190 0 l 1
 5 0 l 1
 692 1443 l 1
 1836 1443 l 1
 1836 1281 l 1
 1142 1281 l 1
 1142 808 l 1
 1799 808 l 1
 1799 648 l 1
 1142 648 l 1
 1142 162 l 1
 1836 162 l 1
 1836 0 l 1
 962 0 l 1
1289 1560 m 1
 1135 1560 l 1
 1355 1849 l 1
 1549 1849 l 1
 1289 1560 l 1
EndSplineSet
Substitution2: "'c2sc' Capitals to Small Capitals lookup 5 subtable" AEacute.sc
EndChar

StartChar: OE
Encoding: 338 338 299
Width: 2216
Flags: HW
LayerCount: 2
Fore
SplineSet
756 1301 m 0
 457 1301 269 1077 269 721 c 0
 269 366 457 142 756 142 c 0
 1054 142 1242 366 1242 721 c 0
 1242 1076 1053 1301 756 1301 c 0
1245 0 m 1
 1245 228 l 1
 1245 228 l 1
 1145 68 967 -24 756 -24 c 0
 343 -24 84 263 84 721 c 0
 84 1180 343 1467 756 1467 c 0
 971 1467 1145 1378 1245 1219 c 1
 1245 1219 l 1
 1245 1443 l 1
 2119 1443 l 1
 2119 1281 l 1
 1425 1281 l 1
 1425 818 l 1
 2081 818 l 1
 2081 658 l 1
 1425 658 l 1
 1425 162 l 1
 2119 162 l 1
 2119 0 l 1
 1245 0 l 1
EndSplineSet
LCarets2: 1 1243
Ligature2: "'liga' Standard Ligatures lookup 29 subtable" O E
Substitution2: "'c2sc' Capitals to Small Capitals lookup 5 subtable" OE.sc
EndChar

StartChar: Eth
Encoding: 208 208 300
Width: 1412
Flags: W
LayerCount: 2
Fore
SplineSet
333 162 m 1
 626 162 l 2
 953 162 1135 362 1135 720 c 0
 1135 1081 954 1281 626 1281 c 2
 333 1281 l 1
 333 826 l 1
 610 826 l 1
 610 663 l 1
 333 663 l 1
 333 162 l 1
153 1443 m 1
 638 1443 l 2
 1066 1443 1319 1176 1319 722 c 0
 1319 267 1067 0 638 0 c 2
 153 0 l 1
 153 663 l 1
 24 663 l 1
 24 826 l 1
 153 826 l 1
 153 1443 l 1
EndSplineSet
Substitution2: "'c2sc' Capitals to Small Capitals lookup 5 subtable" Eth.sc
EndChar

StartChar: Thorn
Encoding: 222 222 301
Width: 1232
Flags: W
LayerCount: 2
Fore
SplineSet
160 1443 m 1
 340 1443 l 1
 340 1177 l 1
 713 1177 l 2
 933 1177 1135 1026 1135 762 c 0
 1135 498 931 345 711 345 c 2
 340 345 l 1
 340 0 l 1
 160 0 l 1
 160 1443 l 1
340 1017 m 1
 340 505 l 1
 662 505 l 2
 828 505 950 590 950 762 c 0
 950 934 828 1017 662 1017 c 2
 340 1017 l 1
EndSplineSet
Substitution2: "'c2sc' Capitals to Small Capitals lookup 5 subtable" Thorn.sc
EndChar

StartChar: Iotagreek.1
Encoding: 1114132 -1 302
Width: 904
Flags: W
LayerCount: 2
Fore
SplineSet
818 1289 m 1
 542 1289 l 1
 542 154 l 1
 818 154 l 1
 818 0 l 1
 542 0 l 1
 362 0 l 1
 86 0 l 1
 86 154 l 1
 362 154 l 1
 362 1289 l 1
 86 1289 l 1
 86 1443 l 1
 362 1443 l 1
 542 1443 l 1
 818 1443 l 1
 818 1289 l 1
EndSplineSet
EndChar

StartChar: Iotatonosgreek.1
Encoding: 1114133 -1 303
Width: 1287
Flags: W
LayerCount: 2
Fore
SplineSet
67 1096 m 1
 142 1396 l 1
 360 1396 l 1
 210 1096 l 1
 67 1096 l 1
1201 1289 m 1
 925 1289 l 1
 925 154 l 1
 1201 154 l 1
 1201 0 l 1
 925 0 l 1
 745 0 l 1
 469 0 l 1
 469 154 l 1
 745 154 l 1
 745 1289 l 1
 469 1289 l 1
 469 1443 l 1
 745 1443 l 1
 925 1443 l 1
 1201 1443 l 1
 1201 1289 l 1
EndSplineSet
EndChar

StartChar: Iotadieresisgreek.1
Encoding: 1114134 -1 304
Width: 904
Flags: W
LayerCount: 2
Fore
SplineSet
638 1604 m 0
 578 1604 528 1653 528 1714 c 0
 528 1775 578 1824 638 1824 c 0
 698 1824 748 1775 748 1714 c 0
 748 1653 698 1604 638 1604 c 0
266 1604 m 0
 206 1604 156 1653 156 1714 c 0
 156 1775 206 1824 266 1824 c 0
 326 1824 376 1775 376 1714 c 0
 376 1653 326 1604 266 1604 c 0
818 1289 m 1
 542 1289 l 1
 542 154 l 1
 818 154 l 1
 818 0 l 1
 542 0 l 1
 362 0 l 1
 86 0 l 1
 86 154 l 1
 362 154 l 1
 362 1289 l 1
 86 1289 l 1
 86 1443 l 1
 362 1443 l 1
 542 1443 l 1
 818 1443 l 1
 818 1289 l 1
EndSplineSet
EndChar

StartChar: Acyrillic
Encoding: 1040 1040 305
Width: 1312
Flags: W
LayerCount: 2
Fore
SplineSet
1088 0 m 1
 943 413 l 1
 369 413 l 1
 224 0 l 1
 35 0 l 1
 567 1443 l 1
 745 1443 l 1
 1277 0 l 1
 1088 0 l 1
653 1224 m 1
 422 566 l 1
 890 566 l 1
 659 1224 l 1
 653 1224 l 1
EndSplineSet
Substitution2: "'c2sc' Capitals to Small Capitals lookup 5 subtable" Acyrillic.sc
EndChar

StartChar: uni04D0
Encoding: 1232 1232 306
Width: 1312
Flags: W
LayerCount: 2
Fore
SplineSet
1088 0 m 1
 943 413 l 1
 369 413 l 1
 224 0 l 1
 35 0 l 1
 567 1443 l 1
 745 1443 l 1
 1277 0 l 1
 1088 0 l 1
653 1224 m 1
 422 566 l 1
 890 566 l 1
 659 1224 l 1
 653 1224 l 1
338 1849 m 1
 461 1849 l 1
 461 1737 539 1649 648 1649 c 0
 757 1649 835 1737 835 1849 c 1
 958 1849 l 1
 958 1673 831 1550 648 1550 c 0
 465 1550 338 1673 338 1849 c 1
EndSplineSet
EndChar

StartChar: uni04D2
Encoding: 1234 1234 307
Width: 1312
Flags: W
LayerCount: 2
Fore
SplineSet
1088 0 m 1
 943 413 l 1
 369 413 l 1
 224 0 l 1
 35 0 l 1
 567 1443 l 1
 745 1443 l 1
 1277 0 l 1
 1088 0 l 1
653 1224 m 1
 422 566 l 1
 890 566 l 1
 659 1224 l 1
 653 1224 l 1
470 1604 m 0
 410 1604 360 1653 360 1714 c 0
 360 1775 410 1824 470 1824 c 0
 530 1824 580 1775 580 1714 c 0
 580 1653 530 1604 470 1604 c 0
842 1604 m 0
 782 1604 732 1653 732 1714 c 0
 732 1775 782 1824 842 1824 c 0
 902 1824 952 1775 952 1714 c 0
 952 1653 902 1604 842 1604 c 0
EndSplineSet
EndChar

StartChar: uniF50E
Encoding: 1114135 -1 308
Width: 1312
Flags: W
LayerCount: 2
Fore
SplineSet
1088 0 m 1
 943 413 l 1
 369 413 l 1
 224 0 l 1
 35 0 l 1
 567 1443 l 1
 745 1443 l 1
 1277 0 l 1
 1088 0 l 1
653 1224 m 1
 422 566 l 1
 890 566 l 1
 659 1224 l 1
 653 1224 l 1
973 1750 m 1
 973 1634 l 1
 339 1634 l 1
 339 1750 l 1
 973 1750 l 1
EndSplineSet
EndChar

StartChar: uniF460
Encoding: 1114136 -1 309
Width: 1312
Flags: W
LayerCount: 2
Fore
SplineSet
1088 0 m 1
 943 413 l 1
 369 413 l 1
 224 0 l 1
 35 0 l 1
 567 1443 l 1
 745 1443 l 1
 1277 0 l 1
 1088 0 l 1
653 1224 m 1
 422 566 l 1
 890 566 l 1
 659 1224 l 1
 653 1224 l 1
746 1560 m 1
 592 1560 l 1
 812 1849 l 1
 1006 1849 l 1
 746 1560 l 1
EndSplineSet
EndChar

StartChar: Becyrillic
Encoding: 1041 1041 310
Width: 1257
Flags: W
LayerCount: 2
Fore
SplineSet
1137 433 m 0
 1137 178 946 0 675 0 c 2
 150 0 l 1
 150 1443 l 1
 993 1443 l 1
 993 1281 l 1
 330 1281 l 1
 330 868 l 1
 673 868 l 2
 944 868 1137 689 1137 433 c 0
330 162 m 1
 628 162 l 2
 835 162 952 259 952 433 c 0
 952 608 834 706 628 706 c 2
 330 706 l 1
 330 162 l 1
EndSplineSet
Substitution2: "'c2sc' Capitals to Small Capitals lookup 5 subtable" Becyrillic.sc
EndChar

StartChar: Vecyrillic
Encoding: 1042 1042 311
Width: 1258
Flags: W
LayerCount: 2
Fore
SplineSet
695 0 m 2
 150 0 l 1
 150 1443 l 1
 697 1443 l 2
 944 1443 1111 1299 1111 1083 c 0
 1111 933 1001 793 862 768 c 1
 862 760 l 1
 1058 735 1184 597 1184 405 c 0
 1184 151 1002 0 695 0 c 2
330 1284 m 1
 330 821 l 1
 600 821 l 2
 813 821 929 906 929 1062 c 0
 929 1205 831 1284 656 1284 c 2
 330 1284 l 1
330 159 m 1
 668 159 l 2
 885 159 999 247 999 414 c 0
 999 581 881 666 651 666 c 2
 330 666 l 1
 330 159 l 1
EndSplineSet
Substitution2: "'c2sc' Capitals to Small Capitals lookup 5 subtable" Vecyrillic.sc
EndChar

StartChar: Gecyrillic
Encoding: 1043 1043 312
Width: 1071
Flags: W
LayerCount: 2
Fore
SplineSet
331 0 m 1
 150 0 l 1
 150 1443 l 1
 1006 1443 l 1
 1006 1279 l 1
 331 1279 l 1
 331 0 l 1
EndSplineSet
Substitution2: "'c2sc' Capitals to Small Capitals lookup 5 subtable" Gecyrillic.sc
EndChar

StartChar: Gjecyrillic
Encoding: 1027 1027 313
Width: 1071
Flags: W
LayerCount: 2
Fore
SplineSet
331 0 m 1
 150 0 l 1
 150 1443 l 1
 1006 1443 l 1
 1006 1279 l 1
 331 1279 l 1
 331 0 l 1
673 1560 m 1
 519 1560 l 1
 739 1849 l 1
 933 1849 l 1
 673 1560 l 1
EndSplineSet
Substitution2: "'c2sc' Capitals to Small Capitals lookup 5 subtable" Gjecyrillic.sc
EndChar

StartChar: Geupturncyrillic
Encoding: 1168 1168 314
Width: 1071
Flags: W
LayerCount: 2
Fore
SplineSet
331 1279 m 1
 331 0 l 1
 150 0 l 1
 150 1443 l 1
 839 1443 l 1
 839 1728 l 1
 1006 1728 l 1
 1006 1279 l 1
 331 1279 l 1
EndSplineSet
Substitution2: "'c2sc' Capitals to Small Capitals lookup 5 subtable" Geupturncyrillic.sc
EndChar

StartChar: uni04F6
Encoding: 1270 1270 315
Width: 1071
Flags: W
LayerCount: 2
Fore
SplineSet
1006 1279 m 1
 331 1279 l 1
 331 162 l 1
 555 162 l 1
 555 -285 l 1
 388 -285 l 1
 388 0 l 1
 331 0 l 1
 194 0 l 1
 150 0 l 1
 150 1443 l 1
 1006 1443 l 1
 1006 1279 l 1
EndSplineSet
EndChar

StartChar: uni0492
Encoding: 1170 1170 316
Width: 1074
Flags: W
LayerCount: 2
Fore
SplineSet
1009 1279 m 1
 334 1279 l 1
 334 775 l 1
 858 775 l 1
 858 635 l 1
 334 635 l 1
 334 0 l 1
 153 0 l 1
 153 635 l 1
 24 635 l 1
 24 775 l 1
 153 775 l 1
 153 1443 l 1
 1009 1443 l 1
 1009 1279 l 1
EndSplineSet
EndChar

StartChar: uniF53C
Encoding: 1114137 -1 317
Width: 1091
Flags: W
LayerCount: 2
Fore
SplineSet
330 0 m 1
 150 0 l 1
 150 1443 l 1
 1026 1443 l 1
 1026 1281 l 1
 330 1281 l 1
 330 785 l 1
 969 785 l 1
 969 625 l 1
 330 625 l 1
 330 0 l 1
EndSplineSet
EndChar

StartChar: uni04FA
Encoding: 1274 1274 318
Width: 1074
Flags: W
LayerCount: 2
Fore
SplineSet
1009 1279 m 1
 334 1279 l 1
 334 775 l 1
 858 775 l 1
 858 635 l 1
 334 635 l 1
 334 297 l 1
 334 0 l 1
 334 -53 l 2
 334 -280 230 -375 -5 -375 c 2
 -35 -375 l 1
 -35 -223 l 1
 -9 -223 l 2
 113 -223 153 -175 153 -56 c 2
 153 0 l 1
 153 297 l 1
 153 635 l 1
 24 635 l 1
 24 775 l 1
 153 775 l 1
 153 1443 l 1
 1009 1443 l 1
 1009 1279 l 1
EndSplineSet
EndChar

StartChar: Decyrillic
Encoding: 1044 1044 319
Width: 1480
Flags: W
LayerCount: 2
Fore
SplineSet
461 531 m 2
 451 366 431 256 360 170 c 1
 360 162 l 1
 1060 162 l 1
 1060 1281 l 1
 508 1281 l 1
 461 531 l 2
197 0 m 1
 197 -285 l 1
 30 -285 l 1
 30 162 l 1
 137 162 l 1
 242 218 281 346 292 535 c 2
 347 1443 l 1
 1240 1443 l 1
 1240 162 l 1
 1420 162 l 1
 1420 -285 l 1
 1253 -285 l 1
 1253 0 l 1
 197 0 l 1
EndSplineSet
Substitution2: "'c2sc' Capitals to Small Capitals lookup 5 subtable" Decyrillic.sc
Substitution2: "'locl' Localized Forms in Cyrillic lookup 3 subtable" uni0414.BUL
EndChar

StartChar: uni0414.BUL
Encoding: 1114138 -1 320
Width: 1490
Flags: W
LayerCount: 2
Fore
SplineSet
737 1196 m 1
 372 162 l 1
 1118 162 l 1
 753 1196 l 1
 737 1196 l 1
1307 162 m 1
 1450 162 l 1
 1450 -285 l 1
 1283 -285 l 1
 1283 0 l 1
 207 0 l 1
 207 -285 l 1
 40 -285 l 1
 40 162 l 1
 183 162 l 1
 656 1443 l 1
 834 1443 l 1
 1307 162 l 1
EndSplineSet
EndChar

StartChar: Iecyrillic
Encoding: 1045 1045 321
Width: 1151
Flags: W
LayerCount: 2
Fore
SplineSet
1044 162 m 1
 1044 0 l 1
 150 0 l 1
 150 1443 l 1
 1044 1443 l 1
 1044 1281 l 1
 330 1281 l 1
 330 818 l 1
 1007 818 l 1
 1007 658 l 1
 330 658 l 1
 330 162 l 1
 1044 162 l 1
EndSplineSet
Substitution2: "'c2sc' Capitals to Small Capitals lookup 5 subtable" Iecyrillic.sc
EndChar

StartChar: Iocyrillic
Encoding: 1025 1025 322
Width: 1151
Flags: W
LayerCount: 2
Fore
SplineSet
1044 162 m 1
 1044 0 l 1
 150 0 l 1
 150 1443 l 1
 1044 1443 l 1
 1044 1281 l 1
 330 1281 l 1
 330 818 l 1
 1007 818 l 1
 1007 658 l 1
 330 658 l 1
 330 162 l 1
 1044 162 l 1
411 1604 m 0
 351 1604 301 1653 301 1714 c 0
 301 1775 351 1824 411 1824 c 0
 471 1824 521 1775 521 1714 c 0
 521 1653 471 1604 411 1604 c 0
783 1604 m 0
 723 1604 673 1653 673 1714 c 0
 673 1775 723 1824 783 1824 c 0
 843 1824 893 1775 893 1714 c 0
 893 1653 843 1604 783 1604 c 0
EndSplineSet
Substitution2: "'c2sc' Capitals to Small Capitals lookup 5 subtable" Iocyrillic.sc
EndChar

StartChar: uni04D6
Encoding: 1238 1238 323
Width: 1151
Flags: W
LayerCount: 2
Fore
SplineSet
1044 162 m 1
 1044 0 l 1
 150 0 l 1
 150 1443 l 1
 1044 1443 l 1
 1044 1281 l 1
 330 1281 l 1
 330 818 l 1
 1007 818 l 1
 1007 658 l 1
 330 658 l 1
 330 162 l 1
 1044 162 l 1
292 1849 m 1
 415 1849 l 1
 415 1737 493 1649 602 1649 c 0
 711 1649 789 1737 789 1849 c 1
 912 1849 l 1
 912 1673 785 1550 602 1550 c 0
 419 1550 292 1673 292 1849 c 1
EndSplineSet
EndChar

StartChar: uniF510
Encoding: 1114139 -1 324
Width: 1151
Flags: W
LayerCount: 2
Fore
SplineSet
1044 162 m 1
 1044 0 l 1
 150 0 l 1
 150 1443 l 1
 1044 1443 l 1
 1044 1281 l 1
 330 1281 l 1
 330 818 l 1
 1007 818 l 1
 1007 658 l 1
 330 658 l 1
 330 162 l 1
 1044 162 l 1
914 1750 m 1
 914 1634 l 1
 280 1634 l 1
 280 1750 l 1
 914 1750 l 1
EndSplineSet
EndChar

StartChar: uniF512
Encoding: 1114140 -1 325
Width: 1151
Flags: W
LayerCount: 2
Fore
SplineSet
1044 162 m 1
 1044 0 l 1
 150 0 l 1
 150 1443 l 1
 1044 1443 l 1
 1044 1281 l 1
 330 1281 l 1
 330 818 l 1
 1007 818 l 1
 1007 658 l 1
 330 658 l 1
 330 162 l 1
 1044 162 l 1
433 1760 m 0
 490 1760 537 1713 537 1654 c 0
 537 1595 490 1548 433 1548 c 0
 375 1548 328 1595 328 1654 c 0
 328 1713 375 1760 433 1760 c 0
293 2019 m 1
 927 2019 l 1
 927 1903 l 1
 293 1903 l 1
 293 2019 l 1
787 1760 m 0
 845 1760 892 1713 892 1654 c 0
 892 1595 845 1548 787 1548 c 0
 730 1548 683 1595 683 1654 c 0
 683 1713 730 1760 787 1760 c 0
EndSplineSet
EndChar

StartChar: uni0400
Encoding: 1024 1024 326
Width: 1151
Flags: W
LayerCount: 2
Fore
SplineSet
1044 162 m 1
 1044 0 l 1
 150 0 l 1
 150 1443 l 1
 1044 1443 l 1
 1044 1281 l 1
 330 1281 l 1
 330 818 l 1
 1007 818 l 1
 1007 658 l 1
 330 658 l 1
 330 162 l 1
 1044 162 l 1
507 1560 m 1
 247 1849 l 1
 441 1849 l 1
 661 1560 l 1
 507 1560 l 1
EndSplineSet
EndChar

StartChar: uniF461
Encoding: 1114141 -1 327
Width: 1151
Flags: W
LayerCount: 2
Fore
SplineSet
1044 162 m 1
 1044 0 l 1
 150 0 l 1
 150 1443 l 1
 1044 1443 l 1
 1044 1281 l 1
 330 1281 l 1
 330 818 l 1
 1007 818 l 1
 1007 658 l 1
 330 658 l 1
 330 162 l 1
 1044 162 l 1
687 1560 m 1
 533 1560 l 1
 753 1849 l 1
 947 1849 l 1
 687 1560 l 1
EndSplineSet
EndChar

StartChar: uniF469
Encoding: 1114142 -1 328
Width: 1156
Flags: W
LayerCount: 2
Fore
SplineSet
1049 162 m 1
 1049 0 l 1
 155 0 l 1
 155 1443 l 1
 1049 1443 l 1
 1049 1281 l 1
 335 1281 l 1
 335 818 l 1
 1012 818 l 1
 1012 658 l 1
 335 658 l 1
 335 162 l 1
 1049 162 l 1
316 1525 m 0
 255 1525 204 1576 204 1637 c 0
 204 1699 255 1749 316 1749 c 0
 378 1749 428 1699 428 1637 c 0
 428 1576 378 1525 316 1525 c 0
876 1525 m 0
 815 1525 764 1576 764 1637 c 0
 764 1699 815 1749 876 1749 c 0
 938 1749 988 1699 988 1637 c 0
 988 1576 938 1525 876 1525 c 0
490 1514 m 1
 521 1824 l 1
 732 1824 l 1
 624 1514 l 1
 490 1514 l 1
EndSplineSet
EndChar

StartChar: uniF514
Encoding: 1114143 -1 329
Width: 1151
Flags: W
LayerCount: 2
Fore
SplineSet
1044 162 m 1
 1044 0 l 1
 150 0 l 1
 150 1443 l 1
 1044 1443 l 1
 1044 1281 l 1
 330 1281 l 1
 330 818 l 1
 1007 818 l 1
 1007 658 l 1
 330 658 l 1
 330 162 l 1
 1044 162 l 1
245 2200 m 1
 399 2200 l 1
 399 2095 479 2027 609 2027 c 0
 739 2027 819 2095 819 2200 c 1
 973 2200 l 1
 973 2021 835 1902 609 1902 c 0
 383 1902 245 2021 245 2200 c 1
245 1570 m 1
 245 1749 383 1868 609 1868 c 0
 835 1868 973 1749 973 1570 c 1
 819 1570 l 1
 819 1675 739 1743 609 1743 c 0
 479 1743 399 1675 399 1570 c 1
 245 1570 l 1
EndSplineSet
EndChar

StartChar: Zhecyrillic
Encoding: 1046 1046 330
Width: 1967
Flags: W
LayerCount: 2
Fore
SplineSet
1266 752 m 1
 1947 0 l 1
 1705 0 l 1
 1079 701 l 1
 1071 701 l 1
 1071 0 l 1
 891 0 l 1
 891 701 l 1
 883 701 l 1
 252 0 l 1
 20 0 l 1
 695 750 l 1
 77 1443 l 1
 305 1443 l 1
 883 778 l 1
 891 778 l 1
 891 1443 l 1
 1071 1443 l 1
 1071 778 l 1
 1079 778 l 1
 1659 1443 l 1
 1882 1443 l 1
 1266 752 l 1
EndSplineSet
Substitution2: "'c2sc' Capitals to Small Capitals lookup 5 subtable" Zhecyrillic.sc
Substitution2: "'locl' Localized Forms in Cyrillic lookup 3 subtable" uni0416.BUL
EndChar

StartChar: uni04C1
Encoding: 1217 1217 331
Width: 1967
Flags: W
LayerCount: 2
Fore
SplineSet
1177 1848 m 1
 1304 1848 l 1
 1291 1684 1175 1542 983 1542 c 0
 791 1542 675 1684 662 1848 c 1
 789 1848 l 1
 801 1727 878 1654 983 1654 c 0
 1088 1654 1165 1727 1177 1848 c 1
1266 752 m 1
 1947 0 l 1
 1705 0 l 1
 1079 701 l 1
 1071 701 l 1
 1071 0 l 1
 891 0 l 1
 891 701 l 1
 883 701 l 1
 252 0 l 1
 20 0 l 1
 695 750 l 1
 77 1443 l 1
 305 1443 l 1
 883 778 l 1
 891 778 l 1
 891 1443 l 1
 1071 1443 l 1
 1071 778 l 1
 1079 778 l 1
 1659 1443 l 1
 1882 1443 l 1
 1266 752 l 1
EndSplineSet
EndChar

StartChar: uni04DC
Encoding: 1244 1244 332
Width: 1967
Flags: W
LayerCount: 2
Fore
SplineSet
1170 1604 m 0
 1110 1604 1060 1653 1060 1714 c 0
 1060 1775 1110 1824 1170 1824 c 0
 1230 1824 1280 1775 1280 1714 c 0
 1280 1653 1230 1604 1170 1604 c 0
798 1604 m 0
 738 1604 688 1653 688 1714 c 0
 688 1775 738 1824 798 1824 c 0
 858 1824 908 1775 908 1714 c 0
 908 1653 858 1604 798 1604 c 0
1266 752 m 1
 1947 0 l 1
 1705 0 l 1
 1079 701 l 1
 1071 701 l 1
 1071 0 l 1
 891 0 l 1
 891 701 l 1
 883 701 l 1
 252 0 l 1
 20 0 l 1
 695 750 l 1
 77 1443 l 1
 305 1443 l 1
 883 778 l 1
 891 778 l 1
 891 1443 l 1
 1071 1443 l 1
 1071 778 l 1
 1079 778 l 1
 1659 1443 l 1
 1882 1443 l 1
 1266 752 l 1
EndSplineSet
EndChar

StartChar: uni0496
Encoding: 1174 1174 333
Width: 1974
Flags: W
LayerCount: 2
Fore
SplineSet
1800 162 m 1
 1969 162 l 1
 1969 -285 l 1
 1802 -285 l 1
 1802 0 l 1
 1705 0 l 1
 1079 701 l 1
 1071 701 l 1
 1071 0 l 1
 891 0 l 1
 891 701 l 1
 883 701 l 1
 252 0 l 1
 20 0 l 1
 695 750 l 1
 77 1443 l 1
 305 1443 l 1
 883 778 l 1
 891 778 l 1
 891 1443 l 1
 1071 1443 l 1
 1071 778 l 1
 1079 778 l 1
 1659 1443 l 1
 1882 1443 l 1
 1266 752 l 1
 1800 162 l 1
EndSplineSet
EndChar

StartChar: uni0416.BUL
Encoding: 1114144 -1 334
Width: 2009
Flags: W
LayerCount: 2
Fore
SplineSet
1370 814 m 1
 1986 0 l 1
 1772 0 l 1
 1265 685 l 1
 1091 495 l 1
 1091 0 l 1
 915 0 l 1
 915 495 l 1
 741 685 l 1
 234 0 l 1
 23 0 l 1
 636 810 l 1
 89 1443 l 1
 303 1443 l 1
 897 742 l 1
 915 742 l 1
 915 1443 l 1
 1091 1443 l 1
 1091 742 l 1
 1109 742 l 1
 1703 1443 l 1
 1913 1443 l 1
 1370 814 l 1
EndSplineSet
EndChar

StartChar: Zecyrillic
Encoding: 1047 1047 335
Width: 1186
Flags: W
LayerCount: 2
Fore
SplineSet
391 657 m 1
 391 817 l 1
 586 817 l 2
 762 817 886 924 886 1075 c 0
 886 1224 776 1317 599 1317 c 0
 420 1317 304 1225 289 1073 c 1
 114 1073 l 1
 132 1323 319 1477 606 1477 c 0
 876 1477 1069 1316 1069 1091 c 0
 1069 931 960 795 801 756 c 1
 801 748 l 1
 993 723 1111 585 1111 389 c 0
 1111 151 888 -34 603 -34 c 0
 299 -34 88 130 75 376 c 1
 249 376 l 1
 265 224 403 126 601 126 c 0
 794 126 926 235 926 394 c 0
 926 559 802 657 594 657 c 2
 391 657 l 1
EndSplineSet
Substitution2: "'c2sc' Capitals to Small Capitals lookup 5 subtable" Zecyrillic.sc
EndChar

StartChar: uni04DE
Encoding: 1246 1246 336
Width: 1186
Flags: W
LayerCount: 2
Fore
SplineSet
391 657 m 1
 391 817 l 1
 586 817 l 2
 762 817 886 924 886 1075 c 0
 886 1224 776 1317 599 1317 c 0
 420 1317 304 1225 289 1073 c 1
 114 1073 l 1
 132 1323 319 1477 606 1477 c 0
 876 1477 1069 1316 1069 1091 c 0
 1069 931 960 795 801 756 c 1
 801 748 l 1
 993 723 1111 585 1111 389 c 0
 1111 151 888 -34 603 -34 c 0
 299 -34 88 130 75 376 c 1
 249 376 l 1
 265 224 403 126 601 126 c 0
 794 126 926 235 926 394 c 0
 926 559 802 657 594 657 c 2
 391 657 l 1
407 1604 m 0
 347 1604 297 1653 297 1714 c 0
 297 1775 347 1824 407 1824 c 0
 467 1824 517 1775 517 1714 c 0
 517 1653 467 1604 407 1604 c 0
779 1604 m 0
 719 1604 669 1653 669 1714 c 0
 669 1775 719 1824 779 1824 c 0
 839 1824 889 1775 889 1714 c 0
 889 1653 839 1604 779 1604 c 0
EndSplineSet
EndChar

StartChar: uni0498
Encoding: 1176 1176 337
Width: 1186
Flags: W
LayerCount: 2
Fore
SplineSet
801 756 m 1
 801 748 l 1
 993 723 1111 585 1111 389 c 0
 1111 174 929 2 684 -29 c 1
 684 -285 l 1
 517 -285 l 1
 517 -29 l 1
 260 -1 87 154 75 376 c 1
 249 376 l 1
 265 224 403 126 601 126 c 0
 794 126 926 235 926 394 c 0
 926 559 802 657 594 657 c 2
 391 657 l 1
 391 817 l 1
 586 817 l 2
 762 817 886 924 886 1075 c 0
 886 1224 776 1317 599 1317 c 0
 420 1317 304 1225 289 1073 c 1
 114 1073 l 1
 132 1323 319 1477 606 1477 c 0
 876 1477 1069 1316 1069 1091 c 0
 1069 931 960 795 801 756 c 1
EndSplineSet
EndChar

StartChar: uniF50A
Encoding: 1114145 -1 338
Width: 1186
Flags: W
LayerCount: 2
Fore
SplineSet
801 756 m 1
 801 748 l 1
 993 723 1111 585 1111 389 c 0
 1111 173 927 1 680 -29 c 1
 637 -130 l 1
 767 -132 851 -188 851 -290 c 0
 851 -404 747 -466 617 -468 c 0
 559 -469 493 -462 467 -454 c 1
 467 -352 l 1
 489 -357 550 -364 592 -364 c 0
 675 -364 719 -338 719 -292 c 0
 719 -246 675 -228 573 -228 c 2
 503 -228 l 1
 503 -159 l 1
 553 -32 l 1
 276 -15 87 144 75 376 c 1
 249 376 l 1
 265 224 403 126 601 126 c 0
 794 126 926 235 926 394 c 0
 926 559 802 657 594 657 c 2
 391 657 l 1
 391 817 l 1
 586 817 l 2
 762 817 886 924 886 1075 c 0
 886 1224 776 1317 599 1317 c 0
 420 1317 304 1225 289 1073 c 1
 114 1073 l 1
 132 1323 319 1477 606 1477 c 0
 876 1477 1069 1316 1069 1091 c 0
 1069 931 960 795 801 756 c 1
EndSplineSet
EndChar

StartChar: uniF516
Encoding: 1114146 -1 339
Width: 1186
Flags: W
LayerCount: 2
Fore
SplineSet
391 657 m 1
 391 817 l 1
 586 817 l 2
 762 817 886 924 886 1075 c 0
 886 1224 776 1317 599 1317 c 0
 420 1317 304 1225 289 1073 c 1
 114 1073 l 1
 132 1323 319 1477 606 1477 c 0
 876 1477 1069 1316 1069 1091 c 0
 1069 931 960 795 801 756 c 1
 801 748 l 1
 993 723 1111 585 1111 389 c 0
 1111 151 888 -34 603 -34 c 0
 299 -34 88 130 75 376 c 1
 249 376 l 1
 265 224 403 126 601 126 c 0
 794 126 926 235 926 394 c 0
 926 559 802 657 594 657 c 2
 391 657 l 1
532 1550 m 1
 249 1848 l 1
 415 1848 l 1
 596 1656 l 1
 602 1656 l 1
 783 1848 l 1
 949 1848 l 1
 666 1550 l 1
 532 1550 l 1
EndSplineSet
EndChar

StartChar: Iicyrillic
Encoding: 1048 1048 340
Width: 1452
Flags: W
LayerCount: 2
Fore
SplineSet
1124 0 m 1
 1124 1148 l 1
 1108 1148 l 1
 328 0 l 1
 150 0 l 1
 150 1443 l 1
 328 1443 l 1
 328 291 l 1
 344 291 l 1
 1124 1443 l 1
 1302 1443 l 1
 1302 0 l 1
 1124 0 l 1
EndSplineSet
Substitution2: "'c2sc' Capitals to Small Capitals lookup 5 subtable" Iicyrillic.sc
EndChar

StartChar: Iishortcyrillic
Encoding: 1049 1049 341
Width: 1452
Flags: W
LayerCount: 2
Fore
SplineSet
1124 0 m 1
 1124 1148 l 1
 1108 1148 l 1
 328 0 l 1
 150 0 l 1
 150 1443 l 1
 328 1443 l 1
 328 291 l 1
 344 291 l 1
 1124 1443 l 1
 1302 1443 l 1
 1302 0 l 1
 1124 0 l 1
415 1849 m 1
 538 1849 l 1
 538 1737 616 1649 725 1649 c 0
 834 1649 912 1737 912 1849 c 1
 1035 1849 l 1
 1035 1673 908 1550 725 1550 c 0
 542 1550 415 1673 415 1849 c 1
EndSplineSet
Substitution2: "'c2sc' Capitals to Small Capitals lookup 5 subtable" Iishortcyrillic.sc
EndChar

StartChar: uni040D
Encoding: 1037 1037 342
Width: 1452
Flags: W
LayerCount: 2
Fore
SplineSet
1124 0 m 1
 1124 1148 l 1
 1108 1148 l 1
 328 0 l 1
 150 0 l 1
 150 1443 l 1
 328 1443 l 1
 328 291 l 1
 344 291 l 1
 1124 1443 l 1
 1302 1443 l 1
 1302 0 l 1
 1124 0 l 1
666 1560 m 1
 406 1849 l 1
 600 1849 l 1
 820 1560 l 1
 666 1560 l 1
EndSplineSet
EndChar

StartChar: uni04E2
Encoding: 1250 1250 343
Width: 1452
Flags: W
LayerCount: 2
Fore
SplineSet
1124 0 m 1
 1124 1148 l 1
 1108 1148 l 1
 328 0 l 1
 150 0 l 1
 150 1443 l 1
 328 1443 l 1
 328 291 l 1
 344 291 l 1
 1124 1443 l 1
 1302 1443 l 1
 1302 0 l 1
 1124 0 l 1
1050 1750 m 1
 1050 1634 l 1
 416 1634 l 1
 416 1750 l 1
 1050 1750 l 1
EndSplineSet
EndChar

StartChar: uni04E4
Encoding: 1252 1252 344
Width: 1452
Flags: W
LayerCount: 2
Fore
SplineSet
1124 0 m 1
 1124 1148 l 1
 1108 1148 l 1
 328 0 l 1
 150 0 l 1
 150 1443 l 1
 328 1443 l 1
 328 291 l 1
 344 291 l 1
 1124 1443 l 1
 1302 1443 l 1
 1302 0 l 1
 1124 0 l 1
535 1604 m 0
 475 1604 425 1653 425 1714 c 0
 425 1775 475 1824 535 1824 c 0
 595 1824 645 1775 645 1714 c 0
 645 1653 595 1604 535 1604 c 0
907 1604 m 0
 847 1604 797 1653 797 1714 c 0
 797 1775 847 1824 907 1824 c 0
 967 1824 1017 1775 1017 1714 c 0
 1017 1653 967 1604 907 1604 c 0
EndSplineSet
EndChar

StartChar: uni048A
Encoding: 1162 1162 345
Width: 1512
Flags: W
LayerCount: 2
Fore
SplineSet
912 1849 m 1
 1035 1849 l 1
 1035 1673 908 1550 725 1550 c 0
 542 1550 415 1673 415 1849 c 1
 538 1849 l 1
 538 1737 616 1649 725 1649 c 0
 834 1649 912 1737 912 1849 c 1
1302 162 m 1
 1482 162 l 1
 1482 110 l 1
 1376 -285 l 1
 1209 -285 l 1
 1287 0 l 1
 1124 0 l 1
 1124 162 l 1
 1124 1148 l 1
 1108 1148 l 1
 328 0 l 1
 150 0 l 1
 150 1443 l 1
 328 1443 l 1
 328 291 l 1
 344 291 l 1
 1124 1443 l 1
 1302 1443 l 1
 1302 162 l 1
EndSplineSet
EndChar

StartChar: uniF462
Encoding: 1114147 -1 346
Width: 1540
Flags: W
LayerCount: 2
Fore
SplineSet
1124 0 m 1
 1124 1148 l 1
 1108 1148 l 1
 328 0 l 1
 150 0 l 1
 150 1443 l 1
 328 1443 l 1
 328 291 l 1
 344 291 l 1
 1124 1443 l 1
 1302 1443 l 1
 1302 0 l 1
 1124 0 l 1
800 1560 m 1
 646 1560 l 1
 866 1849 l 1
 1060 1849 l 1
 800 1560 l 1
EndSplineSet
EndChar

StartChar: uniF532
Encoding: 1114148 -1 347
Width: 1540
Flags: W
LayerCount: 2
Fore
SplineSet
912 1849 m 1
 1035 1849 l 1
 1035 1673 908 1550 725 1550 c 0
 542 1550 415 1673 415 1849 c 1
 538 1849 l 1
 538 1737 616 1649 725 1649 c 0
 834 1649 912 1737 912 1849 c 1
1124 1443 m 1
 1302 1443 l 1
 1302 297 l 1
 1302 0 l 1
 1302 -53 l 2
 1302 -280 1198 -375 966 -375 c 2
 936 -375 l 1
 936 -223 l 1
 962 -223 l 2
 1084 -223 1124 -175 1124 -56 c 2
 1124 0 l 1
 1124 297 l 1
 1124 1148 l 1
 1108 1148 l 1
 328 0 l 1
 150 0 l 1
 150 1443 l 1
 328 1443 l 1
 328 291 l 1
 344 291 l 1
 1124 1443 l 1
EndSplineSet
EndChar

StartChar: Kacyrillic
Encoding: 1050 1050 348
Width: 1274
Flags: W
LayerCount: 2
Fore
SplineSet
528 753 m 1
 1251 0 l 1
 1004 0 l 1
 338 701 l 1
 330 701 l 1
 330 0 l 1
 150 0 l 1
 150 1443 l 1
 330 1443 l 1
 330 778 l 1
 338 778 l 1
 958 1443 l 1
 1184 1443 l 1
 528 753 l 1
EndSplineSet
Substitution2: "'c2sc' Capitals to Small Capitals lookup 5 subtable" Kacyrillic.sc
Substitution2: "'locl' Localized Forms in Cyrillic lookup 3 subtable" uni041A.BUL
EndChar

StartChar: Kjecyrillic
Encoding: 1036 1036 349
Width: 1274
Flags: W
LayerCount: 2
Fore
SplineSet
953 1849 m 1
 693 1560 l 1
 539 1560 l 1
 759 1849 l 1
 953 1849 l 1
528 753 m 1
 1251 0 l 1
 1004 0 l 1
 338 701 l 1
 330 701 l 1
 330 0 l 1
 150 0 l 1
 150 1443 l 1
 330 1443 l 1
 330 778 l 1
 338 778 l 1
 958 1443 l 1
 1184 1443 l 1
 528 753 l 1
EndSplineSet
Substitution2: "'c2sc' Capitals to Small Capitals lookup 5 subtable" Kjecyrillic.sc
EndChar

StartChar: uni049A
Encoding: 1178 1178 350
Width: 1274
Flags: W
LayerCount: 2
Fore
SplineSet
1095 162 m 1
 1269 162 l 1
 1269 -285 l 1
 1102 -285 l 1
 1102 0 l 1
 1004 0 l 1
 338 701 l 1
 330 701 l 1
 330 0 l 1
 150 0 l 1
 150 1443 l 1
 330 1443 l 1
 330 778 l 1
 338 778 l 1
 958 1443 l 1
 1184 1443 l 1
 528 753 l 1
 1095 162 l 1
EndSplineSet
EndChar

StartChar: uni049C
Encoding: 1180 1180 351
Width: 1405
Flags: W
LayerCount: 2
Fore
SplineSet
804 749 m 1
 1382 0 l 1
 1144 0 l 1
 632 665 l 1
 590 665 l 1
 590 333 l 1
 445 333 l 1
 445 665 l 1
 330 665 l 1
 330 0 l 1
 150 0 l 1
 150 1443 l 1
 330 1443 l 1
 330 809 l 1
 445 809 l 1
 445 1121 l 1
 590 1121 l 1
 590 809 l 1
 632 809 l 1
 1098 1443 l 1
 1316 1443 l 1
 804 749 l 1
EndSplineSet
EndChar

StartChar: uni049E
Encoding: 1182 1182 352
Width: 1330
Flags: W
LayerCount: 2
Fore
SplineSet
572 748 m 1
 1307 0 l 1
 1069 0 l 1
 417 665 l 1
 375 665 l 1
 375 0 l 1
 195 0 l 1
 195 1155 l 1
 15 1155 l 1
 15 1307 l 1
 195 1307 l 1
 195 1443 l 1
 375 1443 l 1
 375 1307 l 1
 649 1307 l 1
 649 1155 l 1
 375 1155 l 1
 375 809 l 1
 417 809 l 1
 1023 1443 l 1
 1249 1443 l 1
 572 748 l 1
EndSplineSet
EndChar

StartChar: uni04A0
Encoding: 1184 1184 353
Width: 1860
Flags: W
LayerCount: 2
Fore
SplineSet
1114 753 m 1
 1837 0 l 1
 1590 0 l 1
 924 701 l 1
 916 701 l 1
 916 0 l 1
 736 0 l 1
 736 1281 l 1
 60 1281 l 1
 60 1443 l 1
 736 1443 l 1
 916 1443 l 1
 916 1281 l 1
 916 778 l 1
 924 778 l 1
 1544 1443 l 1
 1770 1443 l 1
 1114 753 l 1
EndSplineSet
EndChar

